%TF.GenerationSoftware,KiCad,Pcbnew,9.0.0*%
%TF.CreationDate,2025-04-24T23:50:50+03:00*%
%TF.ProjectId,Analog,416e616c-6f67-42e6-9b69-6361645f7063,rev?*%
%TF.SameCoordinates,Original*%
%TF.FileFunction,Paste,Top*%
%TF.FilePolarity,Positive*%
%FSLAX46Y46*%
G04 Gerber Fmt 4.6, Leading zero omitted, Abs format (unit mm)*
G04 Created by KiCad (PCBNEW 9.0.0) date 2025-04-24 23:50:50*
%MOMM*%
%LPD*%
G01*
G04 APERTURE LIST*
G04 Aperture macros list*
%AMRoundRect*
0 Rectangle with rounded corners*
0 $1 Rounding radius*
0 $2 $3 $4 $5 $6 $7 $8 $9 X,Y pos of 4 corners*
0 Add a 4 corners polygon primitive as box body*
4,1,4,$2,$3,$4,$5,$6,$7,$8,$9,$2,$3,0*
0 Add four circle primitives for the rounded corners*
1,1,$1+$1,$2,$3*
1,1,$1+$1,$4,$5*
1,1,$1+$1,$6,$7*
1,1,$1+$1,$8,$9*
0 Add four rect primitives between the rounded corners*
20,1,$1+$1,$2,$3,$4,$5,0*
20,1,$1+$1,$4,$5,$6,$7,0*
20,1,$1+$1,$6,$7,$8,$9,0*
20,1,$1+$1,$8,$9,$2,$3,0*%
G04 Aperture macros list end*
%ADD10RoundRect,0.218750X-0.218750X-0.381250X0.218750X-0.381250X0.218750X0.381250X-0.218750X0.381250X0*%
%ADD11RoundRect,0.237500X-0.237500X0.250000X-0.237500X-0.250000X0.237500X-0.250000X0.237500X0.250000X0*%
%ADD12RoundRect,0.250000X0.450000X-0.325000X0.450000X0.325000X-0.450000X0.325000X-0.450000X-0.325000X0*%
%ADD13RoundRect,0.237500X-0.237500X0.300000X-0.237500X-0.300000X0.237500X-0.300000X0.237500X0.300000X0*%
%ADD14RoundRect,0.237500X0.237500X-0.250000X0.237500X0.250000X-0.237500X0.250000X-0.237500X-0.250000X0*%
%ADD15RoundRect,0.237500X0.300000X0.237500X-0.300000X0.237500X-0.300000X-0.237500X0.300000X-0.237500X0*%
%ADD16RoundRect,0.237500X-0.300000X-0.237500X0.300000X-0.237500X0.300000X0.237500X-0.300000X0.237500X0*%
%ADD17RoundRect,0.237500X0.250000X0.237500X-0.250000X0.237500X-0.250000X-0.237500X0.250000X-0.237500X0*%
%ADD18RoundRect,0.250001X0.462499X0.624999X-0.462499X0.624999X-0.462499X-0.624999X0.462499X-0.624999X0*%
%ADD19RoundRect,0.237500X0.237500X-0.300000X0.237500X0.300000X-0.237500X0.300000X-0.237500X-0.300000X0*%
%ADD20R,0.950000X0.800000*%
%ADD21RoundRect,0.062500X-0.187500X-0.062500X0.187500X-0.062500X0.187500X0.062500X-0.187500X0.062500X0*%
G04 APERTURE END LIST*
D10*
%TO.C,L2*%
X151693100Y-108407200D03*
X153818100Y-108407200D03*
%TD*%
D11*
%TO.C,R3*%
X148488400Y-106656500D03*
X148488400Y-108481500D03*
%TD*%
D12*
%TO.C,D1*%
X137439400Y-109051200D03*
X137439400Y-107001200D03*
%TD*%
D13*
%TO.C,C2*%
X147116800Y-103277500D03*
X147116800Y-105002500D03*
%TD*%
D14*
%TO.C,R1*%
X148412200Y-101674300D03*
X148412200Y-99849300D03*
%TD*%
D15*
%TO.C,C7*%
X153440300Y-103632000D03*
X151715300Y-103632000D03*
%TD*%
D11*
%TO.C,RLd*%
X137261600Y-103151300D03*
X137261600Y-104976300D03*
%TD*%
D16*
%TO.C,C5*%
X141758500Y-106654600D03*
X143483500Y-106654600D03*
%TD*%
D15*
%TO.C,C3*%
X141526600Y-105003600D03*
X139801600Y-105003600D03*
%TD*%
%TO.C,C9*%
X153516500Y-106654600D03*
X151791500Y-106654600D03*
%TD*%
D11*
%TO.C,R2*%
X145034000Y-99061900D03*
X145034000Y-100886900D03*
%TD*%
D15*
%TO.C,C1*%
X141502300Y-103022400D03*
X139777300Y-103022400D03*
%TD*%
D17*
%TO.C,R4*%
X146962500Y-106654600D03*
X145137500Y-106654600D03*
%TD*%
D18*
%TO.C,F1*%
X140476300Y-101117400D03*
X137501300Y-101117400D03*
%TD*%
D10*
%TO.C,L1*%
X151591500Y-101854000D03*
X153716500Y-101854000D03*
%TD*%
D19*
%TO.C,C8*%
X150063200Y-108431500D03*
X150063200Y-106706500D03*
%TD*%
D20*
%TO.C,U1*%
X144284350Y-103001000D03*
X144284350Y-104001000D03*
D21*
X143334350Y-102251000D03*
X143334350Y-102751000D03*
X143334350Y-103251000D03*
X143334350Y-103751000D03*
X143334350Y-104251000D03*
X143334350Y-104751000D03*
X145234350Y-104751000D03*
X145234350Y-104251000D03*
X145234350Y-103751000D03*
X145234350Y-103251000D03*
X145234350Y-102751000D03*
X145234350Y-102251000D03*
%TD*%
D13*
%TO.C,C6*%
X150012400Y-101855100D03*
X150012400Y-103580100D03*
%TD*%
%TO.C,C4*%
X146837400Y-99899300D03*
X146837400Y-101624300D03*
%TD*%
M02*
