M48
; DRILL file {KiCad 9.0.0} date 2025-04-24T23:50:52+0300
; FORMAT={-:-/ absolute / metric / decimal}
; #@! TF.CreationDate,2025-04-24T23:50:52+03:00
; #@! TF.GenerationSoftware,Kicad,Pcbnew,9.0.0
; #@! TF.FileFunction,Plated,1,2,PTH
FMAT,2
METRIC
; #@! TA.AperFunction,Plated,PTH,ViaDrill
T1C0.300
; #@! TA.AperFunction,Plated,PTH,ComponentDrill
T2C0.300
; #@! TA.AperFunction,Plated,PTH,ComponentDrill
T3C0.950
; #@! TA.AperFunction,Plated,PTH,ComponentDrill
T4C1.000
; #@! TA.AperFunction,Plated,PTH,ComponentDrill
T5C2.200
%
G90
G05
T1
X137.363Y-99.67
X137.439Y-109.051
X138.506Y-103.022
X138.506Y-103.962
X139.319Y-106.121
X139.319Y-107.036
X139.522Y-103.962
X139.624Y-107.925
X140.183Y-99.695
X140.513Y-106.121
X140.538Y-103.988
X140.564Y-107.036
X140.564Y-108.56
X140.868Y-107.721
X141.148Y-99.619
X141.554Y-103.997
X141.783Y-107.747
X141.783Y-108.56
X141.859Y-99.111
X142.504Y-103.932
X142.621Y-98.4
X142.75Y-100.178
X142.764Y-101.845
X142.773Y-100.99
X143.739Y-98.359
X143.84Y-107.696
X144.856Y-107.696
X145.034Y-97.892
X145.725Y-101.783
X145.923Y-109.195
X145.938Y-104.557
X146.329Y-98.298
X146.914Y-109.093
X147.015Y-107.696
X147.472Y-98.298
X148.082Y-109.626
X148.234Y-102.845
X148.26Y-104.242
X148.26Y-105.512
X148.336Y-98.73
X149.022Y-103.581
X149.2Y-104.699
X149.2Y-105.512
X149.21Y-109.626
X149.479Y-99.695
X149.479Y-100.609
X150.241Y-105.512
X150.338Y-109.626
X150.724Y-100.609
X150.742Y-99.72
X151.465Y-109.626
X151.715Y-104.698
X151.79Y-105.512
X152.07Y-99.695
X152.07Y-100.609
X152.593Y-109.626
X153.441Y-99.72
X153.441Y-100.609
X153.492Y-104.673
X153.492Y-105.512
X153.721Y-109.626
X154.788Y-109.601
X154.813Y-106.629
X154.813Y-108.153
X154.838Y-99.289
X154.838Y-100.432
X154.864Y-101.981
X154.864Y-103.149
X154.864Y-104.343
T2
X144.284Y-102.501
X144.284Y-103.501
X144.284Y-104.501
T3
X157.231Y-101.132
X157.231Y-103.632
X157.231Y-106.132
X162.209Y-101.132
X162.209Y-103.632
X162.209Y-106.132
T4
X134.29Y-102.438
X134.29Y-104.938
T5
X130.175Y-97.536
X130.175Y-110.261
X167.513Y-97.663
X167.538Y-110.084
M30
