%TF.GenerationSoftware,KiCad,Pcbnew,9.0.0*%
%TF.CreationDate,2025-04-24T23:50:50+03:00*%
%TF.ProjectId,Analog,416e616c-6f67-42e6-9b69-6361645f7063,rev?*%
%TF.SameCoordinates,Original*%
%TF.FileFunction,Copper,L2,Bot*%
%TF.FilePolarity,Positive*%
%FSLAX46Y46*%
G04 Gerber Fmt 4.6, Leading zero omitted, Abs format (unit mm)*
G04 Created by KiCad (PCBNEW 9.0.0) date 2025-04-24 23:50:50*
%MOMM*%
%LPD*%
G01*
G04 APERTURE LIST*
G04 Aperture macros list*
%AMRoundRect*
0 Rectangle with rounded corners*
0 $1 Rounding radius*
0 $2 $3 $4 $5 $6 $7 $8 $9 X,Y pos of 4 corners*
0 Add a 4 corners polygon primitive as box body*
4,1,4,$2,$3,$4,$5,$6,$7,$8,$9,$2,$3,0*
0 Add four circle primitives for the rounded corners*
1,1,$1+$1,$2,$3*
1,1,$1+$1,$4,$5*
1,1,$1+$1,$6,$7*
1,1,$1+$1,$8,$9*
0 Add four rect primitives between the rounded corners*
20,1,$1+$1,$2,$3,$4,$5,0*
20,1,$1+$1,$4,$5,$6,$7,0*
20,1,$1+$1,$6,$7,$8,$9,0*
20,1,$1+$1,$8,$9,$2,$3,0*%
G04 Aperture macros list end*
%TA.AperFunction,ComponentPad*%
%ADD10RoundRect,0.250000X0.725000X-0.600000X0.725000X0.600000X-0.725000X0.600000X-0.725000X-0.600000X0*%
%TD*%
%TA.AperFunction,ComponentPad*%
%ADD11O,1.950000X1.700000*%
%TD*%
%TA.AperFunction,ComponentPad*%
%ADD12C,2.600000*%
%TD*%
%TA.AperFunction,ConnectorPad*%
%ADD13C,3.800000*%
%TD*%
%TA.AperFunction,ComponentPad*%
%ADD14RoundRect,0.250000X-0.750000X0.600000X-0.750000X-0.600000X0.750000X-0.600000X0.750000X0.600000X0*%
%TD*%
%TA.AperFunction,ComponentPad*%
%ADD15O,2.000000X1.700000*%
%TD*%
%TA.AperFunction,ComponentPad*%
%ADD16C,0.600000*%
%TD*%
%TA.AperFunction,SMDPad,CuDef*%
%ADD17R,1.000000X2.650000*%
%TD*%
%TA.AperFunction,ViaPad*%
%ADD18C,0.600000*%
%TD*%
%TA.AperFunction,Conductor*%
%ADD19C,0.250000*%
%TD*%
%TA.AperFunction,Conductor*%
%ADD20C,0.350000*%
%TD*%
G04 APERTURE END LIST*
D10*
%TO.P,J2,1,Pin_1*%
%TO.N,AGND*%
X157230800Y-106132000D03*
D11*
%TO.P,J2,2,Pin_2*%
%TO.N,/AVSS*%
X157230800Y-103632000D03*
%TO.P,J2,3,Pin_3*%
%TO.N,/AVDD*%
X157230800Y-101132000D03*
%TD*%
D12*
%TO.P,H2,1,1*%
%TO.N,AGND*%
X130175000Y-110261400D03*
D13*
X130175000Y-110261400D03*
%TD*%
D12*
%TO.P,H1,1,1*%
%TO.N,AGND*%
X167538400Y-110083600D03*
D13*
X167538400Y-110083600D03*
%TD*%
D12*
%TO.P,H4,1,1*%
%TO.N,AGND*%
X167513000Y-97663000D03*
D13*
X167513000Y-97663000D03*
%TD*%
D12*
%TO.P,H3,1,1*%
%TO.N,AGND*%
X130175000Y-97536000D03*
D13*
X130175000Y-97536000D03*
%TD*%
D10*
%TO.P,J3,1,Pin_1*%
%TO.N,AGND*%
X162209200Y-106132000D03*
D11*
%TO.P,J3,2,Pin_2*%
%TO.N,/AVSS*%
X162209200Y-103632000D03*
%TO.P,J3,3,Pin_3*%
%TO.N,/AVDD*%
X162209200Y-101132000D03*
%TD*%
D14*
%TO.P,J1,1,Pin_1*%
%TO.N,/RAWA_Unprotected*%
X134289800Y-102438200D03*
D15*
%TO.P,J1,2,Pin_2*%
%TO.N,AGND*%
X134289800Y-104938200D03*
%TD*%
D16*
%TO.P,U1,13,PAD*%
%TO.N,AGND*%
X144284350Y-102501000D03*
X144284350Y-103501000D03*
D17*
X144284350Y-103501000D03*
D16*
X144284350Y-104501000D03*
%TD*%
D18*
%TO.N,AGND*%
X141782800Y-108559600D03*
X150337520Y-109626400D03*
X137439400Y-109051200D03*
X140538200Y-103987600D03*
%TO.N,RAW_A*%
X145923000Y-109194600D03*
X145724552Y-101782552D03*
%TO.N,AGND*%
X139319000Y-106121200D03*
%TO.N,RAW_A*%
X145938258Y-104556542D03*
%TO.N,AGND*%
X149199600Y-105511600D03*
X152593040Y-109626400D03*
X153492200Y-105511600D03*
X149021800Y-103581200D03*
X149479000Y-99695000D03*
X148234400Y-102844600D03*
X141859000Y-99110800D03*
X148082000Y-109626400D03*
X151790400Y-105511600D03*
X142764114Y-101844714D03*
X149199600Y-104698800D03*
X138506200Y-103022400D03*
X147015200Y-107696000D03*
X145034000Y-97891600D03*
X154863800Y-103149400D03*
X141782800Y-107746800D03*
X142773400Y-100990400D03*
X153720800Y-109626400D03*
X149209760Y-109626400D03*
X139623800Y-107924600D03*
X148259800Y-104241600D03*
X154813000Y-108153200D03*
X152069800Y-100609400D03*
X154813000Y-106629200D03*
X141147800Y-99618800D03*
X139522200Y-103962200D03*
X142750420Y-100177600D03*
X139319000Y-107035600D03*
X153492200Y-104673400D03*
X140563600Y-108559600D03*
X148259800Y-105511600D03*
X140512800Y-106121200D03*
X152069800Y-99695000D03*
X146329400Y-98298000D03*
X150241000Y-105511600D03*
X147472400Y-98298000D03*
X140868400Y-107721400D03*
X140563600Y-107035600D03*
X151465280Y-109626400D03*
X137363200Y-99669600D03*
X149479000Y-100609400D03*
X154838400Y-100431600D03*
X154863800Y-101981000D03*
X138506200Y-103962200D03*
X154787600Y-109601000D03*
X142621000Y-98399600D03*
X150742400Y-99720400D03*
X140182600Y-99695000D03*
X150723600Y-100609400D03*
X154863800Y-104343200D03*
X153441400Y-100609400D03*
X146913600Y-109093000D03*
X143738600Y-98359200D03*
X154838400Y-99288600D03*
X144856200Y-107696000D03*
X143840200Y-107696000D03*
X141554200Y-103997400D03*
X148336000Y-98729800D03*
X153441400Y-99720400D03*
X151715300Y-104697700D03*
X142504013Y-103931903D03*
%TD*%
D19*
%TO.N,RAW_A*%
X145938258Y-104556542D02*
X145938258Y-101996258D01*
D20*
X145923000Y-104571800D02*
X145938258Y-104556542D01*
D19*
X145938258Y-101996258D02*
X145724552Y-101782552D01*
D20*
X145923000Y-109194600D02*
X145923000Y-104571800D01*
%TD*%
%TA.AperFunction,Conductor*%
%TO.N,AGND*%
G36*
X169825739Y-95592385D02*
G01*
X169871494Y-95645189D01*
X169882700Y-95696700D01*
X169882700Y-112278500D01*
X169863015Y-112345539D01*
X169810211Y-112391294D01*
X169758700Y-112402500D01*
X128167700Y-112402500D01*
X128100661Y-112382815D01*
X128054906Y-112330011D01*
X128043700Y-112278500D01*
X128043700Y-101790335D01*
X133039300Y-101790335D01*
X133039300Y-103086070D01*
X133039301Y-103086076D01*
X133045708Y-103145683D01*
X133096002Y-103280528D01*
X133096006Y-103280535D01*
X133182252Y-103395744D01*
X133182255Y-103395747D01*
X133297464Y-103481993D01*
X133297471Y-103481997D01*
X133432317Y-103532291D01*
X133432316Y-103532291D01*
X133439244Y-103533035D01*
X133491927Y-103538700D01*
X135087672Y-103538699D01*
X135147283Y-103532291D01*
X135282131Y-103481996D01*
X135397346Y-103395746D01*
X135483596Y-103280531D01*
X135533891Y-103145683D01*
X135540300Y-103086073D01*
X135540299Y-101790328D01*
X135533891Y-101730717D01*
X135526193Y-101710077D01*
X145174052Y-101710077D01*
X145174052Y-101855027D01*
X145205238Y-101971414D01*
X145211569Y-101995040D01*
X145284040Y-102120563D01*
X145284042Y-102120565D01*
X145284043Y-102120567D01*
X145386537Y-102223061D01*
X145500759Y-102289007D01*
X145548973Y-102339573D01*
X145562758Y-102396393D01*
X145562758Y-104102156D01*
X145543073Y-104169195D01*
X145526439Y-104189837D01*
X145497751Y-104218524D01*
X145497746Y-104218530D01*
X145425275Y-104344053D01*
X145423968Y-104348930D01*
X145387758Y-104484067D01*
X145387758Y-104629017D01*
X145408226Y-104705402D01*
X145425275Y-104769031D01*
X145425276Y-104769032D01*
X145480886Y-104865349D01*
X145497500Y-104927350D01*
X145497500Y-108797363D01*
X145480887Y-108859363D01*
X145410017Y-108982111D01*
X145410016Y-108982115D01*
X145372500Y-109122125D01*
X145372500Y-109267075D01*
X145410016Y-109407085D01*
X145410017Y-109407088D01*
X145482488Y-109532611D01*
X145482490Y-109532613D01*
X145482491Y-109532615D01*
X145584985Y-109635109D01*
X145584986Y-109635110D01*
X145584988Y-109635111D01*
X145710511Y-109707582D01*
X145710512Y-109707582D01*
X145710515Y-109707584D01*
X145850525Y-109745100D01*
X145850528Y-109745100D01*
X145995472Y-109745100D01*
X145995475Y-109745100D01*
X146135485Y-109707584D01*
X146261015Y-109635109D01*
X146363509Y-109532615D01*
X146435984Y-109407085D01*
X146473500Y-109267075D01*
X146473500Y-109122125D01*
X146435984Y-108982115D01*
X146365113Y-108859363D01*
X146348500Y-108797363D01*
X146348500Y-104976093D01*
X146368185Y-104909054D01*
X146374127Y-104900603D01*
X146378761Y-104894562D01*
X146378767Y-104894557D01*
X146451242Y-104769027D01*
X146488758Y-104629017D01*
X146488758Y-104484067D01*
X146451242Y-104344057D01*
X146378767Y-104218527D01*
X146350077Y-104189837D01*
X146316592Y-104128514D01*
X146313758Y-104102156D01*
X146313758Y-103545389D01*
X156005300Y-103545389D01*
X156005300Y-103718611D01*
X156032398Y-103889701D01*
X156085927Y-104054445D01*
X156164568Y-104208788D01*
X156266386Y-104348928D01*
X156388872Y-104471414D01*
X156529012Y-104573232D01*
X156683355Y-104651873D01*
X156848099Y-104705402D01*
X157019189Y-104732500D01*
X157019190Y-104732500D01*
X157442410Y-104732500D01*
X157442411Y-104732500D01*
X157613501Y-104705402D01*
X157778245Y-104651873D01*
X157932588Y-104573232D01*
X158072728Y-104471414D01*
X158195214Y-104348928D01*
X158297032Y-104208788D01*
X158375673Y-104054445D01*
X158429202Y-103889701D01*
X158456300Y-103718611D01*
X158456300Y-103545389D01*
X160983700Y-103545389D01*
X160983700Y-103718611D01*
X161010798Y-103889701D01*
X161064327Y-104054445D01*
X161142968Y-104208788D01*
X161244786Y-104348928D01*
X161367272Y-104471414D01*
X161507412Y-104573232D01*
X161661755Y-104651873D01*
X161826499Y-104705402D01*
X161997589Y-104732500D01*
X161997590Y-104732500D01*
X162420810Y-104732500D01*
X162420811Y-104732500D01*
X162591901Y-104705402D01*
X162756645Y-104651873D01*
X162910988Y-104573232D01*
X163051128Y-104471414D01*
X163173614Y-104348928D01*
X163275432Y-104208788D01*
X163354073Y-104054445D01*
X163407602Y-103889701D01*
X163434700Y-103718611D01*
X163434700Y-103545389D01*
X163407602Y-103374299D01*
X163354073Y-103209555D01*
X163275432Y-103055212D01*
X163173614Y-102915072D01*
X163051128Y-102792586D01*
X162910988Y-102690768D01*
X162756645Y-102612127D01*
X162591901Y-102558598D01*
X162591899Y-102558597D01*
X162591898Y-102558597D01*
X162460471Y-102537781D01*
X162420811Y-102531500D01*
X161997589Y-102531500D01*
X161957928Y-102537781D01*
X161826502Y-102558597D01*
X161661752Y-102612128D01*
X161507411Y-102690768D01*
X161427456Y-102748859D01*
X161367272Y-102792586D01*
X161367270Y-102792588D01*
X161367269Y-102792588D01*
X161244788Y-102915069D01*
X161244788Y-102915070D01*
X161244786Y-102915072D01*
X161201059Y-102975256D01*
X161142968Y-103055211D01*
X161064328Y-103209552D01*
X161010797Y-103374302D01*
X160984760Y-103538698D01*
X160983700Y-103545389D01*
X158456300Y-103545389D01*
X158429202Y-103374299D01*
X158375673Y-103209555D01*
X158297032Y-103055212D01*
X158195214Y-102915072D01*
X158072728Y-102792586D01*
X157932588Y-102690768D01*
X157778245Y-102612127D01*
X157613501Y-102558598D01*
X157613499Y-102558597D01*
X157613498Y-102558597D01*
X157482071Y-102537781D01*
X157442411Y-102531500D01*
X157019189Y-102531500D01*
X156979528Y-102537781D01*
X156848102Y-102558597D01*
X156683352Y-102612128D01*
X156529011Y-102690768D01*
X156449056Y-102748859D01*
X156388872Y-102792586D01*
X156388870Y-102792588D01*
X156388869Y-102792588D01*
X156266388Y-102915069D01*
X156266388Y-102915070D01*
X156266386Y-102915072D01*
X156222659Y-102975256D01*
X156164568Y-103055211D01*
X156085928Y-103209552D01*
X156032397Y-103374302D01*
X156006360Y-103538698D01*
X156005300Y-103545389D01*
X146313758Y-103545389D01*
X146313758Y-101946823D01*
X146308577Y-101927490D01*
X146308576Y-101927486D01*
X146288168Y-101851321D01*
X146288167Y-101851318D01*
X146283942Y-101835548D01*
X146285690Y-101835079D01*
X146275052Y-101795376D01*
X146275052Y-101710079D01*
X146275052Y-101710077D01*
X146237536Y-101570067D01*
X146185913Y-101480654D01*
X146165063Y-101444540D01*
X146165058Y-101444534D01*
X146062569Y-101342045D01*
X146062563Y-101342040D01*
X145937040Y-101269569D01*
X145937041Y-101269569D01*
X145925558Y-101266492D01*
X145797027Y-101232052D01*
X145652077Y-101232052D01*
X145523545Y-101266492D01*
X145512063Y-101269569D01*
X145386540Y-101342040D01*
X145386534Y-101342045D01*
X145284045Y-101444534D01*
X145284040Y-101444540D01*
X145211569Y-101570063D01*
X145211568Y-101570067D01*
X145174052Y-101710077D01*
X135526193Y-101710077D01*
X135483596Y-101595869D01*
X135483595Y-101595868D01*
X135483593Y-101595864D01*
X135397347Y-101480655D01*
X135397344Y-101480652D01*
X135282135Y-101394406D01*
X135282128Y-101394402D01*
X135147282Y-101344108D01*
X135147283Y-101344108D01*
X135087683Y-101337701D01*
X135087681Y-101337700D01*
X135087673Y-101337700D01*
X135087664Y-101337700D01*
X133491929Y-101337700D01*
X133491923Y-101337701D01*
X133432316Y-101344108D01*
X133297471Y-101394402D01*
X133297464Y-101394406D01*
X133182255Y-101480652D01*
X133182252Y-101480655D01*
X133096006Y-101595864D01*
X133096002Y-101595871D01*
X133045708Y-101730717D01*
X133039301Y-101790316D01*
X133039301Y-101790323D01*
X133039300Y-101790335D01*
X128043700Y-101790335D01*
X128043700Y-101045389D01*
X156005300Y-101045389D01*
X156005300Y-101218610D01*
X156024849Y-101342043D01*
X156032398Y-101389701D01*
X156085927Y-101554445D01*
X156164568Y-101708788D01*
X156266386Y-101848928D01*
X156388872Y-101971414D01*
X156529012Y-102073232D01*
X156683355Y-102151873D01*
X156848099Y-102205402D01*
X157019189Y-102232500D01*
X157019190Y-102232500D01*
X157442410Y-102232500D01*
X157442411Y-102232500D01*
X157613501Y-102205402D01*
X157778245Y-102151873D01*
X157932588Y-102073232D01*
X158072728Y-101971414D01*
X158195214Y-101848928D01*
X158297032Y-101708788D01*
X158375673Y-101554445D01*
X158429202Y-101389701D01*
X158456300Y-101218611D01*
X158456300Y-101045389D01*
X160983700Y-101045389D01*
X160983700Y-101218610D01*
X161003249Y-101342043D01*
X161010798Y-101389701D01*
X161064327Y-101554445D01*
X161142968Y-101708788D01*
X161244786Y-101848928D01*
X161367272Y-101971414D01*
X161507412Y-102073232D01*
X161661755Y-102151873D01*
X161826499Y-102205402D01*
X161997589Y-102232500D01*
X161997590Y-102232500D01*
X162420810Y-102232500D01*
X162420811Y-102232500D01*
X162591901Y-102205402D01*
X162756645Y-102151873D01*
X162910988Y-102073232D01*
X163051128Y-101971414D01*
X163173614Y-101848928D01*
X163275432Y-101708788D01*
X163354073Y-101554445D01*
X163407602Y-101389701D01*
X163434700Y-101218611D01*
X163434700Y-101045389D01*
X163407602Y-100874299D01*
X163354073Y-100709555D01*
X163275432Y-100555212D01*
X163173614Y-100415072D01*
X163051128Y-100292586D01*
X162910988Y-100190768D01*
X162756645Y-100112127D01*
X162591901Y-100058598D01*
X162591899Y-100058597D01*
X162591898Y-100058597D01*
X162460471Y-100037781D01*
X162420811Y-100031500D01*
X161997589Y-100031500D01*
X161957928Y-100037781D01*
X161826502Y-100058597D01*
X161661752Y-100112128D01*
X161507411Y-100190768D01*
X161427456Y-100248859D01*
X161367272Y-100292586D01*
X161367270Y-100292588D01*
X161367269Y-100292588D01*
X161244788Y-100415069D01*
X161244788Y-100415070D01*
X161244786Y-100415072D01*
X161201059Y-100475256D01*
X161142968Y-100555211D01*
X161064328Y-100709552D01*
X161010797Y-100874302D01*
X160983700Y-101045389D01*
X158456300Y-101045389D01*
X158429202Y-100874299D01*
X158375673Y-100709555D01*
X158297032Y-100555212D01*
X158195214Y-100415072D01*
X158072728Y-100292586D01*
X157932588Y-100190768D01*
X157778245Y-100112127D01*
X157613501Y-100058598D01*
X157613499Y-100058597D01*
X157613498Y-100058597D01*
X157482071Y-100037781D01*
X157442411Y-100031500D01*
X157019189Y-100031500D01*
X156979528Y-100037781D01*
X156848102Y-100058597D01*
X156683352Y-100112128D01*
X156529011Y-100190768D01*
X156449056Y-100248859D01*
X156388872Y-100292586D01*
X156388870Y-100292588D01*
X156388869Y-100292588D01*
X156266388Y-100415069D01*
X156266388Y-100415070D01*
X156266386Y-100415072D01*
X156222659Y-100475256D01*
X156164568Y-100555211D01*
X156085928Y-100709552D01*
X156032397Y-100874302D01*
X156005300Y-101045389D01*
X128043700Y-101045389D01*
X128043700Y-95696700D01*
X128063385Y-95629661D01*
X128116189Y-95583906D01*
X128167700Y-95572700D01*
X169758700Y-95572700D01*
X169825739Y-95592385D01*
G37*
%TD.AperFunction*%
%TD*%
M02*
