%TF.GenerationSoftware,KiCad,Pcbnew,9.0.0*%
%TF.CreationDate,2025-04-24T23:17:45+03:00*%
%TF.ProjectId,PSU,5053552e-6b69-4636-9164-5f7063625858,rev?*%
%TF.SameCoordinates,Original*%
%TF.FileFunction,Legend,Top*%
%TF.FilePolarity,Positive*%
%FSLAX46Y46*%
G04 Gerber Fmt 4.6, Leading zero omitted, Abs format (unit mm)*
G04 Created by KiCad (PCBNEW 9.0.0) date 2025-04-24 23:17:45*
%MOMM*%
%LPD*%
G01*
G04 APERTURE LIST*
%ADD10C,0.300000*%
%ADD11C,0.150000*%
%ADD12C,0.120000*%
G04 APERTURE END LIST*
D10*
X89805757Y-103397574D02*
X89734328Y-103540432D01*
X89734328Y-103540432D02*
X89734328Y-103754717D01*
X89734328Y-103754717D02*
X89805757Y-103969003D01*
X89805757Y-103969003D02*
X89948614Y-104111860D01*
X89948614Y-104111860D02*
X90091471Y-104183289D01*
X90091471Y-104183289D02*
X90377185Y-104254717D01*
X90377185Y-104254717D02*
X90591471Y-104254717D01*
X90591471Y-104254717D02*
X90877185Y-104183289D01*
X90877185Y-104183289D02*
X91020042Y-104111860D01*
X91020042Y-104111860D02*
X91162900Y-103969003D01*
X91162900Y-103969003D02*
X91234328Y-103754717D01*
X91234328Y-103754717D02*
X91234328Y-103611860D01*
X91234328Y-103611860D02*
X91162900Y-103397574D01*
X91162900Y-103397574D02*
X91091471Y-103326146D01*
X91091471Y-103326146D02*
X90591471Y-103326146D01*
X90591471Y-103326146D02*
X90591471Y-103611860D01*
X91234328Y-102683289D02*
X89734328Y-102683289D01*
X89734328Y-102683289D02*
X91234328Y-101826146D01*
X91234328Y-101826146D02*
X89734328Y-101826146D01*
X91234328Y-101111860D02*
X89734328Y-101111860D01*
X89734328Y-101111860D02*
X89734328Y-100754717D01*
X89734328Y-100754717D02*
X89805757Y-100540431D01*
X89805757Y-100540431D02*
X89948614Y-100397574D01*
X89948614Y-100397574D02*
X90091471Y-100326145D01*
X90091471Y-100326145D02*
X90377185Y-100254717D01*
X90377185Y-100254717D02*
X90591471Y-100254717D01*
X90591471Y-100254717D02*
X90877185Y-100326145D01*
X90877185Y-100326145D02*
X91020042Y-100397574D01*
X91020042Y-100397574D02*
X91162900Y-100540431D01*
X91162900Y-100540431D02*
X91234328Y-100754717D01*
X91234328Y-100754717D02*
X91234328Y-101111860D01*
D11*
X118116041Y-93240228D02*
X118401755Y-93240228D01*
X118401755Y-93240228D02*
X118544612Y-93311657D01*
X118544612Y-93311657D02*
X118687469Y-93454514D01*
X118687469Y-93454514D02*
X118758898Y-93740228D01*
X118758898Y-93740228D02*
X118758898Y-94240228D01*
X118758898Y-94240228D02*
X118687469Y-94525942D01*
X118687469Y-94525942D02*
X118544612Y-94668800D01*
X118544612Y-94668800D02*
X118401755Y-94740228D01*
X118401755Y-94740228D02*
X118116041Y-94740228D01*
X118116041Y-94740228D02*
X117973184Y-94668800D01*
X117973184Y-94668800D02*
X117830326Y-94525942D01*
X117830326Y-94525942D02*
X117758898Y-94240228D01*
X117758898Y-94240228D02*
X117758898Y-93740228D01*
X117758898Y-93740228D02*
X117830326Y-93454514D01*
X117830326Y-93454514D02*
X117973184Y-93311657D01*
X117973184Y-93311657D02*
X118116041Y-93240228D01*
X119401755Y-93240228D02*
X119401755Y-94454514D01*
X119401755Y-94454514D02*
X119473184Y-94597371D01*
X119473184Y-94597371D02*
X119544613Y-94668800D01*
X119544613Y-94668800D02*
X119687470Y-94740228D01*
X119687470Y-94740228D02*
X119973184Y-94740228D01*
X119973184Y-94740228D02*
X120116041Y-94668800D01*
X120116041Y-94668800D02*
X120187470Y-94597371D01*
X120187470Y-94597371D02*
X120258898Y-94454514D01*
X120258898Y-94454514D02*
X120258898Y-93240228D01*
X120758899Y-93240228D02*
X121616042Y-93240228D01*
X121187470Y-94740228D02*
X121187470Y-93240228D01*
D10*
X89665728Y-99405574D02*
X91165728Y-98905574D01*
X91165728Y-98905574D02*
X89665728Y-98405574D01*
X90594300Y-97905575D02*
X90594300Y-96762718D01*
X91165728Y-97334146D02*
X90022871Y-97334146D01*
X125150723Y-98489584D02*
X126400723Y-98072917D01*
X126400723Y-98072917D02*
X125150723Y-97656251D01*
X125924533Y-97239583D02*
X125924533Y-96287203D01*
X126400723Y-96763393D02*
X125448342Y-96763393D01*
D11*
X93217726Y-95871428D02*
X93217726Y-94371428D01*
X93932012Y-95871428D02*
X93932012Y-94371428D01*
X93932012Y-94371428D02*
X94789155Y-95871428D01*
X94789155Y-95871428D02*
X94789155Y-94371428D01*
D10*
X125201523Y-101232784D02*
X126451523Y-100816117D01*
X126451523Y-100816117D02*
X125201523Y-100399451D01*
X125975333Y-99982783D02*
X125975333Y-99030403D01*
X125261047Y-104412651D02*
X125201523Y-104531698D01*
X125201523Y-104531698D02*
X125201523Y-104710270D01*
X125201523Y-104710270D02*
X125261047Y-104888841D01*
X125261047Y-104888841D02*
X125380095Y-105007889D01*
X125380095Y-105007889D02*
X125499142Y-105067412D01*
X125499142Y-105067412D02*
X125737238Y-105126936D01*
X125737238Y-105126936D02*
X125915809Y-105126936D01*
X125915809Y-105126936D02*
X126153904Y-105067412D01*
X126153904Y-105067412D02*
X126272952Y-105007889D01*
X126272952Y-105007889D02*
X126392000Y-104888841D01*
X126392000Y-104888841D02*
X126451523Y-104710270D01*
X126451523Y-104710270D02*
X126451523Y-104591222D01*
X126451523Y-104591222D02*
X126392000Y-104412651D01*
X126392000Y-104412651D02*
X126332476Y-104353127D01*
X126332476Y-104353127D02*
X125915809Y-104353127D01*
X125915809Y-104353127D02*
X125915809Y-104591222D01*
X126451523Y-103817412D02*
X125201523Y-103817412D01*
X125201523Y-103817412D02*
X126451523Y-103103127D01*
X126451523Y-103103127D02*
X125201523Y-103103127D01*
X126451523Y-102507888D02*
X125201523Y-102507888D01*
X125201523Y-102507888D02*
X125201523Y-102210269D01*
X125201523Y-102210269D02*
X125261047Y-102031698D01*
X125261047Y-102031698D02*
X125380095Y-101912650D01*
X125380095Y-101912650D02*
X125499142Y-101853127D01*
X125499142Y-101853127D02*
X125737238Y-101793603D01*
X125737238Y-101793603D02*
X125915809Y-101793603D01*
X125915809Y-101793603D02*
X126153904Y-101853127D01*
X126153904Y-101853127D02*
X126272952Y-101912650D01*
X126272952Y-101912650D02*
X126392000Y-102031698D01*
X126392000Y-102031698D02*
X126451523Y-102210269D01*
X126451523Y-102210269D02*
X126451523Y-102507888D01*
D11*
X140616644Y-95916332D02*
X140616644Y-94416332D01*
X141330930Y-95916332D02*
X141330930Y-94416332D01*
X141330930Y-94416332D02*
X142188073Y-95916332D01*
X142188073Y-95916332D02*
X142188073Y-94416332D01*
X158580759Y-93120932D02*
X158866473Y-93120932D01*
X158866473Y-93120932D02*
X159009330Y-93192361D01*
X159009330Y-93192361D02*
X159152187Y-93335218D01*
X159152187Y-93335218D02*
X159223616Y-93620932D01*
X159223616Y-93620932D02*
X159223616Y-94120932D01*
X159223616Y-94120932D02*
X159152187Y-94406646D01*
X159152187Y-94406646D02*
X159009330Y-94549504D01*
X159009330Y-94549504D02*
X158866473Y-94620932D01*
X158866473Y-94620932D02*
X158580759Y-94620932D01*
X158580759Y-94620932D02*
X158437902Y-94549504D01*
X158437902Y-94549504D02*
X158295044Y-94406646D01*
X158295044Y-94406646D02*
X158223616Y-94120932D01*
X158223616Y-94120932D02*
X158223616Y-93620932D01*
X158223616Y-93620932D02*
X158295044Y-93335218D01*
X158295044Y-93335218D02*
X158437902Y-93192361D01*
X158437902Y-93192361D02*
X158580759Y-93120932D01*
X159866473Y-93120932D02*
X159866473Y-94335218D01*
X159866473Y-94335218D02*
X159937902Y-94478075D01*
X159937902Y-94478075D02*
X160009331Y-94549504D01*
X160009331Y-94549504D02*
X160152188Y-94620932D01*
X160152188Y-94620932D02*
X160437902Y-94620932D01*
X160437902Y-94620932D02*
X160580759Y-94549504D01*
X160580759Y-94549504D02*
X160652188Y-94478075D01*
X160652188Y-94478075D02*
X160723616Y-94335218D01*
X160723616Y-94335218D02*
X160723616Y-93120932D01*
X161223617Y-93120932D02*
X162080760Y-93120932D01*
X161652188Y-94620932D02*
X161652188Y-93120932D01*
D10*
X137617041Y-99793188D02*
X138867041Y-99376521D01*
X138867041Y-99376521D02*
X137617041Y-98959855D01*
X138390851Y-98543187D02*
X138390851Y-97590807D01*
X138867041Y-98066997D02*
X137914660Y-98066997D01*
X137676565Y-103252455D02*
X137617041Y-103371502D01*
X137617041Y-103371502D02*
X137617041Y-103550074D01*
X137617041Y-103550074D02*
X137676565Y-103728645D01*
X137676565Y-103728645D02*
X137795613Y-103847693D01*
X137795613Y-103847693D02*
X137914660Y-103907216D01*
X137914660Y-103907216D02*
X138152756Y-103966740D01*
X138152756Y-103966740D02*
X138331327Y-103966740D01*
X138331327Y-103966740D02*
X138569422Y-103907216D01*
X138569422Y-103907216D02*
X138688470Y-103847693D01*
X138688470Y-103847693D02*
X138807518Y-103728645D01*
X138807518Y-103728645D02*
X138867041Y-103550074D01*
X138867041Y-103550074D02*
X138867041Y-103431026D01*
X138867041Y-103431026D02*
X138807518Y-103252455D01*
X138807518Y-103252455D02*
X138747994Y-103192931D01*
X138747994Y-103192931D02*
X138331327Y-103192931D01*
X138331327Y-103192931D02*
X138331327Y-103431026D01*
X138867041Y-102657216D02*
X137617041Y-102657216D01*
X137617041Y-102657216D02*
X138867041Y-101942931D01*
X138867041Y-101942931D02*
X137617041Y-101942931D01*
X138867041Y-101347692D02*
X137617041Y-101347692D01*
X137617041Y-101347692D02*
X137617041Y-101050073D01*
X137617041Y-101050073D02*
X137676565Y-100871502D01*
X137676565Y-100871502D02*
X137795613Y-100752454D01*
X137795613Y-100752454D02*
X137914660Y-100692931D01*
X137914660Y-100692931D02*
X138152756Y-100633407D01*
X138152756Y-100633407D02*
X138331327Y-100633407D01*
X138331327Y-100633407D02*
X138569422Y-100692931D01*
X138569422Y-100692931D02*
X138688470Y-100752454D01*
X138688470Y-100752454D02*
X138807518Y-100871502D01*
X138807518Y-100871502D02*
X138867041Y-101050073D01*
X138867041Y-101050073D02*
X138867041Y-101347692D01*
X162790541Y-104000864D02*
X162790541Y-103227055D01*
X162790541Y-103227055D02*
X163266732Y-103643721D01*
X163266732Y-103643721D02*
X163266732Y-103465150D01*
X163266732Y-103465150D02*
X163326256Y-103346102D01*
X163326256Y-103346102D02*
X163385779Y-103286578D01*
X163385779Y-103286578D02*
X163504827Y-103227055D01*
X163504827Y-103227055D02*
X163802446Y-103227055D01*
X163802446Y-103227055D02*
X163921494Y-103286578D01*
X163921494Y-103286578D02*
X163981018Y-103346102D01*
X163981018Y-103346102D02*
X164040541Y-103465150D01*
X164040541Y-103465150D02*
X164040541Y-103822293D01*
X164040541Y-103822293D02*
X163981018Y-103941340D01*
X163981018Y-103941340D02*
X163921494Y-104000864D01*
X162790541Y-102869912D02*
X164040541Y-102453245D01*
X164040541Y-102453245D02*
X162790541Y-102036579D01*
X162790541Y-101738959D02*
X162790541Y-100965150D01*
X162790541Y-100965150D02*
X163266732Y-101381816D01*
X163266732Y-101381816D02*
X163266732Y-101203245D01*
X163266732Y-101203245D02*
X163326256Y-101084197D01*
X163326256Y-101084197D02*
X163385779Y-101024673D01*
X163385779Y-101024673D02*
X163504827Y-100965150D01*
X163504827Y-100965150D02*
X163802446Y-100965150D01*
X163802446Y-100965150D02*
X163921494Y-101024673D01*
X163921494Y-101024673D02*
X163981018Y-101084197D01*
X163981018Y-101084197D02*
X164040541Y-101203245D01*
X164040541Y-101203245D02*
X164040541Y-101560388D01*
X164040541Y-101560388D02*
X163981018Y-101679435D01*
X163981018Y-101679435D02*
X163921494Y-101738959D01*
X162850065Y-99544055D02*
X162790541Y-99663102D01*
X162790541Y-99663102D02*
X162790541Y-99841674D01*
X162790541Y-99841674D02*
X162850065Y-100020245D01*
X162850065Y-100020245D02*
X162969113Y-100139293D01*
X162969113Y-100139293D02*
X163088160Y-100198816D01*
X163088160Y-100198816D02*
X163326256Y-100258340D01*
X163326256Y-100258340D02*
X163504827Y-100258340D01*
X163504827Y-100258340D02*
X163742922Y-100198816D01*
X163742922Y-100198816D02*
X163861970Y-100139293D01*
X163861970Y-100139293D02*
X163981018Y-100020245D01*
X163981018Y-100020245D02*
X164040541Y-99841674D01*
X164040541Y-99841674D02*
X164040541Y-99722626D01*
X164040541Y-99722626D02*
X163981018Y-99544055D01*
X163981018Y-99544055D02*
X163921494Y-99484531D01*
X163921494Y-99484531D02*
X163504827Y-99484531D01*
X163504827Y-99484531D02*
X163504827Y-99722626D01*
X164040541Y-98948816D02*
X162790541Y-98948816D01*
X162790541Y-98948816D02*
X164040541Y-98234531D01*
X164040541Y-98234531D02*
X162790541Y-98234531D01*
X164040541Y-97639292D02*
X162790541Y-97639292D01*
X162790541Y-97639292D02*
X162790541Y-97341673D01*
X162790541Y-97341673D02*
X162850065Y-97163102D01*
X162850065Y-97163102D02*
X162969113Y-97044054D01*
X162969113Y-97044054D02*
X163088160Y-96984531D01*
X163088160Y-96984531D02*
X163326256Y-96925007D01*
X163326256Y-96925007D02*
X163504827Y-96925007D01*
X163504827Y-96925007D02*
X163742922Y-96984531D01*
X163742922Y-96984531D02*
X163861970Y-97044054D01*
X163861970Y-97044054D02*
X163981018Y-97163102D01*
X163981018Y-97163102D02*
X164040541Y-97341673D01*
X164040541Y-97341673D02*
X164040541Y-97639292D01*
D11*
X93800166Y-104890219D02*
X93800166Y-105604504D01*
X93800166Y-105604504D02*
X93752547Y-105747361D01*
X93752547Y-105747361D02*
X93657309Y-105842600D01*
X93657309Y-105842600D02*
X93514452Y-105890219D01*
X93514452Y-105890219D02*
X93419214Y-105890219D01*
X94800166Y-105890219D02*
X94228738Y-105890219D01*
X94514452Y-105890219D02*
X94514452Y-104890219D01*
X94514452Y-104890219D02*
X94419214Y-105033076D01*
X94419214Y-105033076D02*
X94323976Y-105128314D01*
X94323976Y-105128314D02*
X94228738Y-105175933D01*
X102323433Y-105236180D02*
X102275814Y-105283800D01*
X102275814Y-105283800D02*
X102132957Y-105331419D01*
X102132957Y-105331419D02*
X102037719Y-105331419D01*
X102037719Y-105331419D02*
X101894862Y-105283800D01*
X101894862Y-105283800D02*
X101799624Y-105188561D01*
X101799624Y-105188561D02*
X101752005Y-105093323D01*
X101752005Y-105093323D02*
X101704386Y-104902847D01*
X101704386Y-104902847D02*
X101704386Y-104759990D01*
X101704386Y-104759990D02*
X101752005Y-104569514D01*
X101752005Y-104569514D02*
X101799624Y-104474276D01*
X101799624Y-104474276D02*
X101894862Y-104379038D01*
X101894862Y-104379038D02*
X102037719Y-104331419D01*
X102037719Y-104331419D02*
X102132957Y-104331419D01*
X102132957Y-104331419D02*
X102275814Y-104379038D01*
X102275814Y-104379038D02*
X102323433Y-104426657D01*
X103228195Y-104331419D02*
X102752005Y-104331419D01*
X102752005Y-104331419D02*
X102704386Y-104807609D01*
X102704386Y-104807609D02*
X102752005Y-104759990D01*
X102752005Y-104759990D02*
X102847243Y-104712371D01*
X102847243Y-104712371D02*
X103085338Y-104712371D01*
X103085338Y-104712371D02*
X103180576Y-104759990D01*
X103180576Y-104759990D02*
X103228195Y-104807609D01*
X103228195Y-104807609D02*
X103275814Y-104902847D01*
X103275814Y-104902847D02*
X103275814Y-105140942D01*
X103275814Y-105140942D02*
X103228195Y-105236180D01*
X103228195Y-105236180D02*
X103180576Y-105283800D01*
X103180576Y-105283800D02*
X103085338Y-105331419D01*
X103085338Y-105331419D02*
X102847243Y-105331419D01*
X102847243Y-105331419D02*
X102752005Y-105283800D01*
X102752005Y-105283800D02*
X102704386Y-105236180D01*
X98689064Y-102137714D02*
X98331921Y-102387714D01*
X98689064Y-102566285D02*
X97939064Y-102566285D01*
X97939064Y-102566285D02*
X97939064Y-102280571D01*
X97939064Y-102280571D02*
X97974778Y-102209142D01*
X97974778Y-102209142D02*
X98010492Y-102173428D01*
X98010492Y-102173428D02*
X98081921Y-102137714D01*
X98081921Y-102137714D02*
X98189064Y-102137714D01*
X98189064Y-102137714D02*
X98260492Y-102173428D01*
X98260492Y-102173428D02*
X98296207Y-102209142D01*
X98296207Y-102209142D02*
X98331921Y-102280571D01*
X98331921Y-102280571D02*
X98331921Y-102566285D01*
X98689064Y-101459142D02*
X98689064Y-101816285D01*
X98689064Y-101816285D02*
X97939064Y-101816285D01*
X98689064Y-100887714D02*
X97939064Y-100887714D01*
X98653350Y-100887714D02*
X98689064Y-100959142D01*
X98689064Y-100959142D02*
X98689064Y-101101999D01*
X98689064Y-101101999D02*
X98653350Y-101173428D01*
X98653350Y-101173428D02*
X98617635Y-101209142D01*
X98617635Y-101209142D02*
X98546207Y-101244856D01*
X98546207Y-101244856D02*
X98331921Y-101244856D01*
X98331921Y-101244856D02*
X98260492Y-101209142D01*
X98260492Y-101209142D02*
X98224778Y-101173428D01*
X98224778Y-101173428D02*
X98189064Y-101101999D01*
X98189064Y-101101999D02*
X98189064Y-100959142D01*
X98189064Y-100959142D02*
X98224778Y-100887714D01*
X112331033Y-102442180D02*
X112283414Y-102489800D01*
X112283414Y-102489800D02*
X112140557Y-102537419D01*
X112140557Y-102537419D02*
X112045319Y-102537419D01*
X112045319Y-102537419D02*
X111902462Y-102489800D01*
X111902462Y-102489800D02*
X111807224Y-102394561D01*
X111807224Y-102394561D02*
X111759605Y-102299323D01*
X111759605Y-102299323D02*
X111711986Y-102108847D01*
X111711986Y-102108847D02*
X111711986Y-101965990D01*
X111711986Y-101965990D02*
X111759605Y-101775514D01*
X111759605Y-101775514D02*
X111807224Y-101680276D01*
X111807224Y-101680276D02*
X111902462Y-101585038D01*
X111902462Y-101585038D02*
X112045319Y-101537419D01*
X112045319Y-101537419D02*
X112140557Y-101537419D01*
X112140557Y-101537419D02*
X112283414Y-101585038D01*
X112283414Y-101585038D02*
X112331033Y-101632657D01*
X112807224Y-102537419D02*
X112997700Y-102537419D01*
X112997700Y-102537419D02*
X113092938Y-102489800D01*
X113092938Y-102489800D02*
X113140557Y-102442180D01*
X113140557Y-102442180D02*
X113235795Y-102299323D01*
X113235795Y-102299323D02*
X113283414Y-102108847D01*
X113283414Y-102108847D02*
X113283414Y-101727895D01*
X113283414Y-101727895D02*
X113235795Y-101632657D01*
X113235795Y-101632657D02*
X113188176Y-101585038D01*
X113188176Y-101585038D02*
X113092938Y-101537419D01*
X113092938Y-101537419D02*
X112902462Y-101537419D01*
X112902462Y-101537419D02*
X112807224Y-101585038D01*
X112807224Y-101585038D02*
X112759605Y-101632657D01*
X112759605Y-101632657D02*
X112711986Y-101727895D01*
X112711986Y-101727895D02*
X112711986Y-101965990D01*
X112711986Y-101965990D02*
X112759605Y-102061228D01*
X112759605Y-102061228D02*
X112807224Y-102108847D01*
X112807224Y-102108847D02*
X112902462Y-102156466D01*
X112902462Y-102156466D02*
X113092938Y-102156466D01*
X113092938Y-102156466D02*
X113188176Y-102108847D01*
X113188176Y-102108847D02*
X113235795Y-102061228D01*
X113235795Y-102061228D02*
X113283414Y-101965990D01*
X98499166Y-96095409D02*
X98165833Y-96095409D01*
X98165833Y-96619219D02*
X98165833Y-95619219D01*
X98165833Y-95619219D02*
X98642023Y-95619219D01*
X99546785Y-96619219D02*
X98975357Y-96619219D01*
X99261071Y-96619219D02*
X99261071Y-95619219D01*
X99261071Y-95619219D02*
X99165833Y-95762076D01*
X99165833Y-95762076D02*
X99070595Y-95857314D01*
X99070595Y-95857314D02*
X98975357Y-95904933D01*
X99656433Y-103585180D02*
X99608814Y-103632800D01*
X99608814Y-103632800D02*
X99465957Y-103680419D01*
X99465957Y-103680419D02*
X99370719Y-103680419D01*
X99370719Y-103680419D02*
X99227862Y-103632800D01*
X99227862Y-103632800D02*
X99132624Y-103537561D01*
X99132624Y-103537561D02*
X99085005Y-103442323D01*
X99085005Y-103442323D02*
X99037386Y-103251847D01*
X99037386Y-103251847D02*
X99037386Y-103108990D01*
X99037386Y-103108990D02*
X99085005Y-102918514D01*
X99085005Y-102918514D02*
X99132624Y-102823276D01*
X99132624Y-102823276D02*
X99227862Y-102728038D01*
X99227862Y-102728038D02*
X99370719Y-102680419D01*
X99370719Y-102680419D02*
X99465957Y-102680419D01*
X99465957Y-102680419D02*
X99608814Y-102728038D01*
X99608814Y-102728038D02*
X99656433Y-102775657D01*
X99989767Y-102680419D02*
X100608814Y-102680419D01*
X100608814Y-102680419D02*
X100275481Y-103061371D01*
X100275481Y-103061371D02*
X100418338Y-103061371D01*
X100418338Y-103061371D02*
X100513576Y-103108990D01*
X100513576Y-103108990D02*
X100561195Y-103156609D01*
X100561195Y-103156609D02*
X100608814Y-103251847D01*
X100608814Y-103251847D02*
X100608814Y-103489942D01*
X100608814Y-103489942D02*
X100561195Y-103585180D01*
X100561195Y-103585180D02*
X100513576Y-103632800D01*
X100513576Y-103632800D02*
X100418338Y-103680419D01*
X100418338Y-103680419D02*
X100132624Y-103680419D01*
X100132624Y-103680419D02*
X100037386Y-103632800D01*
X100037386Y-103632800D02*
X99989767Y-103585180D01*
X121714766Y-106058619D02*
X121714766Y-106772904D01*
X121714766Y-106772904D02*
X121667147Y-106915761D01*
X121667147Y-106915761D02*
X121571909Y-107011000D01*
X121571909Y-107011000D02*
X121429052Y-107058619D01*
X121429052Y-107058619D02*
X121333814Y-107058619D01*
X122095719Y-106058619D02*
X122714766Y-106058619D01*
X122714766Y-106058619D02*
X122381433Y-106439571D01*
X122381433Y-106439571D02*
X122524290Y-106439571D01*
X122524290Y-106439571D02*
X122619528Y-106487190D01*
X122619528Y-106487190D02*
X122667147Y-106534809D01*
X122667147Y-106534809D02*
X122714766Y-106630047D01*
X122714766Y-106630047D02*
X122714766Y-106868142D01*
X122714766Y-106868142D02*
X122667147Y-106963380D01*
X122667147Y-106963380D02*
X122619528Y-107011000D01*
X122619528Y-107011000D02*
X122524290Y-107058619D01*
X122524290Y-107058619D02*
X122238576Y-107058619D01*
X122238576Y-107058619D02*
X122143338Y-107011000D01*
X122143338Y-107011000D02*
X122095719Y-106963380D01*
X92304795Y-93520419D02*
X92304795Y-92520419D01*
X92304795Y-92996609D02*
X92876223Y-92996609D01*
X92876223Y-93520419D02*
X92876223Y-92520419D01*
X93257176Y-92520419D02*
X93876223Y-92520419D01*
X93876223Y-92520419D02*
X93542890Y-92901371D01*
X93542890Y-92901371D02*
X93685747Y-92901371D01*
X93685747Y-92901371D02*
X93780985Y-92948990D01*
X93780985Y-92948990D02*
X93828604Y-92996609D01*
X93828604Y-92996609D02*
X93876223Y-93091847D01*
X93876223Y-93091847D02*
X93876223Y-93329942D01*
X93876223Y-93329942D02*
X93828604Y-93425180D01*
X93828604Y-93425180D02*
X93780985Y-93472800D01*
X93780985Y-93472800D02*
X93685747Y-93520419D01*
X93685747Y-93520419D02*
X93400033Y-93520419D01*
X93400033Y-93520419D02*
X93304795Y-93472800D01*
X93304795Y-93472800D02*
X93257176Y-93425180D01*
X114968204Y-100666532D02*
X115006300Y-100704628D01*
X115006300Y-100704628D02*
X115044395Y-100818913D01*
X115044395Y-100818913D02*
X115044395Y-100895104D01*
X115044395Y-100895104D02*
X115006300Y-101009390D01*
X115006300Y-101009390D02*
X114930109Y-101085580D01*
X114930109Y-101085580D02*
X114853919Y-101123675D01*
X114853919Y-101123675D02*
X114701538Y-101161771D01*
X114701538Y-101161771D02*
X114587252Y-101161771D01*
X114587252Y-101161771D02*
X114434871Y-101123675D01*
X114434871Y-101123675D02*
X114358680Y-101085580D01*
X114358680Y-101085580D02*
X114282490Y-101009390D01*
X114282490Y-101009390D02*
X114244395Y-100895104D01*
X114244395Y-100895104D02*
X114244395Y-100818913D01*
X114244395Y-100818913D02*
X114282490Y-100704628D01*
X114282490Y-100704628D02*
X114320585Y-100666532D01*
X114244395Y-100399866D02*
X114244395Y-99866532D01*
X114244395Y-99866532D02*
X115044395Y-100209390D01*
X108622633Y-95730219D02*
X108289300Y-95254028D01*
X108051205Y-95730219D02*
X108051205Y-94730219D01*
X108051205Y-94730219D02*
X108432157Y-94730219D01*
X108432157Y-94730219D02*
X108527395Y-94777838D01*
X108527395Y-94777838D02*
X108575014Y-94825457D01*
X108575014Y-94825457D02*
X108622633Y-94920695D01*
X108622633Y-94920695D02*
X108622633Y-95063552D01*
X108622633Y-95063552D02*
X108575014Y-95158790D01*
X108575014Y-95158790D02*
X108527395Y-95206409D01*
X108527395Y-95206409D02*
X108432157Y-95254028D01*
X108432157Y-95254028D02*
X108051205Y-95254028D01*
X109575014Y-95730219D02*
X109003586Y-95730219D01*
X109289300Y-95730219D02*
X109289300Y-94730219D01*
X109289300Y-94730219D02*
X109194062Y-94873076D01*
X109194062Y-94873076D02*
X109098824Y-94968314D01*
X109098824Y-94968314D02*
X109003586Y-95015933D01*
X127788595Y-97711419D02*
X127788595Y-96711419D01*
X127788595Y-97187609D02*
X128360023Y-97187609D01*
X128360023Y-97711419D02*
X128360023Y-96711419D01*
X129264785Y-97044752D02*
X129264785Y-97711419D01*
X129026690Y-96663800D02*
X128788595Y-97378085D01*
X128788595Y-97378085D02*
X129407642Y-97378085D01*
X123826195Y-108531819D02*
X123826195Y-107531819D01*
X123826195Y-108008009D02*
X124397623Y-108008009D01*
X124397623Y-108531819D02*
X124397623Y-107531819D01*
X125397623Y-108531819D02*
X124826195Y-108531819D01*
X125111909Y-108531819D02*
X125111909Y-107531819D01*
X125111909Y-107531819D02*
X125016671Y-107674676D01*
X125016671Y-107674676D02*
X124921433Y-107769914D01*
X124921433Y-107769914D02*
X124826195Y-107817533D01*
X108717080Y-101106266D02*
X108764700Y-101153885D01*
X108764700Y-101153885D02*
X108812319Y-101296742D01*
X108812319Y-101296742D02*
X108812319Y-101391980D01*
X108812319Y-101391980D02*
X108764700Y-101534837D01*
X108764700Y-101534837D02*
X108669461Y-101630075D01*
X108669461Y-101630075D02*
X108574223Y-101677694D01*
X108574223Y-101677694D02*
X108383747Y-101725313D01*
X108383747Y-101725313D02*
X108240890Y-101725313D01*
X108240890Y-101725313D02*
X108050414Y-101677694D01*
X108050414Y-101677694D02*
X107955176Y-101630075D01*
X107955176Y-101630075D02*
X107859938Y-101534837D01*
X107859938Y-101534837D02*
X107812319Y-101391980D01*
X107812319Y-101391980D02*
X107812319Y-101296742D01*
X107812319Y-101296742D02*
X107859938Y-101153885D01*
X107859938Y-101153885D02*
X107907557Y-101106266D01*
X107907557Y-100725313D02*
X107859938Y-100677694D01*
X107859938Y-100677694D02*
X107812319Y-100582456D01*
X107812319Y-100582456D02*
X107812319Y-100344361D01*
X107812319Y-100344361D02*
X107859938Y-100249123D01*
X107859938Y-100249123D02*
X107907557Y-100201504D01*
X107907557Y-100201504D02*
X108002795Y-100153885D01*
X108002795Y-100153885D02*
X108098033Y-100153885D01*
X108098033Y-100153885D02*
X108240890Y-100201504D01*
X108240890Y-100201504D02*
X108812319Y-100772932D01*
X108812319Y-100772932D02*
X108812319Y-100153885D01*
X96672005Y-107896819D02*
X96672005Y-106896819D01*
X96672005Y-106896819D02*
X96910100Y-106896819D01*
X96910100Y-106896819D02*
X97052957Y-106944438D01*
X97052957Y-106944438D02*
X97148195Y-107039676D01*
X97148195Y-107039676D02*
X97195814Y-107134914D01*
X97195814Y-107134914D02*
X97243433Y-107325390D01*
X97243433Y-107325390D02*
X97243433Y-107468247D01*
X97243433Y-107468247D02*
X97195814Y-107658723D01*
X97195814Y-107658723D02*
X97148195Y-107753961D01*
X97148195Y-107753961D02*
X97052957Y-107849200D01*
X97052957Y-107849200D02*
X96910100Y-107896819D01*
X96910100Y-107896819D02*
X96672005Y-107896819D01*
X98195814Y-107896819D02*
X97624386Y-107896819D01*
X97910100Y-107896819D02*
X97910100Y-106896819D01*
X97910100Y-106896819D02*
X97814862Y-107039676D01*
X97814862Y-107039676D02*
X97719624Y-107134914D01*
X97719624Y-107134914D02*
X97624386Y-107182533D01*
X106412833Y-95558780D02*
X106365214Y-95606400D01*
X106365214Y-95606400D02*
X106222357Y-95654019D01*
X106222357Y-95654019D02*
X106127119Y-95654019D01*
X106127119Y-95654019D02*
X105984262Y-95606400D01*
X105984262Y-95606400D02*
X105889024Y-95511161D01*
X105889024Y-95511161D02*
X105841405Y-95415923D01*
X105841405Y-95415923D02*
X105793786Y-95225447D01*
X105793786Y-95225447D02*
X105793786Y-95082590D01*
X105793786Y-95082590D02*
X105841405Y-94892114D01*
X105841405Y-94892114D02*
X105889024Y-94796876D01*
X105889024Y-94796876D02*
X105984262Y-94701638D01*
X105984262Y-94701638D02*
X106127119Y-94654019D01*
X106127119Y-94654019D02*
X106222357Y-94654019D01*
X106222357Y-94654019D02*
X106365214Y-94701638D01*
X106365214Y-94701638D02*
X106412833Y-94749257D01*
X107269976Y-94987352D02*
X107269976Y-95654019D01*
X107031881Y-94606400D02*
X106793786Y-95320685D01*
X106793786Y-95320685D02*
X107412833Y-95320685D01*
X98643035Y-99921600D02*
X98678750Y-99957314D01*
X98678750Y-99957314D02*
X98714464Y-100064457D01*
X98714464Y-100064457D02*
X98714464Y-100135885D01*
X98714464Y-100135885D02*
X98678750Y-100243028D01*
X98678750Y-100243028D02*
X98607321Y-100314457D01*
X98607321Y-100314457D02*
X98535892Y-100350171D01*
X98535892Y-100350171D02*
X98393035Y-100385885D01*
X98393035Y-100385885D02*
X98285892Y-100385885D01*
X98285892Y-100385885D02*
X98143035Y-100350171D01*
X98143035Y-100350171D02*
X98071607Y-100314457D01*
X98071607Y-100314457D02*
X98000178Y-100243028D01*
X98000178Y-100243028D02*
X97964464Y-100135885D01*
X97964464Y-100135885D02*
X97964464Y-100064457D01*
X97964464Y-100064457D02*
X98000178Y-99957314D01*
X98000178Y-99957314D02*
X98035892Y-99921600D01*
X98714464Y-99207314D02*
X98714464Y-99635885D01*
X98714464Y-99421600D02*
X97964464Y-99421600D01*
X97964464Y-99421600D02*
X98071607Y-99493028D01*
X98071607Y-99493028D02*
X98143035Y-99564457D01*
X98143035Y-99564457D02*
X98178750Y-99635885D01*
X102109195Y-97219419D02*
X102109195Y-98028942D01*
X102109195Y-98028942D02*
X102156814Y-98124180D01*
X102156814Y-98124180D02*
X102204433Y-98171800D01*
X102204433Y-98171800D02*
X102299671Y-98219419D01*
X102299671Y-98219419D02*
X102490147Y-98219419D01*
X102490147Y-98219419D02*
X102585385Y-98171800D01*
X102585385Y-98171800D02*
X102633004Y-98124180D01*
X102633004Y-98124180D02*
X102680623Y-98028942D01*
X102680623Y-98028942D02*
X102680623Y-97219419D01*
X103680623Y-98219419D02*
X103109195Y-98219419D01*
X103394909Y-98219419D02*
X103394909Y-97219419D01*
X103394909Y-97219419D02*
X103299671Y-97362276D01*
X103299671Y-97362276D02*
X103204433Y-97457514D01*
X103204433Y-97457514D02*
X103109195Y-97505133D01*
X109714833Y-97565380D02*
X109667214Y-97613000D01*
X109667214Y-97613000D02*
X109524357Y-97660619D01*
X109524357Y-97660619D02*
X109429119Y-97660619D01*
X109429119Y-97660619D02*
X109286262Y-97613000D01*
X109286262Y-97613000D02*
X109191024Y-97517761D01*
X109191024Y-97517761D02*
X109143405Y-97422523D01*
X109143405Y-97422523D02*
X109095786Y-97232047D01*
X109095786Y-97232047D02*
X109095786Y-97089190D01*
X109095786Y-97089190D02*
X109143405Y-96898714D01*
X109143405Y-96898714D02*
X109191024Y-96803476D01*
X109191024Y-96803476D02*
X109286262Y-96708238D01*
X109286262Y-96708238D02*
X109429119Y-96660619D01*
X109429119Y-96660619D02*
X109524357Y-96660619D01*
X109524357Y-96660619D02*
X109667214Y-96708238D01*
X109667214Y-96708238D02*
X109714833Y-96755857D01*
X110571976Y-96660619D02*
X110381500Y-96660619D01*
X110381500Y-96660619D02*
X110286262Y-96708238D01*
X110286262Y-96708238D02*
X110238643Y-96755857D01*
X110238643Y-96755857D02*
X110143405Y-96898714D01*
X110143405Y-96898714D02*
X110095786Y-97089190D01*
X110095786Y-97089190D02*
X110095786Y-97470142D01*
X110095786Y-97470142D02*
X110143405Y-97565380D01*
X110143405Y-97565380D02*
X110191024Y-97613000D01*
X110191024Y-97613000D02*
X110286262Y-97660619D01*
X110286262Y-97660619D02*
X110476738Y-97660619D01*
X110476738Y-97660619D02*
X110571976Y-97613000D01*
X110571976Y-97613000D02*
X110619595Y-97565380D01*
X110619595Y-97565380D02*
X110667214Y-97470142D01*
X110667214Y-97470142D02*
X110667214Y-97232047D01*
X110667214Y-97232047D02*
X110619595Y-97136809D01*
X110619595Y-97136809D02*
X110571976Y-97089190D01*
X110571976Y-97089190D02*
X110476738Y-97041571D01*
X110476738Y-97041571D02*
X110286262Y-97041571D01*
X110286262Y-97041571D02*
X110191024Y-97089190D01*
X110191024Y-97089190D02*
X110143405Y-97136809D01*
X110143405Y-97136809D02*
X110095786Y-97232047D01*
X109773567Y-106915304D02*
X109735471Y-106953400D01*
X109735471Y-106953400D02*
X109621186Y-106991495D01*
X109621186Y-106991495D02*
X109544995Y-106991495D01*
X109544995Y-106991495D02*
X109430709Y-106953400D01*
X109430709Y-106953400D02*
X109354519Y-106877209D01*
X109354519Y-106877209D02*
X109316424Y-106801019D01*
X109316424Y-106801019D02*
X109278328Y-106648638D01*
X109278328Y-106648638D02*
X109278328Y-106534352D01*
X109278328Y-106534352D02*
X109316424Y-106381971D01*
X109316424Y-106381971D02*
X109354519Y-106305780D01*
X109354519Y-106305780D02*
X109430709Y-106229590D01*
X109430709Y-106229590D02*
X109544995Y-106191495D01*
X109544995Y-106191495D02*
X109621186Y-106191495D01*
X109621186Y-106191495D02*
X109735471Y-106229590D01*
X109735471Y-106229590D02*
X109773567Y-106267685D01*
X110230709Y-106534352D02*
X110154519Y-106496257D01*
X110154519Y-106496257D02*
X110116424Y-106458161D01*
X110116424Y-106458161D02*
X110078328Y-106381971D01*
X110078328Y-106381971D02*
X110078328Y-106343876D01*
X110078328Y-106343876D02*
X110116424Y-106267685D01*
X110116424Y-106267685D02*
X110154519Y-106229590D01*
X110154519Y-106229590D02*
X110230709Y-106191495D01*
X110230709Y-106191495D02*
X110383090Y-106191495D01*
X110383090Y-106191495D02*
X110459281Y-106229590D01*
X110459281Y-106229590D02*
X110497376Y-106267685D01*
X110497376Y-106267685D02*
X110535471Y-106343876D01*
X110535471Y-106343876D02*
X110535471Y-106381971D01*
X110535471Y-106381971D02*
X110497376Y-106458161D01*
X110497376Y-106458161D02*
X110459281Y-106496257D01*
X110459281Y-106496257D02*
X110383090Y-106534352D01*
X110383090Y-106534352D02*
X110230709Y-106534352D01*
X110230709Y-106534352D02*
X110154519Y-106572447D01*
X110154519Y-106572447D02*
X110116424Y-106610542D01*
X110116424Y-106610542D02*
X110078328Y-106686733D01*
X110078328Y-106686733D02*
X110078328Y-106839114D01*
X110078328Y-106839114D02*
X110116424Y-106915304D01*
X110116424Y-106915304D02*
X110154519Y-106953400D01*
X110154519Y-106953400D02*
X110230709Y-106991495D01*
X110230709Y-106991495D02*
X110383090Y-106991495D01*
X110383090Y-106991495D02*
X110459281Y-106953400D01*
X110459281Y-106953400D02*
X110497376Y-106915304D01*
X110497376Y-106915304D02*
X110535471Y-106839114D01*
X110535471Y-106839114D02*
X110535471Y-106686733D01*
X110535471Y-106686733D02*
X110497376Y-106610542D01*
X110497376Y-106610542D02*
X110459281Y-106572447D01*
X110459281Y-106572447D02*
X110383090Y-106534352D01*
X92609595Y-108811219D02*
X92609595Y-107811219D01*
X92609595Y-108287409D02*
X93181023Y-108287409D01*
X93181023Y-108811219D02*
X93181023Y-107811219D01*
X93609595Y-107906457D02*
X93657214Y-107858838D01*
X93657214Y-107858838D02*
X93752452Y-107811219D01*
X93752452Y-107811219D02*
X93990547Y-107811219D01*
X93990547Y-107811219D02*
X94085785Y-107858838D01*
X94085785Y-107858838D02*
X94133404Y-107906457D01*
X94133404Y-107906457D02*
X94181023Y-108001695D01*
X94181023Y-108001695D02*
X94181023Y-108096933D01*
X94181023Y-108096933D02*
X94133404Y-108239790D01*
X94133404Y-108239790D02*
X93561976Y-108811219D01*
X93561976Y-108811219D02*
X94181023Y-108811219D01*
X112305633Y-97584419D02*
X111829443Y-97584419D01*
X111829443Y-97584419D02*
X111829443Y-96584419D01*
X113162776Y-97584419D02*
X112591348Y-97584419D01*
X112877062Y-97584419D02*
X112877062Y-96584419D01*
X112877062Y-96584419D02*
X112781824Y-96727276D01*
X112781824Y-96727276D02*
X112686586Y-96822514D01*
X112686586Y-96822514D02*
X112591348Y-96870133D01*
X105727033Y-105356819D02*
X105393700Y-104880628D01*
X105155605Y-105356819D02*
X105155605Y-104356819D01*
X105155605Y-104356819D02*
X105536557Y-104356819D01*
X105536557Y-104356819D02*
X105631795Y-104404438D01*
X105631795Y-104404438D02*
X105679414Y-104452057D01*
X105679414Y-104452057D02*
X105727033Y-104547295D01*
X105727033Y-104547295D02*
X105727033Y-104690152D01*
X105727033Y-104690152D02*
X105679414Y-104785390D01*
X105679414Y-104785390D02*
X105631795Y-104833009D01*
X105631795Y-104833009D02*
X105536557Y-104880628D01*
X105536557Y-104880628D02*
X105155605Y-104880628D01*
X106584176Y-104690152D02*
X106584176Y-105356819D01*
X106346081Y-104309200D02*
X106107986Y-105023485D01*
X106107986Y-105023485D02*
X106727033Y-105023485D01*
X104355433Y-94993619D02*
X104022100Y-94517428D01*
X103784005Y-94993619D02*
X103784005Y-93993619D01*
X103784005Y-93993619D02*
X104164957Y-93993619D01*
X104164957Y-93993619D02*
X104260195Y-94041238D01*
X104260195Y-94041238D02*
X104307814Y-94088857D01*
X104307814Y-94088857D02*
X104355433Y-94184095D01*
X104355433Y-94184095D02*
X104355433Y-94326952D01*
X104355433Y-94326952D02*
X104307814Y-94422190D01*
X104307814Y-94422190D02*
X104260195Y-94469809D01*
X104260195Y-94469809D02*
X104164957Y-94517428D01*
X104164957Y-94517428D02*
X103784005Y-94517428D01*
X104736386Y-94088857D02*
X104784005Y-94041238D01*
X104784005Y-94041238D02*
X104879243Y-93993619D01*
X104879243Y-93993619D02*
X105117338Y-93993619D01*
X105117338Y-93993619D02*
X105212576Y-94041238D01*
X105212576Y-94041238D02*
X105260195Y-94088857D01*
X105260195Y-94088857D02*
X105307814Y-94184095D01*
X105307814Y-94184095D02*
X105307814Y-94279333D01*
X105307814Y-94279333D02*
X105260195Y-94422190D01*
X105260195Y-94422190D02*
X104688767Y-94993619D01*
X104688767Y-94993619D02*
X105307814Y-94993619D01*
X116736366Y-106058619D02*
X116736366Y-106772904D01*
X116736366Y-106772904D02*
X116688747Y-106915761D01*
X116688747Y-106915761D02*
X116593509Y-107011000D01*
X116593509Y-107011000D02*
X116450652Y-107058619D01*
X116450652Y-107058619D02*
X116355414Y-107058619D01*
X117164938Y-106153857D02*
X117212557Y-106106238D01*
X117212557Y-106106238D02*
X117307795Y-106058619D01*
X117307795Y-106058619D02*
X117545890Y-106058619D01*
X117545890Y-106058619D02*
X117641128Y-106106238D01*
X117641128Y-106106238D02*
X117688747Y-106153857D01*
X117688747Y-106153857D02*
X117736366Y-106249095D01*
X117736366Y-106249095D02*
X117736366Y-106344333D01*
X117736366Y-106344333D02*
X117688747Y-106487190D01*
X117688747Y-106487190D02*
X117117319Y-107058619D01*
X117117319Y-107058619D02*
X117736366Y-107058619D01*
X107919367Y-106991495D02*
X107652700Y-106610542D01*
X107462224Y-106991495D02*
X107462224Y-106191495D01*
X107462224Y-106191495D02*
X107766986Y-106191495D01*
X107766986Y-106191495D02*
X107843176Y-106229590D01*
X107843176Y-106229590D02*
X107881271Y-106267685D01*
X107881271Y-106267685D02*
X107919367Y-106343876D01*
X107919367Y-106343876D02*
X107919367Y-106458161D01*
X107919367Y-106458161D02*
X107881271Y-106534352D01*
X107881271Y-106534352D02*
X107843176Y-106572447D01*
X107843176Y-106572447D02*
X107766986Y-106610542D01*
X107766986Y-106610542D02*
X107462224Y-106610542D01*
X108186033Y-106191495D02*
X108681271Y-106191495D01*
X108681271Y-106191495D02*
X108414605Y-106496257D01*
X108414605Y-106496257D02*
X108528890Y-106496257D01*
X108528890Y-106496257D02*
X108605081Y-106534352D01*
X108605081Y-106534352D02*
X108643176Y-106572447D01*
X108643176Y-106572447D02*
X108681271Y-106648638D01*
X108681271Y-106648638D02*
X108681271Y-106839114D01*
X108681271Y-106839114D02*
X108643176Y-106915304D01*
X108643176Y-106915304D02*
X108605081Y-106953400D01*
X108605081Y-106953400D02*
X108528890Y-106991495D01*
X108528890Y-106991495D02*
X108300319Y-106991495D01*
X108300319Y-106991495D02*
X108224128Y-106953400D01*
X108224128Y-106953400D02*
X108186033Y-106915304D01*
X112592966Y-107016895D02*
X112212014Y-107016895D01*
X112212014Y-107016895D02*
X112212014Y-106216895D01*
X112821537Y-106293085D02*
X112859633Y-106254990D01*
X112859633Y-106254990D02*
X112935823Y-106216895D01*
X112935823Y-106216895D02*
X113126299Y-106216895D01*
X113126299Y-106216895D02*
X113202490Y-106254990D01*
X113202490Y-106254990D02*
X113240585Y-106293085D01*
X113240585Y-106293085D02*
X113278680Y-106369276D01*
X113278680Y-106369276D02*
X113278680Y-106445466D01*
X113278680Y-106445466D02*
X113240585Y-106559752D01*
X113240585Y-106559752D02*
X112783442Y-107016895D01*
X112783442Y-107016895D02*
X113278680Y-107016895D01*
X148974713Y-95638723D02*
X148974713Y-96448246D01*
X148974713Y-96448246D02*
X149022332Y-96543484D01*
X149022332Y-96543484D02*
X149069951Y-96591104D01*
X149069951Y-96591104D02*
X149165189Y-96638723D01*
X149165189Y-96638723D02*
X149355665Y-96638723D01*
X149355665Y-96638723D02*
X149450903Y-96591104D01*
X149450903Y-96591104D02*
X149498522Y-96543484D01*
X149498522Y-96543484D02*
X149546141Y-96448246D01*
X149546141Y-96448246D02*
X149546141Y-95638723D01*
X149974713Y-95733961D02*
X150022332Y-95686342D01*
X150022332Y-95686342D02*
X150117570Y-95638723D01*
X150117570Y-95638723D02*
X150355665Y-95638723D01*
X150355665Y-95638723D02*
X150450903Y-95686342D01*
X150450903Y-95686342D02*
X150498522Y-95733961D01*
X150498522Y-95733961D02*
X150546141Y-95829199D01*
X150546141Y-95829199D02*
X150546141Y-95924437D01*
X150546141Y-95924437D02*
X150498522Y-96067294D01*
X150498522Y-96067294D02*
X149927094Y-96638723D01*
X149927094Y-96638723D02*
X150546141Y-96638723D01*
X138772763Y-109084723D02*
X138772763Y-108084723D01*
X138772763Y-108560913D02*
X139344191Y-108560913D01*
X139344191Y-109084723D02*
X139344191Y-108084723D01*
X139963239Y-108513294D02*
X139868001Y-108465675D01*
X139868001Y-108465675D02*
X139820382Y-108418056D01*
X139820382Y-108418056D02*
X139772763Y-108322818D01*
X139772763Y-108322818D02*
X139772763Y-108275199D01*
X139772763Y-108275199D02*
X139820382Y-108179961D01*
X139820382Y-108179961D02*
X139868001Y-108132342D01*
X139868001Y-108132342D02*
X139963239Y-108084723D01*
X139963239Y-108084723D02*
X140153715Y-108084723D01*
X140153715Y-108084723D02*
X140248953Y-108132342D01*
X140248953Y-108132342D02*
X140296572Y-108179961D01*
X140296572Y-108179961D02*
X140344191Y-108275199D01*
X140344191Y-108275199D02*
X140344191Y-108322818D01*
X140344191Y-108322818D02*
X140296572Y-108418056D01*
X140296572Y-108418056D02*
X140248953Y-108465675D01*
X140248953Y-108465675D02*
X140153715Y-108513294D01*
X140153715Y-108513294D02*
X139963239Y-108513294D01*
X139963239Y-108513294D02*
X139868001Y-108560913D01*
X139868001Y-108560913D02*
X139820382Y-108608532D01*
X139820382Y-108608532D02*
X139772763Y-108703770D01*
X139772763Y-108703770D02*
X139772763Y-108894246D01*
X139772763Y-108894246D02*
X139820382Y-108989484D01*
X139820382Y-108989484D02*
X139868001Y-109037104D01*
X139868001Y-109037104D02*
X139963239Y-109084723D01*
X139963239Y-109084723D02*
X140153715Y-109084723D01*
X140153715Y-109084723D02*
X140248953Y-109037104D01*
X140248953Y-109037104D02*
X140296572Y-108989484D01*
X140296572Y-108989484D02*
X140344191Y-108894246D01*
X140344191Y-108894246D02*
X140344191Y-108703770D01*
X140344191Y-108703770D02*
X140296572Y-108608532D01*
X140296572Y-108608532D02*
X140248953Y-108560913D01*
X140248953Y-108560913D02*
X140153715Y-108513294D01*
X139212263Y-93654627D02*
X139212263Y-92654627D01*
X139212263Y-93130817D02*
X139783691Y-93130817D01*
X139783691Y-93654627D02*
X139783691Y-92654627D01*
X140164644Y-92654627D02*
X140831310Y-92654627D01*
X140831310Y-92654627D02*
X140402739Y-93654627D01*
X144978960Y-96415384D02*
X144931341Y-96463004D01*
X144931341Y-96463004D02*
X144788484Y-96510623D01*
X144788484Y-96510623D02*
X144693246Y-96510623D01*
X144693246Y-96510623D02*
X144550389Y-96463004D01*
X144550389Y-96463004D02*
X144455151Y-96367765D01*
X144455151Y-96367765D02*
X144407532Y-96272527D01*
X144407532Y-96272527D02*
X144359913Y-96082051D01*
X144359913Y-96082051D02*
X144359913Y-95939194D01*
X144359913Y-95939194D02*
X144407532Y-95748718D01*
X144407532Y-95748718D02*
X144455151Y-95653480D01*
X144455151Y-95653480D02*
X144550389Y-95558242D01*
X144550389Y-95558242D02*
X144693246Y-95510623D01*
X144693246Y-95510623D02*
X144788484Y-95510623D01*
X144788484Y-95510623D02*
X144931341Y-95558242D01*
X144931341Y-95558242D02*
X144978960Y-95605861D01*
X145931341Y-96510623D02*
X145359913Y-96510623D01*
X145645627Y-96510623D02*
X145645627Y-95510623D01*
X145645627Y-95510623D02*
X145550389Y-95653480D01*
X145550389Y-95653480D02*
X145455151Y-95748718D01*
X145455151Y-95748718D02*
X145359913Y-95796337D01*
X146550389Y-95510623D02*
X146645627Y-95510623D01*
X146645627Y-95510623D02*
X146740865Y-95558242D01*
X146740865Y-95558242D02*
X146788484Y-95605861D01*
X146788484Y-95605861D02*
X146836103Y-95701099D01*
X146836103Y-95701099D02*
X146883722Y-95891575D01*
X146883722Y-95891575D02*
X146883722Y-96129670D01*
X146883722Y-96129670D02*
X146836103Y-96320146D01*
X146836103Y-96320146D02*
X146788484Y-96415384D01*
X146788484Y-96415384D02*
X146740865Y-96463004D01*
X146740865Y-96463004D02*
X146645627Y-96510623D01*
X146645627Y-96510623D02*
X146550389Y-96510623D01*
X146550389Y-96510623D02*
X146455151Y-96463004D01*
X146455151Y-96463004D02*
X146407532Y-96415384D01*
X146407532Y-96415384D02*
X146359913Y-96320146D01*
X146359913Y-96320146D02*
X146312294Y-96129670D01*
X146312294Y-96129670D02*
X146312294Y-95891575D01*
X146312294Y-95891575D02*
X146359913Y-95701099D01*
X146359913Y-95701099D02*
X146407532Y-95605861D01*
X146407532Y-95605861D02*
X146455151Y-95558242D01*
X146455151Y-95558242D02*
X146550389Y-95510623D01*
X152224323Y-101159938D02*
X152224323Y-100159938D01*
X152224323Y-100159938D02*
X152462418Y-100159938D01*
X152462418Y-100159938D02*
X152605275Y-100207557D01*
X152605275Y-100207557D02*
X152700513Y-100302795D01*
X152700513Y-100302795D02*
X152748132Y-100398033D01*
X152748132Y-100398033D02*
X152795751Y-100588509D01*
X152795751Y-100588509D02*
X152795751Y-100731366D01*
X152795751Y-100731366D02*
X152748132Y-100921842D01*
X152748132Y-100921842D02*
X152700513Y-101017080D01*
X152700513Y-101017080D02*
X152605275Y-101112319D01*
X152605275Y-101112319D02*
X152462418Y-101159938D01*
X152462418Y-101159938D02*
X152224323Y-101159938D01*
X153176704Y-100255176D02*
X153224323Y-100207557D01*
X153224323Y-100207557D02*
X153319561Y-100159938D01*
X153319561Y-100159938D02*
X153557656Y-100159938D01*
X153557656Y-100159938D02*
X153652894Y-100207557D01*
X153652894Y-100207557D02*
X153700513Y-100255176D01*
X153700513Y-100255176D02*
X153748132Y-100350414D01*
X153748132Y-100350414D02*
X153748132Y-100445652D01*
X153748132Y-100445652D02*
X153700513Y-100588509D01*
X153700513Y-100588509D02*
X153129085Y-101159938D01*
X153129085Y-101159938D02*
X153748132Y-101159938D01*
X155716751Y-95470323D02*
X155240561Y-95470323D01*
X155240561Y-95470323D02*
X155240561Y-94470323D01*
X155954847Y-94470323D02*
X156573894Y-94470323D01*
X156573894Y-94470323D02*
X156240561Y-94851275D01*
X156240561Y-94851275D02*
X156383418Y-94851275D01*
X156383418Y-94851275D02*
X156478656Y-94898894D01*
X156478656Y-94898894D02*
X156526275Y-94946513D01*
X156526275Y-94946513D02*
X156573894Y-95041751D01*
X156573894Y-95041751D02*
X156573894Y-95279846D01*
X156573894Y-95279846D02*
X156526275Y-95375084D01*
X156526275Y-95375084D02*
X156478656Y-95422704D01*
X156478656Y-95422704D02*
X156383418Y-95470323D01*
X156383418Y-95470323D02*
X156097704Y-95470323D01*
X156097704Y-95470323D02*
X156002466Y-95422704D01*
X156002466Y-95422704D02*
X155954847Y-95375084D01*
X145796484Y-103708413D02*
X145463151Y-103708413D01*
X145463151Y-104232223D02*
X145463151Y-103232223D01*
X145463151Y-103232223D02*
X145939341Y-103232223D01*
X146272675Y-103327461D02*
X146320294Y-103279842D01*
X146320294Y-103279842D02*
X146415532Y-103232223D01*
X146415532Y-103232223D02*
X146653627Y-103232223D01*
X146653627Y-103232223D02*
X146748865Y-103279842D01*
X146748865Y-103279842D02*
X146796484Y-103327461D01*
X146796484Y-103327461D02*
X146844103Y-103422699D01*
X146844103Y-103422699D02*
X146844103Y-103517937D01*
X146844103Y-103517937D02*
X146796484Y-103660794D01*
X146796484Y-103660794D02*
X146225056Y-104232223D01*
X146225056Y-104232223D02*
X146844103Y-104232223D01*
X153628308Y-98839738D02*
X153152117Y-99173071D01*
X153628308Y-99411166D02*
X152628308Y-99411166D01*
X152628308Y-99411166D02*
X152628308Y-99030214D01*
X152628308Y-99030214D02*
X152675927Y-98934976D01*
X152675927Y-98934976D02*
X152723546Y-98887357D01*
X152723546Y-98887357D02*
X152818784Y-98839738D01*
X152818784Y-98839738D02*
X152961641Y-98839738D01*
X152961641Y-98839738D02*
X153056879Y-98887357D01*
X153056879Y-98887357D02*
X153104498Y-98934976D01*
X153104498Y-98934976D02*
X153152117Y-99030214D01*
X153152117Y-99030214D02*
X153152117Y-99411166D01*
X153628308Y-97934976D02*
X153628308Y-98411166D01*
X153628308Y-98411166D02*
X152628308Y-98411166D01*
X153628308Y-97173071D02*
X152628308Y-97173071D01*
X153580689Y-97173071D02*
X153628308Y-97268309D01*
X153628308Y-97268309D02*
X153628308Y-97458785D01*
X153628308Y-97458785D02*
X153580689Y-97554023D01*
X153580689Y-97554023D02*
X153533069Y-97601642D01*
X153533069Y-97601642D02*
X153437831Y-97649261D01*
X153437831Y-97649261D02*
X153152117Y-97649261D01*
X153152117Y-97649261D02*
X153056879Y-97601642D01*
X153056879Y-97601642D02*
X153009260Y-97554023D01*
X153009260Y-97554023D02*
X152961641Y-97458785D01*
X152961641Y-97458785D02*
X152961641Y-97268309D01*
X152961641Y-97268309D02*
X153009260Y-97173071D01*
X160836513Y-108758777D02*
X160836513Y-107758777D01*
X160836513Y-108234967D02*
X161407941Y-108234967D01*
X161407941Y-108758777D02*
X161407941Y-107758777D01*
X162360322Y-107758777D02*
X161884132Y-107758777D01*
X161884132Y-107758777D02*
X161836513Y-108234967D01*
X161836513Y-108234967D02*
X161884132Y-108187348D01*
X161884132Y-108187348D02*
X161979370Y-108139729D01*
X161979370Y-108139729D02*
X162217465Y-108139729D01*
X162217465Y-108139729D02*
X162312703Y-108187348D01*
X162312703Y-108187348D02*
X162360322Y-108234967D01*
X162360322Y-108234967D02*
X162407941Y-108330205D01*
X162407941Y-108330205D02*
X162407941Y-108568300D01*
X162407941Y-108568300D02*
X162360322Y-108663538D01*
X162360322Y-108663538D02*
X162312703Y-108711158D01*
X162312703Y-108711158D02*
X162217465Y-108758777D01*
X162217465Y-108758777D02*
X161979370Y-108758777D01*
X161979370Y-108758777D02*
X161884132Y-108711158D01*
X161884132Y-108711158D02*
X161836513Y-108663538D01*
X148974713Y-104045023D02*
X148974713Y-104854546D01*
X148974713Y-104854546D02*
X149022332Y-104949784D01*
X149022332Y-104949784D02*
X149069951Y-104997404D01*
X149069951Y-104997404D02*
X149165189Y-105045023D01*
X149165189Y-105045023D02*
X149355665Y-105045023D01*
X149355665Y-105045023D02*
X149450903Y-104997404D01*
X149450903Y-104997404D02*
X149498522Y-104949784D01*
X149498522Y-104949784D02*
X149546141Y-104854546D01*
X149546141Y-104854546D02*
X149546141Y-104045023D01*
X149927094Y-104045023D02*
X150546141Y-104045023D01*
X150546141Y-104045023D02*
X150212808Y-104425975D01*
X150212808Y-104425975D02*
X150355665Y-104425975D01*
X150355665Y-104425975D02*
X150450903Y-104473594D01*
X150450903Y-104473594D02*
X150498522Y-104521213D01*
X150498522Y-104521213D02*
X150546141Y-104616451D01*
X150546141Y-104616451D02*
X150546141Y-104854546D01*
X150546141Y-104854546D02*
X150498522Y-104949784D01*
X150498522Y-104949784D02*
X150450903Y-104997404D01*
X150450903Y-104997404D02*
X150355665Y-105045023D01*
X150355665Y-105045023D02*
X150069951Y-105045023D01*
X150069951Y-105045023D02*
X149974713Y-104997404D01*
X149974713Y-104997404D02*
X149927094Y-104949784D01*
X165408513Y-97989177D02*
X165408513Y-96989177D01*
X165408513Y-97465367D02*
X165979941Y-97465367D01*
X165979941Y-97989177D02*
X165979941Y-96989177D01*
X166884703Y-96989177D02*
X166694227Y-96989177D01*
X166694227Y-96989177D02*
X166598989Y-97036796D01*
X166598989Y-97036796D02*
X166551370Y-97084415D01*
X166551370Y-97084415D02*
X166456132Y-97227272D01*
X166456132Y-97227272D02*
X166408513Y-97417748D01*
X166408513Y-97417748D02*
X166408513Y-97798700D01*
X166408513Y-97798700D02*
X166456132Y-97893938D01*
X166456132Y-97893938D02*
X166503751Y-97941558D01*
X166503751Y-97941558D02*
X166598989Y-97989177D01*
X166598989Y-97989177D02*
X166789465Y-97989177D01*
X166789465Y-97989177D02*
X166884703Y-97941558D01*
X166884703Y-97941558D02*
X166932322Y-97893938D01*
X166932322Y-97893938D02*
X166979941Y-97798700D01*
X166979941Y-97798700D02*
X166979941Y-97560605D01*
X166979941Y-97560605D02*
X166932322Y-97465367D01*
X166932322Y-97465367D02*
X166884703Y-97417748D01*
X166884703Y-97417748D02*
X166789465Y-97370129D01*
X166789465Y-97370129D02*
X166598989Y-97370129D01*
X166598989Y-97370129D02*
X166503751Y-97417748D01*
X166503751Y-97417748D02*
X166456132Y-97465367D01*
X166456132Y-97465367D02*
X166408513Y-97560605D01*
X154033198Y-103251861D02*
X154080818Y-103299480D01*
X154080818Y-103299480D02*
X154128437Y-103442337D01*
X154128437Y-103442337D02*
X154128437Y-103537575D01*
X154128437Y-103537575D02*
X154080818Y-103680432D01*
X154080818Y-103680432D02*
X153985579Y-103775670D01*
X153985579Y-103775670D02*
X153890341Y-103823289D01*
X153890341Y-103823289D02*
X153699865Y-103870908D01*
X153699865Y-103870908D02*
X153557008Y-103870908D01*
X153557008Y-103870908D02*
X153366532Y-103823289D01*
X153366532Y-103823289D02*
X153271294Y-103775670D01*
X153271294Y-103775670D02*
X153176056Y-103680432D01*
X153176056Y-103680432D02*
X153128437Y-103537575D01*
X153128437Y-103537575D02*
X153128437Y-103442337D01*
X153128437Y-103442337D02*
X153176056Y-103299480D01*
X153176056Y-103299480D02*
X153223675Y-103251861D01*
X154128437Y-102299480D02*
X154128437Y-102870908D01*
X154128437Y-102585194D02*
X153128437Y-102585194D01*
X153128437Y-102585194D02*
X153271294Y-102680432D01*
X153271294Y-102680432D02*
X153366532Y-102775670D01*
X153366532Y-102775670D02*
X153414151Y-102870908D01*
X154128437Y-101347099D02*
X154128437Y-101918527D01*
X154128437Y-101632813D02*
X153128437Y-101632813D01*
X153128437Y-101632813D02*
X153271294Y-101728051D01*
X153271294Y-101728051D02*
X153366532Y-101823289D01*
X153366532Y-101823289D02*
X153414151Y-101918527D01*
X155367560Y-105838784D02*
X155319941Y-105886404D01*
X155319941Y-105886404D02*
X155177084Y-105934023D01*
X155177084Y-105934023D02*
X155081846Y-105934023D01*
X155081846Y-105934023D02*
X154938989Y-105886404D01*
X154938989Y-105886404D02*
X154843751Y-105791165D01*
X154843751Y-105791165D02*
X154796132Y-105695927D01*
X154796132Y-105695927D02*
X154748513Y-105505451D01*
X154748513Y-105505451D02*
X154748513Y-105362594D01*
X154748513Y-105362594D02*
X154796132Y-105172118D01*
X154796132Y-105172118D02*
X154843751Y-105076880D01*
X154843751Y-105076880D02*
X154938989Y-104981642D01*
X154938989Y-104981642D02*
X155081846Y-104934023D01*
X155081846Y-104934023D02*
X155177084Y-104934023D01*
X155177084Y-104934023D02*
X155319941Y-104981642D01*
X155319941Y-104981642D02*
X155367560Y-105029261D01*
X156319941Y-105934023D02*
X155748513Y-105934023D01*
X156034227Y-105934023D02*
X156034227Y-104934023D01*
X156034227Y-104934023D02*
X155938989Y-105076880D01*
X155938989Y-105076880D02*
X155843751Y-105172118D01*
X155843751Y-105172118D02*
X155748513Y-105219737D01*
X156700894Y-105029261D02*
X156748513Y-104981642D01*
X156748513Y-104981642D02*
X156843751Y-104934023D01*
X156843751Y-104934023D02*
X157081846Y-104934023D01*
X157081846Y-104934023D02*
X157177084Y-104981642D01*
X157177084Y-104981642D02*
X157224703Y-105029261D01*
X157224703Y-105029261D02*
X157272322Y-105124499D01*
X157272322Y-105124499D02*
X157272322Y-105219737D01*
X157272322Y-105219737D02*
X157224703Y-105362594D01*
X157224703Y-105362594D02*
X156653275Y-105934023D01*
X156653275Y-105934023D02*
X157272322Y-105934023D01*
X141249884Y-105189123D02*
X141249884Y-105903408D01*
X141249884Y-105903408D02*
X141202265Y-106046265D01*
X141202265Y-106046265D02*
X141107027Y-106141504D01*
X141107027Y-106141504D02*
X140964170Y-106189123D01*
X140964170Y-106189123D02*
X140868932Y-106189123D01*
X142154646Y-105522456D02*
X142154646Y-106189123D01*
X141916551Y-105141504D02*
X141678456Y-105855789D01*
X141678456Y-105855789D02*
X142297503Y-105855789D01*
X159817284Y-95180423D02*
X159817284Y-95894708D01*
X159817284Y-95894708D02*
X159769665Y-96037565D01*
X159769665Y-96037565D02*
X159674427Y-96132804D01*
X159674427Y-96132804D02*
X159531570Y-96180423D01*
X159531570Y-96180423D02*
X159436332Y-96180423D01*
X160769665Y-95180423D02*
X160293475Y-95180423D01*
X160293475Y-95180423D02*
X160245856Y-95656613D01*
X160245856Y-95656613D02*
X160293475Y-95608994D01*
X160293475Y-95608994D02*
X160388713Y-95561375D01*
X160388713Y-95561375D02*
X160626808Y-95561375D01*
X160626808Y-95561375D02*
X160722046Y-95608994D01*
X160722046Y-95608994D02*
X160769665Y-95656613D01*
X160769665Y-95656613D02*
X160817284Y-95751851D01*
X160817284Y-95751851D02*
X160817284Y-95989946D01*
X160817284Y-95989946D02*
X160769665Y-96085184D01*
X160769665Y-96085184D02*
X160722046Y-96132804D01*
X160722046Y-96132804D02*
X160626808Y-96180423D01*
X160626808Y-96180423D02*
X160388713Y-96180423D01*
X160388713Y-96180423D02*
X160293475Y-96132804D01*
X160293475Y-96132804D02*
X160245856Y-96085184D01*
D12*
%TO.C,J1*%
X95843500Y-104347800D02*
X95843500Y-96627800D01*
X95843500Y-96627800D02*
X91823500Y-96627800D01*
X95343500Y-103847800D02*
X94133500Y-103847800D01*
X95343500Y-97127800D02*
X95343500Y-103847800D01*
X94133500Y-103847800D02*
X94133500Y-104347800D01*
X94133500Y-97127800D02*
X95343500Y-97127800D01*
X94133500Y-96627800D02*
X94133500Y-97127800D01*
X94023500Y-96327800D02*
X91523500Y-96327800D01*
X93323500Y-104347800D02*
X93323500Y-103347800D01*
X93323500Y-103347800D02*
X91823500Y-103347800D01*
X93323500Y-97627800D02*
X91823500Y-97627800D01*
X93323500Y-96627800D02*
X93323500Y-97627800D01*
X91823500Y-104347800D02*
X95843500Y-104347800D01*
X91823500Y-96627800D02*
X91823500Y-104347800D01*
X91523500Y-96327800D02*
X91523500Y-98827800D01*
%TO.C,C5*%
X102318433Y-103964200D02*
X102610967Y-103964200D01*
X102318433Y-102944200D02*
X102610967Y-102944200D01*
%TO.C,RLd*%
X97627800Y-100608676D02*
X97627800Y-101118124D01*
X96582800Y-100608676D02*
X96582800Y-101118124D01*
%TO.C,C9*%
X112643967Y-103964200D02*
X112351433Y-103964200D01*
X112643967Y-102944200D02*
X112351433Y-102944200D01*
%TO.C,F1*%
X99434564Y-98827000D02*
X98230436Y-98827000D01*
X99434564Y-97007000D02*
X98230436Y-97007000D01*
%TO.C,C3*%
X100654067Y-102313200D02*
X100361533Y-102313200D01*
X100654067Y-101293200D02*
X100361533Y-101293200D01*
%TO.C,J3*%
X124662900Y-105841600D02*
X124662900Y-103341600D01*
X124362900Y-105541600D02*
X124362900Y-95321600D01*
X124362900Y-95321600D02*
X120342900Y-95321600D01*
X122862900Y-105541600D02*
X122862900Y-104541600D01*
X122862900Y-104541600D02*
X124362900Y-104541600D01*
X122862900Y-96321600D02*
X124362900Y-96321600D01*
X122862900Y-95321600D02*
X122862900Y-96321600D01*
X122162900Y-105841600D02*
X124662900Y-105841600D01*
X122052900Y-105541600D02*
X122052900Y-105041600D01*
X122052900Y-105041600D02*
X120842900Y-105041600D01*
X122052900Y-95821600D02*
X122052900Y-95321600D01*
X120842900Y-105041600D02*
X120842900Y-95821600D01*
X120842900Y-95821600D02*
X122052900Y-95821600D01*
X120342900Y-105541600D02*
X124362900Y-105541600D01*
X120342900Y-95321600D02*
X120342900Y-105541600D01*
%TO.C,C7*%
X112567767Y-100941600D02*
X112275233Y-100941600D01*
X112567767Y-99921600D02*
X112275233Y-99921600D01*
%TO.C,R1*%
X108778400Y-97816124D02*
X108778400Y-97306676D01*
X107733400Y-97816124D02*
X107733400Y-97306676D01*
%TO.C,C2*%
X107470500Y-100793333D02*
X107470500Y-101085867D01*
X106450500Y-100793333D02*
X106450500Y-101085867D01*
%TO.C,D1*%
X98243100Y-106685800D02*
X98243100Y-103825800D01*
X96323100Y-106685800D02*
X98243100Y-106685800D01*
X96323100Y-103825800D02*
X96323100Y-106685800D01*
%TO.C,C4*%
X107191100Y-97415133D02*
X107191100Y-97707667D01*
X106171100Y-97415133D02*
X106171100Y-97707667D01*
%TO.C,C1*%
X100629767Y-100332000D02*
X100337233Y-100332000D01*
X100629767Y-99312000D02*
X100337233Y-99312000D01*
%TO.C,U1*%
X102758050Y-98730600D02*
X102478050Y-98730600D01*
X102758050Y-98450600D01*
X102758050Y-98730600D01*
G36*
X102758050Y-98730600D02*
G01*
X102478050Y-98730600D01*
X102758050Y-98450600D01*
X102758050Y-98730600D01*
G37*
X103128050Y-101940600D02*
X105128050Y-101940600D01*
X103128050Y-98660600D02*
X105128050Y-98660600D01*
%TO.C,C6*%
X110366100Y-99370933D02*
X110366100Y-99663467D01*
X109346100Y-99370933D02*
X109346100Y-99663467D01*
%TO.C,C8*%
X110416900Y-104514867D02*
X110416900Y-104222333D01*
X109396900Y-104514867D02*
X109396900Y-104222333D01*
%TO.C,L1*%
X112098078Y-99213600D02*
X112897322Y-99213600D01*
X112098078Y-98093600D02*
X112897322Y-98093600D01*
%TO.C,R4*%
X106148424Y-103976700D02*
X105638976Y-103976700D01*
X106148424Y-102931700D02*
X105638976Y-102931700D01*
%TO.C,R2*%
X105400200Y-96519276D02*
X105400200Y-97028724D01*
X104355200Y-96519276D02*
X104355200Y-97028724D01*
%TO.C,J2*%
X119684500Y-105841600D02*
X119684500Y-103341600D01*
X119384500Y-105541600D02*
X119384500Y-95321600D01*
X119384500Y-95321600D02*
X115364500Y-95321600D01*
X117884500Y-105541600D02*
X117884500Y-104541600D01*
X117884500Y-104541600D02*
X119384500Y-104541600D01*
X117884500Y-96321600D02*
X119384500Y-96321600D01*
X117884500Y-95321600D02*
X117884500Y-96321600D01*
X117184500Y-105841600D02*
X119684500Y-105841600D01*
X117074500Y-105541600D02*
X117074500Y-105041600D01*
X117074500Y-105041600D02*
X115864500Y-105041600D01*
X117074500Y-95821600D02*
X117074500Y-95321600D01*
X115864500Y-105041600D02*
X115864500Y-95821600D01*
X115864500Y-95821600D02*
X117074500Y-95821600D01*
X115364500Y-105541600D02*
X119384500Y-105541600D01*
X115364500Y-95321600D02*
X115364500Y-105541600D01*
%TO.C,R3*%
X108854600Y-104113876D02*
X108854600Y-104623324D01*
X107809600Y-104113876D02*
X107809600Y-104623324D01*
%TO.C,L2*%
X112199678Y-105766800D02*
X112998922Y-105766800D01*
X112199678Y-104646800D02*
X112998922Y-104646800D01*
%TO.C,U2*%
X148436618Y-97172204D02*
X148196618Y-96842204D01*
X148676618Y-96842204D01*
X148436618Y-97172204D01*
G36*
X148436618Y-97172204D02*
G01*
X148196618Y-96842204D01*
X148676618Y-96842204D01*
X148436618Y-97172204D01*
G37*
X149736618Y-100242204D02*
X150536618Y-100242204D01*
X149736618Y-100242204D02*
X148936618Y-100242204D01*
X149736618Y-97122204D02*
X150536618Y-97122204D01*
X149736618Y-97122204D02*
X148936618Y-97122204D01*
%TO.C,C10*%
X145768085Y-97912004D02*
X145475551Y-97912004D01*
X145768085Y-96892004D02*
X145475551Y-96892004D01*
%TO.C,D2*%
X156832618Y-99261404D02*
X153972618Y-99261404D01*
X153972618Y-101181404D02*
X156832618Y-101181404D01*
X153972618Y-99261404D02*
X153972618Y-101181404D01*
%TO.C,L3*%
X155356796Y-97047604D02*
X156156040Y-97047604D01*
X155356796Y-95927604D02*
X156156040Y-95927604D01*
%TO.C,F2*%
X146989018Y-100000340D02*
X146989018Y-101204468D01*
X145169018Y-100000340D02*
X145169018Y-101204468D01*
%TO.C,RLd*%
X155501694Y-98838904D02*
X156011142Y-98838904D01*
X155501694Y-97793904D02*
X156011142Y-97793904D01*
%TO.C,U3*%
X148436618Y-100616404D02*
X148196618Y-100286404D01*
X148676618Y-100286404D01*
X148436618Y-100616404D01*
G36*
X148436618Y-100616404D02*
G01*
X148196618Y-100286404D01*
X148676618Y-100286404D01*
X148436618Y-100616404D01*
G37*
X149736618Y-103686404D02*
X150536618Y-103686404D01*
X149736618Y-103686404D02*
X148936618Y-103686404D01*
X149736618Y-100566404D02*
X150536618Y-100566404D01*
X149736618Y-100566404D02*
X148936618Y-100566404D01*
%TO.C,C11*%
X155864151Y-102712604D02*
X156156685Y-102712604D01*
X155864151Y-101692604D02*
X156156685Y-101692604D01*
%TO.C,C12*%
X156156685Y-104490604D02*
X155864151Y-104490604D01*
X156156685Y-103470604D02*
X155864151Y-103470604D01*
%TO.C,J4*%
X143445618Y-104696404D02*
X143445618Y-96976404D01*
X143445618Y-96976404D02*
X139425618Y-96976404D01*
X142945618Y-104196404D02*
X141735618Y-104196404D01*
X142945618Y-97476404D02*
X142945618Y-104196404D01*
X141735618Y-104196404D02*
X141735618Y-104696404D01*
X141735618Y-97476404D02*
X142945618Y-97476404D01*
X141735618Y-96976404D02*
X141735618Y-97476404D01*
X141625618Y-96676404D02*
X139125618Y-96676404D01*
X140925618Y-104696404D02*
X140925618Y-103696404D01*
X140925618Y-103696404D02*
X139425618Y-103696404D01*
X140925618Y-97976404D02*
X139425618Y-97976404D01*
X140925618Y-96976404D02*
X140925618Y-97976404D01*
X139425618Y-104696404D02*
X143445618Y-104696404D01*
X139425618Y-96976404D02*
X139425618Y-104696404D01*
X139125618Y-96676404D02*
X139125618Y-99176404D01*
%TO.C,J5*%
X162511418Y-104940204D02*
X162511418Y-102440204D01*
X162211418Y-104640204D02*
X162211418Y-96920204D01*
X162211418Y-96920204D02*
X158191418Y-96920204D01*
X160711418Y-104640204D02*
X160711418Y-103640204D01*
X160711418Y-103640204D02*
X162211418Y-103640204D01*
X160711418Y-97920204D02*
X162211418Y-97920204D01*
X160711418Y-96920204D02*
X160711418Y-97920204D01*
X160011418Y-104940204D02*
X162511418Y-104940204D01*
X159901418Y-104640204D02*
X159901418Y-104140204D01*
X159901418Y-104140204D02*
X158691418Y-104140204D01*
X159901418Y-97420204D02*
X159901418Y-96920204D01*
X158691418Y-104140204D02*
X158691418Y-97420204D01*
X158691418Y-97420204D02*
X159901418Y-97420204D01*
X158191418Y-104640204D02*
X162211418Y-104640204D01*
X158191418Y-96920204D02*
X158191418Y-104640204D01*
%TD*%
M02*
