%TF.GenerationSoftware,KiCad,Pcbnew,9.0.0*%
%TF.CreationDate,2025-04-24T22:58:58+03:00*%
%TF.ProjectId,PSU,5053552e-6b69-4636-9164-5f7063625858,rev?*%
%TF.SameCoordinates,Original*%
%TF.FileFunction,Copper,L1,Top*%
%TF.FilePolarity,Positive*%
%FSLAX46Y46*%
G04 Gerber Fmt 4.6, Leading zero omitted, Abs format (unit mm)*
G04 Created by KiCad (PCBNEW 9.0.0) date 2025-04-24 22:58:58*
%MOMM*%
%LPD*%
G01*
G04 APERTURE LIST*
G04 Aperture macros list*
%AMRoundRect*
0 Rectangle with rounded corners*
0 $1 Rounding radius*
0 $2 $3 $4 $5 $6 $7 $8 $9 X,Y pos of 4 corners*
0 Add a 4 corners polygon primitive as box body*
4,1,4,$2,$3,$4,$5,$6,$7,$8,$9,$2,$3,0*
0 Add four circle primitives for the rounded corners*
1,1,$1+$1,$2,$3*
1,1,$1+$1,$4,$5*
1,1,$1+$1,$6,$7*
1,1,$1+$1,$8,$9*
0 Add four rect primitives between the rounded corners*
20,1,$1+$1,$2,$3,$4,$5,0*
20,1,$1+$1,$4,$5,$6,$7,0*
20,1,$1+$1,$6,$7,$8,$9,0*
20,1,$1+$1,$8,$9,$2,$3,0*%
G04 Aperture macros list end*
%TA.AperFunction,ComponentPad*%
%ADD10O,2.000000X1.700000*%
%TD*%
%TA.AperFunction,ComponentPad*%
%ADD11RoundRect,0.250000X-0.750000X0.600000X-0.750000X-0.600000X0.750000X-0.600000X0.750000X0.600000X0*%
%TD*%
%TA.AperFunction,SMDPad,CuDef*%
%ADD12RoundRect,0.237500X-0.300000X-0.237500X0.300000X-0.237500X0.300000X0.237500X-0.300000X0.237500X0*%
%TD*%
%TA.AperFunction,SMDPad,CuDef*%
%ADD13RoundRect,0.237500X-0.237500X0.250000X-0.237500X-0.250000X0.237500X-0.250000X0.237500X0.250000X0*%
%TD*%
%TA.AperFunction,SMDPad,CuDef*%
%ADD14RoundRect,0.237500X0.300000X0.237500X-0.300000X0.237500X-0.300000X-0.237500X0.300000X-0.237500X0*%
%TD*%
%TA.AperFunction,SMDPad,CuDef*%
%ADD15RoundRect,0.250001X0.462499X0.624999X-0.462499X0.624999X-0.462499X-0.624999X0.462499X-0.624999X0*%
%TD*%
%TA.AperFunction,ComponentPad*%
%ADD16O,1.950000X1.700000*%
%TD*%
%TA.AperFunction,ComponentPad*%
%ADD17RoundRect,0.250000X0.725000X-0.600000X0.725000X0.600000X-0.725000X0.600000X-0.725000X-0.600000X0*%
%TD*%
%TA.AperFunction,ConnectorPad*%
%ADD18C,3.800000*%
%TD*%
%TA.AperFunction,ComponentPad*%
%ADD19C,2.600000*%
%TD*%
%TA.AperFunction,SMDPad,CuDef*%
%ADD20RoundRect,0.237500X0.237500X-0.250000X0.237500X0.250000X-0.237500X0.250000X-0.237500X-0.250000X0*%
%TD*%
%TA.AperFunction,SMDPad,CuDef*%
%ADD21RoundRect,0.237500X-0.237500X0.300000X-0.237500X-0.300000X0.237500X-0.300000X0.237500X0.300000X0*%
%TD*%
%TA.AperFunction,SMDPad,CuDef*%
%ADD22RoundRect,0.250000X0.450000X-0.325000X0.450000X0.325000X-0.450000X0.325000X-0.450000X-0.325000X0*%
%TD*%
%TA.AperFunction,ComponentPad*%
%ADD23C,0.600000*%
%TD*%
%TA.AperFunction,SMDPad,CuDef*%
%ADD24R,1.000000X2.650000*%
%TD*%
%TA.AperFunction,SMDPad,CuDef*%
%ADD25RoundRect,0.062500X-0.187500X-0.062500X0.187500X-0.062500X0.187500X0.062500X-0.187500X0.062500X0*%
%TD*%
%TA.AperFunction,SMDPad,CuDef*%
%ADD26RoundRect,0.237500X0.237500X-0.300000X0.237500X0.300000X-0.237500X0.300000X-0.237500X-0.300000X0*%
%TD*%
%TA.AperFunction,SMDPad,CuDef*%
%ADD27RoundRect,0.218750X-0.218750X-0.381250X0.218750X-0.381250X0.218750X0.381250X-0.218750X0.381250X0*%
%TD*%
%TA.AperFunction,SMDPad,CuDef*%
%ADD28RoundRect,0.237500X0.250000X0.237500X-0.250000X0.237500X-0.250000X-0.237500X0.250000X-0.237500X0*%
%TD*%
%TA.AperFunction,SMDPad,CuDef*%
%ADD29RoundRect,0.150000X-0.512500X-0.150000X0.512500X-0.150000X0.512500X0.150000X-0.512500X0.150000X0*%
%TD*%
%TA.AperFunction,SMDPad,CuDef*%
%ADD30RoundRect,0.250000X-0.325000X-0.450000X0.325000X-0.450000X0.325000X0.450000X-0.325000X0.450000X0*%
%TD*%
%TA.AperFunction,SMDPad,CuDef*%
%ADD31RoundRect,0.250001X-0.624999X0.462499X-0.624999X-0.462499X0.624999X-0.462499X0.624999X0.462499X0*%
%TD*%
%TA.AperFunction,SMDPad,CuDef*%
%ADD32RoundRect,0.237500X-0.250000X-0.237500X0.250000X-0.237500X0.250000X0.237500X-0.250000X0.237500X0*%
%TD*%
%TA.AperFunction,ComponentPad*%
%ADD33RoundRect,0.250000X0.750000X-0.600000X0.750000X0.600000X-0.750000X0.600000X-0.750000X-0.600000X0*%
%TD*%
%TA.AperFunction,ViaPad*%
%ADD34C,0.600000*%
%TD*%
%TA.AperFunction,Conductor*%
%ADD35C,0.350000*%
%TD*%
%TA.AperFunction,Conductor*%
%ADD36C,0.200000*%
%TD*%
%TA.AperFunction,Conductor*%
%ADD37C,0.250000*%
%TD*%
%TA.AperFunction,Conductor*%
%ADD38C,0.300000*%
%TD*%
%TA.AperFunction,Conductor*%
%ADD39C,0.500000*%
%TD*%
G04 APERTURE END LIST*
D10*
%TO.P,J1,2,Pin_2*%
%TO.N,AGND*%
X94133500Y-101737800D03*
D11*
%TO.P,J1,1,Pin_1*%
%TO.N,/RAWA_Unprotected*%
X94133500Y-99237800D03*
%TD*%
D12*
%TO.P,C5,2*%
%TO.N,AGND*%
X103327200Y-103454200D03*
%TO.P,C5,1*%
%TO.N,/-2.56V*%
X101602200Y-103454200D03*
%TD*%
D13*
%TO.P,RLd,2*%
%TO.N,Net-(D1-A)*%
X97105300Y-101775900D03*
%TO.P,RLd,1*%
%TO.N,RAW_A*%
X97105300Y-99950900D03*
%TD*%
D14*
%TO.P,C9,2*%
%TO.N,AGND*%
X111635200Y-103454200D03*
%TO.P,C9,1*%
%TO.N,/AVSS*%
X113360200Y-103454200D03*
%TD*%
D15*
%TO.P,F1,2*%
%TO.N,/RAWA_Unprotected*%
X97345000Y-97917000D03*
%TO.P,F1,1*%
%TO.N,RAW_A*%
X100320000Y-97917000D03*
%TD*%
D14*
%TO.P,C3,2*%
%TO.N,AGND*%
X99645300Y-101803200D03*
%TO.P,C3,1*%
%TO.N,Net-(U1-CP)*%
X101370300Y-101803200D03*
%TD*%
D16*
%TO.P,J3,3,Pin_3*%
%TO.N,/AVDD*%
X122052900Y-97931600D03*
%TO.P,J3,2,Pin_2*%
%TO.N,/AVSS*%
X122052900Y-100431600D03*
D17*
%TO.P,J3,1,Pin_1*%
%TO.N,AGND*%
X122052900Y-102931600D03*
%TD*%
D18*
%TO.P,H3,1,1*%
%TO.N,AGND*%
X90018700Y-94335600D03*
D19*
X90018700Y-94335600D03*
%TD*%
D14*
%TO.P,C7,2*%
%TO.N,AGND*%
X111559000Y-100431600D03*
%TO.P,C7,1*%
%TO.N,/AVDD*%
X113284000Y-100431600D03*
%TD*%
D20*
%TO.P,R1,2*%
%TO.N,Net-(U1-FB+)*%
X108255900Y-96648900D03*
%TO.P,R1,1*%
%TO.N,/+2.52V*%
X108255900Y-98473900D03*
%TD*%
D18*
%TO.P,H4,1,1*%
%TO.N,AGND*%
X127356700Y-94462600D03*
D19*
X127356700Y-94462600D03*
%TD*%
D18*
%TO.P,H1,1,1*%
%TO.N,AGND*%
X127382100Y-106883200D03*
D19*
X127382100Y-106883200D03*
%TD*%
D21*
%TO.P,C2,2*%
%TO.N,Net-(U1-C-)*%
X106960500Y-101802100D03*
%TO.P,C2,1*%
%TO.N,Net-(U1-C+)*%
X106960500Y-100077100D03*
%TD*%
D22*
%TO.P,D1,2,A*%
%TO.N,Net-(D1-A)*%
X97283100Y-103800800D03*
%TO.P,D1,1,K*%
%TO.N,AGND*%
X97283100Y-105850800D03*
%TD*%
D21*
%TO.P,C4,2*%
%TO.N,/+2.52V*%
X106681100Y-98423900D03*
%TO.P,C4,1*%
%TO.N,AGND*%
X106681100Y-96698900D03*
%TD*%
D14*
%TO.P,C1,2*%
%TO.N,AGND*%
X99621000Y-99822000D03*
%TO.P,C1,1*%
%TO.N,RAW_A*%
X101346000Y-99822000D03*
%TD*%
D23*
%TO.P,U1,13,PAD*%
%TO.N,AGND*%
X104128050Y-101300600D03*
D24*
X104128050Y-100300600D03*
D23*
X104128050Y-100300600D03*
X104128050Y-99300600D03*
D25*
%TO.P,U1,12,EN+*%
%TO.N,RAW_A*%
X105078050Y-99050600D03*
%TO.P,U1,11,OUT+*%
%TO.N,/+2.52V*%
X105078050Y-99550600D03*
%TO.P,U1,10,C+*%
%TO.N,Net-(U1-C+)*%
X105078050Y-100050600D03*
%TO.P,U1,9,C-*%
%TO.N,Net-(U1-C-)*%
X105078050Y-100550600D03*
%TO.P,U1,8,EN-*%
%TO.N,RAW_A*%
X105078050Y-101050600D03*
%TO.P,U1,7,FB-*%
%TO.N,Net-(U1-FB-)*%
X105078050Y-101550600D03*
%TO.P,U1,6,OUT-*%
%TO.N,/-2.56V*%
X103178050Y-101550600D03*
%TO.P,U1,5,CP*%
%TO.N,Net-(U1-CP)*%
X103178050Y-101050600D03*
%TO.P,U1,4,GND*%
%TO.N,AGND*%
X103178050Y-100550600D03*
%TO.P,U1,3,VIN*%
%TO.N,RAW_A*%
X103178050Y-100050600D03*
%TO.P,U1,2,FB+*%
%TO.N,Net-(U1-FB+)*%
X103178050Y-99550600D03*
%TO.P,U1,1,PGOOD*%
%TO.N,AGND*%
X103178050Y-99050600D03*
%TD*%
D21*
%TO.P,C6,2*%
%TO.N,AGND*%
X109856100Y-100379700D03*
%TO.P,C6,1*%
%TO.N,/+2.52V*%
X109856100Y-98654700D03*
%TD*%
D26*
%TO.P,C8,2*%
%TO.N,AGND*%
X109906900Y-103506100D03*
%TO.P,C8,1*%
%TO.N,/-2.56V*%
X109906900Y-105231100D03*
%TD*%
D18*
%TO.P,H2,1,1*%
%TO.N,AGND*%
X90018700Y-107061000D03*
D19*
X90018700Y-107061000D03*
%TD*%
D27*
%TO.P,L1,2,2*%
%TO.N,/AVDD*%
X113560200Y-98653600D03*
%TO.P,L1,1,1*%
%TO.N,/+2.52V*%
X111435200Y-98653600D03*
%TD*%
D28*
%TO.P,R4,2*%
%TO.N,AGND*%
X104981200Y-103454200D03*
%TO.P,R4,1*%
%TO.N,Net-(U1-FB-)*%
X106806200Y-103454200D03*
%TD*%
D13*
%TO.P,R2,2*%
%TO.N,AGND*%
X104877700Y-97686500D03*
%TO.P,R2,1*%
%TO.N,Net-(U1-FB+)*%
X104877700Y-95861500D03*
%TD*%
D16*
%TO.P,J2,3,Pin_3*%
%TO.N,/AVDD*%
X117074500Y-97931600D03*
%TO.P,J2,2,Pin_2*%
%TO.N,/AVSS*%
X117074500Y-100431600D03*
D17*
%TO.P,J2,1,Pin_1*%
%TO.N,AGND*%
X117074500Y-102931600D03*
%TD*%
D13*
%TO.P,R3,2*%
%TO.N,/-2.56V*%
X108332100Y-105281100D03*
%TO.P,R3,1*%
%TO.N,Net-(U1-FB-)*%
X108332100Y-103456100D03*
%TD*%
D27*
%TO.P,L2,2,2*%
%TO.N,/AVSS*%
X113661800Y-105206800D03*
%TO.P,L2,1,1*%
%TO.N,/-2.56V*%
X111536800Y-105206800D03*
%TD*%
D29*
%TO.P,U2,5,OUT*%
%TO.N,Net-(U2-OUT)*%
X150874118Y-97732204D03*
%TO.P,U2,4,NC*%
%TO.N,unconnected-(U2-NC-Pad4)*%
X150874118Y-99632204D03*
%TO.P,U2,3,EN*%
%TO.N,RAW_D*%
X148599118Y-99632204D03*
%TO.P,U2,2,GND*%
%TO.N,DGND*%
X148599118Y-98682204D03*
%TO.P,U2,1,IN*%
%TO.N,RAW_D*%
X148599118Y-97732204D03*
%TD*%
D18*
%TO.P,H8,1,1*%
%TO.N,DGND*%
X136486668Y-107004304D03*
D19*
X136486668Y-107004304D03*
%TD*%
D18*
%TO.P,H7,1,1*%
%TO.N,DGND*%
X136376218Y-94537158D03*
D19*
X136376218Y-94537158D03*
%TD*%
D14*
%TO.P,C10,2*%
%TO.N,DGND*%
X144759318Y-97402004D03*
%TO.P,C10,1*%
%TO.N,RAW_D*%
X146484318Y-97402004D03*
%TD*%
D30*
%TO.P,D2,2,A*%
%TO.N,Net-(D2-A)*%
X156857618Y-100221404D03*
%TO.P,D2,1,K*%
%TO.N,DGND*%
X154807618Y-100221404D03*
%TD*%
D27*
%TO.P,L3,2,2*%
%TO.N,/3.3V*%
X156818918Y-96487604D03*
%TO.P,L3,1,1*%
%TO.N,Net-(U2-OUT)*%
X154693918Y-96487604D03*
%TD*%
D31*
%TO.P,F2,2*%
%TO.N,/RAWD_Unprotected*%
X146079018Y-102089904D03*
%TO.P,F2,1*%
%TO.N,RAW_D*%
X146079018Y-99114904D03*
%TD*%
D32*
%TO.P,RLd,2*%
%TO.N,Net-(D2-A)*%
X156668918Y-98316404D03*
%TO.P,RLd,1*%
%TO.N,/3.3V*%
X154843918Y-98316404D03*
%TD*%
D18*
%TO.P,H5,1,1*%
%TO.N,DGND*%
X164849618Y-107059358D03*
D19*
X164849618Y-107059358D03*
%TD*%
D29*
%TO.P,U3,5,OUT*%
%TO.N,Net-(U2-OUT)*%
X150874118Y-101176404D03*
%TO.P,U3,4,NC*%
%TO.N,unconnected-(U3-NC-Pad4)*%
X150874118Y-103076404D03*
%TO.P,U3,3,EN*%
%TO.N,RAW_D*%
X148599118Y-103076404D03*
%TO.P,U3,2,GND*%
%TO.N,DGND*%
X148599118Y-102126404D03*
%TO.P,U3,1,IN*%
%TO.N,RAW_D*%
X148599118Y-101176404D03*
%TD*%
D18*
%TO.P,H6,1,1*%
%TO.N,DGND*%
X164849618Y-94511758D03*
D19*
X164849618Y-94511758D03*
%TD*%
D12*
%TO.P,C11,2*%
%TO.N,DGND*%
X156872918Y-102202604D03*
%TO.P,C11,1*%
%TO.N,Net-(U2-OUT)*%
X155147918Y-102202604D03*
%TD*%
D14*
%TO.P,C12,2*%
%TO.N,DGND*%
X155147918Y-103980604D03*
%TO.P,C12,1*%
%TO.N,/3.3V*%
X156872918Y-103980604D03*
%TD*%
D10*
%TO.P,J4,2,Pin_2*%
%TO.N,DGND*%
X141735618Y-102086404D03*
D11*
%TO.P,J4,1,Pin_1*%
%TO.N,/RAWD_Unprotected*%
X141735618Y-99586404D03*
%TD*%
D10*
%TO.P,J5,2,Pin_2*%
%TO.N,DGND*%
X159901418Y-99530204D03*
D33*
%TO.P,J5,1,Pin_1*%
%TO.N,/3.3V*%
X159901418Y-102030204D03*
%TD*%
D34*
%TO.N,AGND*%
X98349900Y-99822000D03*
X102347713Y-100731503D03*
X113285100Y-96520000D03*
X101397900Y-100797000D03*
X108179700Y-95529400D03*
X103683900Y-104495600D03*
X111559000Y-101497300D03*
X114682100Y-97231200D03*
X99467500Y-104724200D03*
X113564500Y-106426000D03*
X114707500Y-101142800D03*
X106173100Y-95097600D03*
X114707500Y-99949000D03*
X104877700Y-94691200D03*
X114656700Y-103428800D03*
X113285100Y-97409000D03*
X108103500Y-102311200D03*
X109053460Y-106426000D03*
X102464700Y-95199200D03*
X100712100Y-104521000D03*
X111913500Y-96494600D03*
X99365900Y-100761800D03*
X111634100Y-102311200D03*
X108078100Y-99644200D03*
X102594120Y-96977200D03*
X98349900Y-100761800D03*
X100991500Y-96418400D03*
X102617100Y-97790000D03*
X109322700Y-97409000D03*
X99162700Y-103835200D03*
X114631300Y-106400600D03*
X100026300Y-96494600D03*
X113335900Y-102311200D03*
X110084700Y-102311200D03*
X109043300Y-101498400D03*
X107316100Y-95097600D03*
X114656700Y-104952800D03*
X109043300Y-102311200D03*
X114707500Y-98780600D03*
X100407300Y-103835200D03*
X111913500Y-97409000D03*
X106858900Y-104495600D03*
X102607814Y-98644314D03*
X97206900Y-96469200D03*
X114682100Y-96088200D03*
X108103500Y-101041200D03*
X110567300Y-97409000D03*
X113335900Y-101473000D03*
X101626500Y-104546400D03*
X101702700Y-95910400D03*
X100356500Y-102920800D03*
X100381900Y-100787200D03*
X109322700Y-96494600D03*
X107925700Y-106426000D03*
X110586100Y-96520000D03*
X100407300Y-105359200D03*
X103582300Y-95158800D03*
X104699900Y-104495600D03*
X108865500Y-100380800D03*
X111308980Y-106426000D03*
X106757300Y-105892600D03*
%TO.N,RAW_A*%
X105766700Y-105994200D03*
%TO.N,AGND*%
X110181220Y-106426000D03*
X101626500Y-105359200D03*
%TO.N,RAW_A*%
X105781958Y-101356142D03*
%TO.N,AGND*%
X112436740Y-106426000D03*
X99162700Y-102920800D03*
%TO.N,RAW_A*%
X105568252Y-98582152D03*
%TO.N,AGND*%
X97283100Y-105850800D03*
%TO.N,DGND*%
X152073418Y-102990004D03*
X152073418Y-96086558D03*
X162131818Y-105453804D03*
X152022618Y-104133004D03*
X153013218Y-103040804D03*
X149736618Y-96894004D03*
X145418618Y-96086558D03*
X160963418Y-96055804D03*
X144351818Y-99688004D03*
X152022618Y-105123604D03*
X152073418Y-96894004D03*
X153013218Y-102066800D03*
X152048018Y-101212004D03*
X150955818Y-105123604D03*
X150854218Y-96894004D03*
X148466618Y-104133004D03*
X153013218Y-104149600D03*
X150854218Y-96086558D03*
X148466618Y-105123604D03*
X149736618Y-105123604D03*
X147577618Y-96894004D03*
X153013218Y-105140200D03*
X159388618Y-105453804D03*
X144402618Y-98672004D03*
X149736618Y-96086558D03*
X144351818Y-100932604D03*
X144275618Y-96086558D03*
X146688618Y-103396404D03*
X149838218Y-102075604D03*
X148517418Y-96086558D03*
X155299218Y-105199804D03*
X156721618Y-105199804D03*
X152048018Y-102075604D03*
X162309618Y-96055804D03*
X158144018Y-96055804D03*
X149863618Y-98646604D03*
X146536218Y-96086558D03*
X156872918Y-102202604D03*
X147323618Y-105174404D03*
X153800618Y-104006004D03*
X150955818Y-104133004D03*
X159566418Y-96055804D03*
X150981218Y-102050204D03*
X149711218Y-100424604D03*
X150854218Y-98646604D03*
X147577618Y-96086558D03*
X148517418Y-96894004D03*
X145494818Y-103421804D03*
X144430099Y-102839904D03*
X152413249Y-97925773D03*
X149736618Y-104133004D03*
X160785618Y-105453804D03*
X154807618Y-100221404D03*
X153685460Y-96435400D03*
X147349018Y-104133004D03*
X152606818Y-100551604D03*
X157966218Y-105453804D03*
X153013218Y-97071804D03*
%TD*%
D35*
%TO.N,/AVSS*%
X116408200Y-100406200D02*
X121976700Y-100406200D01*
X113437500Y-103531500D02*
X113437500Y-104982500D01*
%TO.N,/AVDD*%
X113560200Y-98653600D02*
X113560200Y-100155400D01*
%TO.N,/AVSS*%
X113437500Y-104982500D02*
X113661800Y-105206800D01*
%TO.N,/AVDD*%
X113560200Y-98653600D02*
X114307600Y-97906200D01*
D36*
%TO.N,AGND*%
X110084700Y-102362000D02*
X110084700Y-103328300D01*
D37*
%TO.N,RAW_A*%
X105078050Y-101050600D02*
X105476416Y-101050600D01*
%TO.N,AGND*%
X102987650Y-99050600D02*
X103178050Y-99050600D01*
X103014100Y-99050600D02*
X103178050Y-99050600D01*
D35*
%TO.N,/AVDD*%
X113560200Y-100155400D02*
X113284000Y-100431600D01*
%TO.N,AGND*%
X109855000Y-100380800D02*
X109856100Y-100379700D01*
%TO.N,/AVSS*%
X113361300Y-103454200D02*
X113360200Y-103454200D01*
%TO.N,AGND*%
X111559000Y-101497300D02*
X111559000Y-100431600D01*
D36*
X110084700Y-103328300D02*
X109906900Y-103506100D01*
D35*
%TO.N,/AVSS*%
X113360200Y-103454200D02*
X116408200Y-100406200D01*
D37*
%TO.N,AGND*%
X102607814Y-98644314D02*
X103014100Y-99050600D01*
D35*
X108865500Y-100380800D02*
X109855000Y-100380800D01*
D36*
X111634100Y-102412800D02*
X111634100Y-103453100D01*
D35*
X111634100Y-103453100D02*
X111635200Y-103454200D01*
%TO.N,/AVSS*%
X113360200Y-103454200D02*
X113437500Y-103531500D01*
%TO.N,AGND*%
X99468600Y-101625400D02*
X99621000Y-101473000D01*
%TO.N,/AVDD*%
X114307600Y-97906200D02*
X121976700Y-97906200D01*
D38*
%TO.N,RAW_A*%
X98438800Y-104711500D02*
X99772300Y-106045000D01*
X97105300Y-100449554D02*
X98438800Y-101783054D01*
X100320000Y-97917000D02*
X99289370Y-97917000D01*
X98438800Y-101783054D02*
X98438800Y-104711500D01*
X99289370Y-97917000D02*
X97460900Y-99745470D01*
X99772300Y-106045000D02*
X105715900Y-106045000D01*
X101296300Y-99695000D02*
X101296300Y-99848500D01*
X105715900Y-106045000D02*
X105766700Y-105994200D01*
X97105300Y-99950900D02*
X97105300Y-100449554D01*
X100320000Y-98718700D02*
X101296300Y-99695000D01*
X100320000Y-97917000D02*
X100320000Y-98718700D01*
D37*
X105546498Y-98582152D02*
X105078050Y-99050600D01*
X105476416Y-101050600D02*
X105781958Y-101356142D01*
X103178050Y-100050600D02*
X101600000Y-100050600D01*
X101600000Y-100050600D02*
X101447600Y-99898200D01*
X105568252Y-98582152D02*
X105546498Y-98582152D01*
D35*
%TO.N,/-2.56V*%
X103178050Y-101550600D02*
X103178050Y-101877250D01*
D37*
%TO.N,Net-(U1-C-)*%
X105860300Y-100550600D02*
X105078050Y-100550600D01*
D35*
%TO.N,/-2.56V*%
X108242200Y-105191200D02*
X108332100Y-105281100D01*
D37*
%TO.N,Net-(U1-CP)*%
X103178050Y-101050600D02*
X102912500Y-101050600D01*
D35*
%TO.N,/-2.56V*%
X103178050Y-101877250D02*
X101602200Y-103453100D01*
X109931200Y-105206800D02*
X109906900Y-105231100D01*
%TO.N,/+2.52V*%
X108205900Y-98423900D02*
X108255900Y-98473900D01*
X106681100Y-98423900D02*
X108205900Y-98423900D01*
D37*
%TO.N,Net-(U1-CP)*%
X102912500Y-101050600D02*
X102185300Y-101777800D01*
%TO.N,Net-(U1-C-)*%
X106935100Y-101625400D02*
X105860300Y-100550600D01*
X106935100Y-101852900D02*
X106935100Y-101625400D01*
%TO.N,Net-(U1-C+)*%
X106935100Y-100127900D02*
X106857800Y-100050600D01*
D35*
%TO.N,/+2.52V*%
X111255500Y-98473900D02*
X111435200Y-98653600D01*
D37*
%TO.N,Net-(U1-CP)*%
X102185300Y-101777800D02*
X101396800Y-101777800D01*
%TO.N,Net-(U1-C+)*%
X106857800Y-100050600D02*
X105078050Y-100050600D01*
D35*
%TO.N,/+2.52V*%
X105554400Y-99550600D02*
X106681100Y-98423900D01*
X105078050Y-99550600D02*
X105554400Y-99550600D01*
D37*
X106402800Y-98500100D02*
X106782700Y-98500100D01*
D35*
%TO.N,/-2.56V*%
X101602200Y-103453100D02*
X101602200Y-103454200D01*
%TO.N,/+2.52V*%
X108255900Y-98473900D02*
X111255500Y-98473900D01*
%TO.N,/-2.56V*%
X108332100Y-105281100D02*
X111462500Y-105281100D01*
X103339200Y-105191200D02*
X108242200Y-105191200D01*
X101602200Y-103454200D02*
X103339200Y-105191200D01*
D38*
%TO.N,Net-(U1-FB+)*%
X102769500Y-95808800D02*
X107192746Y-95808800D01*
X108332100Y-96725100D02*
X108130800Y-96725100D01*
X103178050Y-99550600D02*
X102453970Y-99550600D01*
X108130800Y-96725100D02*
X107290700Y-95885000D01*
X108109046Y-96725100D02*
X108332100Y-96725100D01*
X107192746Y-95808800D02*
X107270546Y-95886600D01*
X101731437Y-96846863D02*
X102769500Y-95808800D01*
X101731437Y-98828067D02*
X101731437Y-96846863D01*
D37*
%TO.N,Net-(U1-FB-)*%
X108332100Y-103456100D02*
X106808100Y-103456100D01*
D38*
%TO.N,Net-(U1-FB+)*%
X102453970Y-99550600D02*
X101731437Y-98828067D01*
D37*
%TO.N,Net-(U1-FB-)*%
X105078050Y-101550600D02*
X106806200Y-103278750D01*
X106808100Y-103456100D02*
X106806200Y-103454200D01*
X106806200Y-103278750D02*
X106806200Y-103454200D01*
D38*
%TO.N,/RAWA_Unprotected*%
X95454300Y-97917000D02*
X94133500Y-99237800D01*
%TO.N,Net-(D1-A)*%
X97105300Y-101775900D02*
X97105300Y-103623000D01*
X97105300Y-103623000D02*
X97283100Y-103800800D01*
%TO.N,/RAWA_Unprotected*%
X97345000Y-97917000D02*
X95454300Y-97917000D01*
%TO.N,RAW_D*%
X147425218Y-100754804D02*
X147425218Y-102565003D01*
D39*
X147846818Y-101176404D02*
X148599118Y-101176404D01*
X146484318Y-98709604D02*
X146484318Y-97402004D01*
D38*
X148599118Y-99632204D02*
X147912818Y-99632204D01*
X147936619Y-103076404D02*
X148599118Y-103076404D01*
D39*
X148599118Y-97732204D02*
X147933218Y-97732204D01*
X147933218Y-97732204D02*
X146550518Y-99114904D01*
X146079018Y-99114904D02*
X146079018Y-99408604D01*
D38*
X147912818Y-99632204D02*
X147107718Y-100437304D01*
D39*
X147107718Y-100437304D02*
X147846818Y-101176404D01*
X146079018Y-99357804D02*
X146079018Y-99114904D01*
D38*
X147107718Y-100437304D02*
X147425218Y-100754804D01*
D39*
X146079018Y-99408604D02*
X147107718Y-100437304D01*
X146550518Y-99114904D02*
X146079018Y-99114904D01*
X146079018Y-99114904D02*
X146484318Y-98709604D01*
X148599118Y-101176404D02*
X148538118Y-101237404D01*
D38*
X147425218Y-102565003D02*
X147936619Y-103076404D01*
D39*
%TO.N,Net-(U2-OUT)*%
X154693918Y-96487604D02*
X153368818Y-97812704D01*
X153368818Y-100961004D02*
X154610418Y-102202604D01*
X153368818Y-97812704D02*
X153368818Y-99332404D01*
X153368818Y-99332404D02*
X153368818Y-100961004D01*
X150889818Y-101176404D02*
X150874118Y-101176404D01*
X154610418Y-102202604D02*
X155147918Y-102202604D01*
X153368818Y-99103804D02*
X152962418Y-99103804D01*
X151159018Y-97732204D02*
X152530618Y-99103804D01*
X150874118Y-101176404D02*
X150935118Y-101237404D01*
X152530618Y-99103804D02*
X153368818Y-99103804D01*
X150874118Y-97732204D02*
X151159018Y-97732204D01*
X152962418Y-99103804D02*
X150889818Y-101176404D01*
%TO.N,/3.3V*%
X156518418Y-96487604D02*
X154843918Y-98162104D01*
%TO.N,DGND*%
X149787418Y-102126404D02*
X149838218Y-102075604D01*
X148599118Y-102126404D02*
X149787418Y-102126404D01*
%TO.N,/3.3V*%
X154843918Y-98162104D02*
X154843918Y-98316404D01*
%TO.N,DGND*%
X149863618Y-98646604D02*
X149828018Y-98682204D01*
%TO.N,/3.3V*%
X157128018Y-96487604D02*
X158144018Y-97503604D01*
X158144018Y-100272804D02*
X159901418Y-102030204D01*
X158144018Y-97503604D02*
X158144018Y-100272804D01*
X156818918Y-96487604D02*
X156518418Y-96487604D01*
X156872918Y-103980604D02*
X157951018Y-103980604D01*
X156818918Y-96487604D02*
X157128018Y-96487604D01*
%TO.N,DGND*%
X153826018Y-103980604D02*
X153800618Y-104006004D01*
X141858518Y-102089904D02*
X141842018Y-102106404D01*
X155147918Y-103980604D02*
X155147918Y-103927604D01*
%TO.N,/3.3V*%
X157951018Y-103980604D02*
X159901418Y-102030204D01*
%TO.N,DGND*%
X144428018Y-97733304D02*
X144428018Y-98646604D01*
%TO.N,/RAWD_Unprotected*%
X141761018Y-99586404D02*
X141735618Y-99586404D01*
%TO.N,DGND*%
X144759318Y-97402004D02*
X144428018Y-97733304D01*
%TO.N,/RAWD_Unprotected*%
X144264518Y-102089904D02*
X141761018Y-99586404D01*
X146079018Y-102089904D02*
X144264518Y-102089904D01*
%TO.N,DGND*%
X144428018Y-98646604D02*
X144402618Y-98672004D01*
X149828018Y-98682204D02*
X148599118Y-98682204D01*
%TO.N,Net-(D2-A)*%
X156668918Y-98316404D02*
X156668918Y-100032704D01*
%TO.N,DGND*%
X155147918Y-103980604D02*
X153826018Y-103980604D01*
%TO.N,Net-(D2-A)*%
X156668918Y-100032704D02*
X156857618Y-100221404D01*
%TD*%
%TA.AperFunction,Conductor*%
%TO.N,AGND*%
G36*
X104136783Y-96228985D02*
G01*
X104182538Y-96281789D01*
X104185918Y-96289948D01*
X104187468Y-96294101D01*
X104207489Y-96347780D01*
X104241051Y-96392612D01*
X104291584Y-96460116D01*
X104381755Y-96527618D01*
X104387973Y-96532273D01*
X104403922Y-96544212D01*
X104496294Y-96578665D01*
X104535400Y-96593251D01*
X104593509Y-96599499D01*
X104593526Y-96599500D01*
X105161874Y-96599500D01*
X105161890Y-96599499D01*
X105219999Y-96593251D01*
X105351478Y-96544212D01*
X105463816Y-96460116D01*
X105547912Y-96347778D01*
X105569475Y-96289964D01*
X105611346Y-96234033D01*
X105676810Y-96209616D01*
X105685656Y-96209300D01*
X106995252Y-96209300D01*
X107010735Y-96213447D01*
X107024474Y-96212792D01*
X107057241Y-96225907D01*
X107061955Y-96228628D01*
X107087647Y-96248340D01*
X107435781Y-96596474D01*
X107469266Y-96657797D01*
X107472100Y-96684155D01*
X107472100Y-97680938D01*
X107452415Y-97747977D01*
X107399611Y-97793732D01*
X107330453Y-97803676D01*
X107273789Y-97780205D01*
X107267216Y-97775284D01*
X107214606Y-97735900D01*
X107154880Y-97691189D01*
X107154878Y-97691188D01*
X107127397Y-97680938D01*
X107023399Y-97642148D01*
X106965290Y-97635900D01*
X106965274Y-97635900D01*
X106396926Y-97635900D01*
X106396909Y-97635900D01*
X106338800Y-97642148D01*
X106207319Y-97691189D01*
X106094984Y-97775284D01*
X106010888Y-97887621D01*
X105965621Y-98008985D01*
X105923750Y-98064918D01*
X105858285Y-98089334D01*
X105790012Y-98074482D01*
X105787442Y-98073038D01*
X105780742Y-98069170D01*
X105780741Y-98069169D01*
X105764876Y-98064918D01*
X105640727Y-98031652D01*
X105495777Y-98031652D01*
X105371628Y-98064918D01*
X105355763Y-98069169D01*
X105230240Y-98141640D01*
X105230234Y-98141645D01*
X105127745Y-98244134D01*
X105127740Y-98244140D01*
X105055269Y-98369663D01*
X105055268Y-98369667D01*
X105017752Y-98509677D01*
X105017752Y-98509679D01*
X105017752Y-98528499D01*
X104998067Y-98595538D01*
X104981433Y-98616180D01*
X104777577Y-98820035D01*
X104777573Y-98820040D01*
X104728141Y-98905660D01*
X104728140Y-98905661D01*
X104713532Y-98960178D01*
X104702550Y-99001164D01*
X104702550Y-99100036D01*
X104710690Y-99130415D01*
X104728140Y-99195538D01*
X104731251Y-99203047D01*
X104728009Y-99204389D01*
X104740593Y-99256787D01*
X104724135Y-99312598D01*
X104681547Y-99386362D01*
X104681547Y-99386363D01*
X104652550Y-99494582D01*
X104652550Y-99606618D01*
X104678962Y-99705187D01*
X104681547Y-99714836D01*
X104681548Y-99714839D01*
X104724134Y-99788600D01*
X104740607Y-99856500D01*
X104728733Y-99897109D01*
X104731251Y-99898152D01*
X104728140Y-99905660D01*
X104728140Y-99905662D01*
X104702550Y-100001165D01*
X104702550Y-100100035D01*
X104728140Y-100195538D01*
X104728141Y-100195539D01*
X104728141Y-100195540D01*
X104753002Y-100238600D01*
X104769475Y-100306500D01*
X104753002Y-100362600D01*
X104728141Y-100405659D01*
X104728141Y-100405660D01*
X104728140Y-100405662D01*
X104702550Y-100501165D01*
X104702550Y-100600035D01*
X104728140Y-100695538D01*
X104728141Y-100695539D01*
X104728141Y-100695540D01*
X104753002Y-100738600D01*
X104769475Y-100806500D01*
X104753002Y-100862599D01*
X104748484Y-100870423D01*
X104728141Y-100905659D01*
X104728141Y-100905660D01*
X104728140Y-100905662D01*
X104702550Y-101001165D01*
X104702550Y-101100035D01*
X104728140Y-101195538D01*
X104728141Y-101195539D01*
X104728142Y-101195542D01*
X104753001Y-101238598D01*
X104769475Y-101306498D01*
X104753003Y-101362597D01*
X104728142Y-101405658D01*
X104728140Y-101405661D01*
X104722184Y-101427890D01*
X104702550Y-101501164D01*
X104702550Y-101600036D01*
X104711346Y-101632862D01*
X104728140Y-101695538D01*
X104728141Y-101695539D01*
X104777573Y-101781159D01*
X104777577Y-101781164D01*
X105541731Y-102545318D01*
X105575216Y-102606641D01*
X105578050Y-102632999D01*
X105578050Y-104017126D01*
X105558365Y-104084165D01*
X105505561Y-104129920D01*
X105455182Y-104141121D01*
X102966084Y-104163837D01*
X102898867Y-104144765D01*
X102877271Y-104127523D01*
X102612419Y-103862671D01*
X102578934Y-103801348D01*
X102576100Y-103774990D01*
X102576100Y-103132310D01*
X102595785Y-103065271D01*
X102612419Y-103044629D01*
X103050407Y-102606641D01*
X103518534Y-102138514D01*
X103574553Y-102041487D01*
X103603550Y-101933269D01*
X103603550Y-101821232D01*
X103603550Y-101494582D01*
X103574553Y-101386363D01*
X103531966Y-101312600D01*
X103515493Y-101244700D01*
X103527449Y-101204129D01*
X103524848Y-101203052D01*
X103527958Y-101195542D01*
X103527959Y-101195539D01*
X103527960Y-101195538D01*
X103553550Y-101100035D01*
X103553550Y-101001165D01*
X103527960Y-100905662D01*
X103478525Y-100820038D01*
X103408612Y-100750125D01*
X103322988Y-100700690D01*
X103227485Y-100675100D01*
X102961936Y-100675100D01*
X102863064Y-100675100D01*
X102857097Y-100676699D01*
X102767560Y-100700690D01*
X102767559Y-100700691D01*
X102681936Y-100750126D01*
X102576100Y-100855962D01*
X102576100Y-100426100D01*
X103227482Y-100426100D01*
X103227485Y-100426100D01*
X103322988Y-100400510D01*
X103408612Y-100351075D01*
X103478525Y-100281162D01*
X103527960Y-100195538D01*
X103553550Y-100100035D01*
X103553550Y-100001165D01*
X103527960Y-99905662D01*
X103517532Y-99887601D01*
X103501058Y-99819703D01*
X103517530Y-99763603D01*
X103551257Y-99705187D01*
X103578550Y-99603327D01*
X103578550Y-99497873D01*
X103551257Y-99396013D01*
X103498530Y-99304687D01*
X103423963Y-99230120D01*
X103332637Y-99177393D01*
X103230777Y-99150100D01*
X103230776Y-99150100D01*
X102700100Y-99150100D01*
X102633061Y-99130415D01*
X102587306Y-99077611D01*
X102576100Y-99026100D01*
X102576100Y-96619954D01*
X102595785Y-96552915D01*
X102612419Y-96532273D01*
X102899073Y-96245619D01*
X102960396Y-96212134D01*
X102986754Y-96209300D01*
X104069744Y-96209300D01*
X104136783Y-96228985D01*
G37*
%TD.AperFunction*%
%TD*%
%TA.AperFunction,Conductor*%
%TO.N,AGND*%
G36*
X100140818Y-99109967D02*
G01*
X100161592Y-99126685D01*
X100339595Y-99304687D01*
X100521681Y-99486773D01*
X100555166Y-99548096D01*
X100558000Y-99574454D01*
X100558000Y-100106190D01*
X100564248Y-100164299D01*
X100603354Y-100269144D01*
X100613288Y-100295778D01*
X100697384Y-100408116D01*
X100809722Y-100492212D01*
X100902094Y-100526665D01*
X100941200Y-100541251D01*
X100999309Y-100547499D01*
X100999326Y-100547500D01*
X101692674Y-100547500D01*
X101692690Y-100547499D01*
X101750799Y-100541251D01*
X101882278Y-100492212D01*
X101937553Y-100450832D01*
X102003017Y-100426416D01*
X102011864Y-100426100D01*
X102576100Y-100426100D01*
X102576100Y-100855962D01*
X102204042Y-101228020D01*
X102142719Y-101261505D01*
X102073027Y-101256521D01*
X102026704Y-101221843D01*
X102025190Y-101223358D01*
X102018918Y-101217087D01*
X102018916Y-101217084D01*
X101943885Y-101160916D01*
X101906580Y-101132989D01*
X101906578Y-101132988D01*
X101879944Y-101123054D01*
X101775099Y-101083948D01*
X101716990Y-101077700D01*
X101716974Y-101077700D01*
X101023626Y-101077700D01*
X101023609Y-101077700D01*
X100965500Y-101083948D01*
X100834019Y-101132989D01*
X100721684Y-101217084D01*
X100637589Y-101329419D01*
X100588548Y-101460900D01*
X100582300Y-101519009D01*
X100582300Y-102087390D01*
X100588548Y-102145499D01*
X100637589Y-102276980D01*
X100685881Y-102341489D01*
X100710298Y-102406953D01*
X100695447Y-102475226D01*
X100646042Y-102524632D01*
X100586614Y-102539800D01*
X98989071Y-102539800D01*
X98922032Y-102520115D01*
X98876277Y-102467311D01*
X98865077Y-102416978D01*
X98843683Y-100164299D01*
X98834687Y-99217012D01*
X98853734Y-99149789D01*
X98906101Y-99103535D01*
X98958514Y-99091835D01*
X100073759Y-99090371D01*
X100140818Y-99109967D01*
G37*
%TD.AperFunction*%
%TD*%
M02*
