M48
; DRILL file {KiCad 9.0.0} date 2025-04-24T22:59:00+0300
; FORMAT={-:-/ absolute / metric / decimal}
; #@! TF.CreationDate,2025-04-24T22:59:00+03:00
; #@! TF.GenerationSoftware,Kicad,Pcbnew,9.0.0
; #@! TF.FileFunction,Plated,1,2,PTH
FMAT,2
METRIC
; #@! TA.AperFunction,Plated,PTH,ViaDrill
T1C0.300
; #@! TA.AperFunction,Plated,PTH,ComponentDrill
T2C0.300
; #@! TA.AperFunction,Plated,PTH,ComponentDrill
T3C0.950
; #@! TA.AperFunction,Plated,PTH,ComponentDrill
T4C1.000
; #@! TA.AperFunction,Plated,PTH,ComponentDrill
T5C2.200
%
G90
G05
T1
X97.207Y-96.469
X97.283Y-105.851
X98.35Y-99.822
X98.35Y-100.762
X99.163Y-102.921
X99.163Y-103.835
X99.366Y-100.762
X99.468Y-104.724
X100.026Y-96.495
X100.356Y-102.921
X100.382Y-100.787
X100.407Y-103.835
X100.407Y-105.359
X100.712Y-104.521
X100.992Y-96.418
X101.398Y-100.797
X101.626Y-104.546
X101.626Y-105.359
X101.703Y-95.91
X102.348Y-100.732
X102.465Y-95.199
X102.594Y-96.977
X102.608Y-98.644
X102.617Y-97.79
X103.582Y-95.159
X103.684Y-104.496
X104.7Y-104.496
X104.878Y-94.691
X105.568Y-98.582
X105.767Y-105.994
X105.782Y-101.356
X106.173Y-95.098
X106.757Y-105.893
X106.859Y-104.496
X107.316Y-95.098
X107.926Y-106.426
X108.078Y-99.644
X108.103Y-101.041
X108.103Y-102.311
X108.18Y-95.529
X108.865Y-100.381
X109.043Y-101.498
X109.043Y-102.311
X109.053Y-106.426
X109.323Y-96.495
X109.323Y-97.409
X110.085Y-102.311
X110.181Y-106.426
X110.567Y-97.409
X110.586Y-96.52
X111.309Y-106.426
X111.559Y-101.497
X111.634Y-102.311
X111.913Y-96.495
X111.913Y-97.409
X112.437Y-106.426
X113.285Y-96.52
X113.285Y-97.409
X113.336Y-101.473
X113.336Y-102.311
X113.564Y-106.426
X114.631Y-106.401
X114.657Y-103.429
X114.657Y-104.953
X114.682Y-96.088
X114.682Y-97.231
X114.707Y-98.781
X114.707Y-99.949
X114.707Y-101.143
X144.276Y-96.087
X144.352Y-99.688
X144.352Y-100.933
X144.403Y-98.672
X144.43Y-102.84
X145.419Y-96.087
X145.495Y-103.422
X146.536Y-96.087
X146.689Y-103.396
X147.324Y-105.174
X147.349Y-104.133
X147.578Y-96.087
X147.578Y-96.894
X148.467Y-104.133
X148.467Y-105.124
X148.517Y-96.087
X148.517Y-96.894
X149.711Y-100.425
X149.737Y-96.087
X149.737Y-96.894
X149.737Y-104.133
X149.737Y-105.124
X149.838Y-102.076
X149.864Y-98.647
X150.854Y-96.087
X150.854Y-96.894
X150.854Y-98.647
X150.956Y-104.133
X150.956Y-105.124
X150.981Y-102.05
X152.023Y-104.133
X152.023Y-105.124
X152.048Y-101.212
X152.048Y-102.076
X152.073Y-96.087
X152.073Y-96.894
X152.073Y-102.99
X152.413Y-97.926
X152.607Y-100.552
X153.013Y-97.072
X153.013Y-102.067
X153.013Y-103.041
X153.013Y-104.15
X153.013Y-105.14
X153.685Y-96.435
X153.801Y-104.006
X154.808Y-100.221
X155.299Y-105.2
X156.722Y-105.2
X156.873Y-102.203
X157.966Y-105.454
X158.144Y-96.056
X159.389Y-105.454
X159.566Y-96.056
X160.786Y-105.454
X160.963Y-96.056
X162.132Y-105.454
X162.31Y-96.056
T2
X104.128Y-99.301
X104.128Y-100.301
X104.128Y-101.301
T3
X117.075Y-97.932
X117.075Y-100.432
X117.075Y-102.932
X122.053Y-97.932
X122.053Y-100.432
X122.053Y-102.932
T4
X94.133Y-99.238
X94.133Y-101.738
X141.736Y-99.586
X141.736Y-102.086
X159.901Y-99.53
X159.901Y-102.03
T5
X90.019Y-94.336
X90.019Y-107.061
X127.357Y-94.463
X127.382Y-106.883
X136.376Y-94.537
X136.487Y-107.004
X164.85Y-94.512
X164.85Y-107.059
M30
