%TF.GenerationSoftware,KiCad,Pcbnew,9.0.0*%
%TF.CreationDate,2025-04-24T22:58:58+03:00*%
%TF.ProjectId,PSU,5053552e-6b69-4636-9164-5f7063625858,rev?*%
%TF.SameCoordinates,Original*%
%TF.FileFunction,Copper,L2,Bot*%
%TF.FilePolarity,Positive*%
%FSLAX46Y46*%
G04 Gerber Fmt 4.6, Leading zero omitted, Abs format (unit mm)*
G04 Created by KiCad (PCBNEW 9.0.0) date 2025-04-24 22:58:58*
%MOMM*%
%LPD*%
G01*
G04 APERTURE LIST*
G04 Aperture macros list*
%AMRoundRect*
0 Rectangle with rounded corners*
0 $1 Rounding radius*
0 $2 $3 $4 $5 $6 $7 $8 $9 X,Y pos of 4 corners*
0 Add a 4 corners polygon primitive as box body*
4,1,4,$2,$3,$4,$5,$6,$7,$8,$9,$2,$3,0*
0 Add four circle primitives for the rounded corners*
1,1,$1+$1,$2,$3*
1,1,$1+$1,$4,$5*
1,1,$1+$1,$6,$7*
1,1,$1+$1,$8,$9*
0 Add four rect primitives between the rounded corners*
20,1,$1+$1,$2,$3,$4,$5,0*
20,1,$1+$1,$4,$5,$6,$7,0*
20,1,$1+$1,$6,$7,$8,$9,0*
20,1,$1+$1,$8,$9,$2,$3,0*%
G04 Aperture macros list end*
%TA.AperFunction,ComponentPad*%
%ADD10O,2.000000X1.700000*%
%TD*%
%TA.AperFunction,ComponentPad*%
%ADD11RoundRect,0.250000X-0.750000X0.600000X-0.750000X-0.600000X0.750000X-0.600000X0.750000X0.600000X0*%
%TD*%
%TA.AperFunction,ComponentPad*%
%ADD12O,1.950000X1.700000*%
%TD*%
%TA.AperFunction,ComponentPad*%
%ADD13RoundRect,0.250000X0.725000X-0.600000X0.725000X0.600000X-0.725000X0.600000X-0.725000X-0.600000X0*%
%TD*%
%TA.AperFunction,ConnectorPad*%
%ADD14C,3.800000*%
%TD*%
%TA.AperFunction,ComponentPad*%
%ADD15C,2.600000*%
%TD*%
%TA.AperFunction,ComponentPad*%
%ADD16C,0.600000*%
%TD*%
%TA.AperFunction,SMDPad,CuDef*%
%ADD17R,1.000000X2.650000*%
%TD*%
%TA.AperFunction,ComponentPad*%
%ADD18RoundRect,0.250000X0.750000X-0.600000X0.750000X0.600000X-0.750000X0.600000X-0.750000X-0.600000X0*%
%TD*%
%TA.AperFunction,ViaPad*%
%ADD19C,0.600000*%
%TD*%
%TA.AperFunction,Conductor*%
%ADD20C,0.250000*%
%TD*%
%TA.AperFunction,Conductor*%
%ADD21C,0.350000*%
%TD*%
G04 APERTURE END LIST*
D10*
%TO.P,J1,2,Pin_2*%
%TO.N,AGND*%
X94133500Y-101737800D03*
D11*
%TO.P,J1,1,Pin_1*%
%TO.N,/RAWA_Unprotected*%
X94133500Y-99237800D03*
%TD*%
D12*
%TO.P,J3,3,Pin_3*%
%TO.N,/AVDD*%
X122052900Y-97931600D03*
%TO.P,J3,2,Pin_2*%
%TO.N,/AVSS*%
X122052900Y-100431600D03*
D13*
%TO.P,J3,1,Pin_1*%
%TO.N,AGND*%
X122052900Y-102931600D03*
%TD*%
D14*
%TO.P,H3,1,1*%
%TO.N,AGND*%
X90018700Y-94335600D03*
D15*
X90018700Y-94335600D03*
%TD*%
D14*
%TO.P,H4,1,1*%
%TO.N,AGND*%
X127356700Y-94462600D03*
D15*
X127356700Y-94462600D03*
%TD*%
D14*
%TO.P,H1,1,1*%
%TO.N,AGND*%
X127382100Y-106883200D03*
D15*
X127382100Y-106883200D03*
%TD*%
D16*
%TO.P,U1,13,PAD*%
%TO.N,AGND*%
X104128050Y-101300600D03*
D17*
X104128050Y-100300600D03*
D16*
X104128050Y-100300600D03*
X104128050Y-99300600D03*
%TD*%
D14*
%TO.P,H2,1,1*%
%TO.N,AGND*%
X90018700Y-107061000D03*
D15*
X90018700Y-107061000D03*
%TD*%
D12*
%TO.P,J2,3,Pin_3*%
%TO.N,/AVDD*%
X117074500Y-97931600D03*
%TO.P,J2,2,Pin_2*%
%TO.N,/AVSS*%
X117074500Y-100431600D03*
D13*
%TO.P,J2,1,Pin_1*%
%TO.N,AGND*%
X117074500Y-102931600D03*
%TD*%
D14*
%TO.P,H8,1,1*%
%TO.N,DGND*%
X136486668Y-107004304D03*
D15*
X136486668Y-107004304D03*
%TD*%
D14*
%TO.P,H7,1,1*%
%TO.N,DGND*%
X136376218Y-94537158D03*
D15*
X136376218Y-94537158D03*
%TD*%
D14*
%TO.P,H5,1,1*%
%TO.N,DGND*%
X164849618Y-107059358D03*
D15*
X164849618Y-107059358D03*
%TD*%
D14*
%TO.P,H6,1,1*%
%TO.N,DGND*%
X164849618Y-94511758D03*
D15*
X164849618Y-94511758D03*
%TD*%
D10*
%TO.P,J4,2,Pin_2*%
%TO.N,DGND*%
X141735618Y-102086404D03*
D11*
%TO.P,J4,1,Pin_1*%
%TO.N,/RAWD_Unprotected*%
X141735618Y-99586404D03*
%TD*%
D10*
%TO.P,J5,2,Pin_2*%
%TO.N,DGND*%
X159901418Y-99530204D03*
D18*
%TO.P,J5,1,Pin_1*%
%TO.N,/3.3V*%
X159901418Y-102030204D03*
%TD*%
D19*
%TO.N,AGND*%
X98349900Y-99822000D03*
X102347713Y-100731503D03*
X113285100Y-96520000D03*
X101397900Y-100797000D03*
X108179700Y-95529400D03*
X103683900Y-104495600D03*
X111559000Y-101497300D03*
X114682100Y-97231200D03*
X99467500Y-104724200D03*
X113564500Y-106426000D03*
X114707500Y-101142800D03*
X106173100Y-95097600D03*
X114707500Y-99949000D03*
X104877700Y-94691200D03*
X114656700Y-103428800D03*
X113285100Y-97409000D03*
X108103500Y-102311200D03*
X109053460Y-106426000D03*
X102464700Y-95199200D03*
X100712100Y-104521000D03*
X111913500Y-96494600D03*
X99365900Y-100761800D03*
X111634100Y-102311200D03*
X108078100Y-99644200D03*
X102594120Y-96977200D03*
X98349900Y-100761800D03*
X100991500Y-96418400D03*
X102617100Y-97790000D03*
X109322700Y-97409000D03*
X99162700Y-103835200D03*
X114631300Y-106400600D03*
X100026300Y-96494600D03*
X113335900Y-102311200D03*
X110084700Y-102311200D03*
X109043300Y-101498400D03*
X107316100Y-95097600D03*
X114656700Y-104952800D03*
X109043300Y-102311200D03*
X114707500Y-98780600D03*
X100407300Y-103835200D03*
X111913500Y-97409000D03*
X106858900Y-104495600D03*
X102607814Y-98644314D03*
X97206900Y-96469200D03*
X114682100Y-96088200D03*
X108103500Y-101041200D03*
X110567300Y-97409000D03*
X113335900Y-101473000D03*
X101626500Y-104546400D03*
X101702700Y-95910400D03*
X100356500Y-102920800D03*
X100381900Y-100787200D03*
X109322700Y-96494600D03*
X107925700Y-106426000D03*
X110586100Y-96520000D03*
X100407300Y-105359200D03*
X103582300Y-95158800D03*
X104699900Y-104495600D03*
X108865500Y-100380800D03*
X111308980Y-106426000D03*
X106757300Y-105892600D03*
%TO.N,RAW_A*%
X105766700Y-105994200D03*
%TO.N,AGND*%
X110181220Y-106426000D03*
X101626500Y-105359200D03*
%TO.N,RAW_A*%
X105781958Y-101356142D03*
%TO.N,AGND*%
X112436740Y-106426000D03*
X99162700Y-102920800D03*
%TO.N,RAW_A*%
X105568252Y-98582152D03*
%TO.N,AGND*%
X97283100Y-105850800D03*
%TO.N,DGND*%
X152073418Y-102990004D03*
X152073418Y-96086558D03*
X162131818Y-105453804D03*
X152022618Y-104133004D03*
X153013218Y-103040804D03*
X149736618Y-96894004D03*
X145418618Y-96086558D03*
X160963418Y-96055804D03*
X144351818Y-99688004D03*
X152022618Y-105123604D03*
X152073418Y-96894004D03*
X153013218Y-102066800D03*
X152048018Y-101212004D03*
X150955818Y-105123604D03*
X150854218Y-96894004D03*
X148466618Y-104133004D03*
X153013218Y-104149600D03*
X150854218Y-96086558D03*
X148466618Y-105123604D03*
X149736618Y-105123604D03*
X147577618Y-96894004D03*
X153013218Y-105140200D03*
X159388618Y-105453804D03*
X144402618Y-98672004D03*
X149736618Y-96086558D03*
X144351818Y-100932604D03*
X144275618Y-96086558D03*
X146688618Y-103396404D03*
X149838218Y-102075604D03*
X148517418Y-96086558D03*
X155299218Y-105199804D03*
X156721618Y-105199804D03*
X152048018Y-102075604D03*
X162309618Y-96055804D03*
X158144018Y-96055804D03*
X149863618Y-98646604D03*
X146536218Y-96086558D03*
X156872918Y-102202604D03*
X147323618Y-105174404D03*
X153800618Y-104006004D03*
X150955818Y-104133004D03*
X159566418Y-96055804D03*
X150981218Y-102050204D03*
X149711218Y-100424604D03*
X150854218Y-98646604D03*
X147577618Y-96086558D03*
X148517418Y-96894004D03*
X145494818Y-103421804D03*
X144430099Y-102839904D03*
X152413249Y-97925773D03*
X149736618Y-104133004D03*
X160785618Y-105453804D03*
X154807618Y-100221404D03*
X153685460Y-96435400D03*
X147349018Y-104133004D03*
X152606818Y-100551604D03*
X157966218Y-105453804D03*
X153013218Y-97071804D03*
%TD*%
D20*
%TO.N,RAW_A*%
X105781958Y-101356142D02*
X105781958Y-98795858D01*
D21*
X105766700Y-105994200D02*
X105766700Y-101371400D01*
D20*
X105781958Y-98795858D02*
X105568252Y-98582152D01*
D21*
X105766700Y-101371400D02*
X105781958Y-101356142D01*
%TD*%
%TA.AperFunction,Conductor*%
%TO.N,DGND*%
G36*
X167055183Y-92401539D02*
G01*
X167100938Y-92454343D01*
X167112144Y-92505854D01*
X167112144Y-109144162D01*
X167092459Y-109211201D01*
X167039655Y-109256956D01*
X166988144Y-109268162D01*
X134280761Y-109268162D01*
X134213722Y-109248477D01*
X134167967Y-109195673D01*
X134156761Y-109144168D01*
X134156400Y-102201507D01*
X134156400Y-102143708D01*
X134156397Y-102143696D01*
X134156397Y-102143682D01*
X134138440Y-102076680D01*
X134122489Y-102017151D01*
X134122304Y-102016437D01*
X134122292Y-102016407D01*
X134113905Y-102001882D01*
X134087577Y-101956286D01*
X134057056Y-101903423D01*
X134056475Y-101902388D01*
X134056405Y-101902295D01*
X134056400Y-101902286D01*
X134056393Y-101902279D01*
X134056387Y-101902272D01*
X134056384Y-101902265D01*
X134056378Y-101902259D01*
X134009792Y-101855677D01*
X134009787Y-101855673D01*
X133963214Y-101809100D01*
X133963204Y-101809094D01*
X133963194Y-101809084D01*
X133906087Y-101776117D01*
X133905986Y-101776059D01*
X133849086Y-101743208D01*
X133849073Y-101743204D01*
X133849062Y-101743198D01*
X133841896Y-101741278D01*
X133788768Y-101727045D01*
X133788768Y-101727044D01*
X133788763Y-101727044D01*
X133748246Y-101716188D01*
X133688585Y-101679824D01*
X133658055Y-101616977D01*
X133656339Y-101596435D01*
X133656337Y-101569076D01*
X133660559Y-101536996D01*
X133671900Y-101494675D01*
X133671900Y-101382339D01*
X158650918Y-101382339D01*
X158650918Y-102678074D01*
X158650919Y-102678080D01*
X158657326Y-102737687D01*
X158707620Y-102872532D01*
X158707624Y-102872539D01*
X158793870Y-102987748D01*
X158793873Y-102987751D01*
X158909082Y-103073997D01*
X158909089Y-103074001D01*
X159043935Y-103124295D01*
X159043934Y-103124295D01*
X159050862Y-103125039D01*
X159103545Y-103130704D01*
X160699290Y-103130703D01*
X160758901Y-103124295D01*
X160893749Y-103074000D01*
X161008964Y-102987750D01*
X161095214Y-102872535D01*
X161145509Y-102737687D01*
X161151918Y-102678077D01*
X161151917Y-101382332D01*
X161145509Y-101322721D01*
X161134673Y-101293669D01*
X161095215Y-101187875D01*
X161095211Y-101187868D01*
X161008965Y-101072659D01*
X161008962Y-101072656D01*
X160893753Y-100986410D01*
X160893746Y-100986406D01*
X160758900Y-100936112D01*
X160758901Y-100936112D01*
X160699301Y-100929705D01*
X160699299Y-100929704D01*
X160699291Y-100929704D01*
X160699282Y-100929704D01*
X159103547Y-100929704D01*
X159103541Y-100929705D01*
X159043934Y-100936112D01*
X158909089Y-100986406D01*
X158909082Y-100986410D01*
X158793873Y-101072656D01*
X158793870Y-101072659D01*
X158707624Y-101187868D01*
X158707620Y-101187875D01*
X158657326Y-101322721D01*
X158650919Y-101382320D01*
X158650919Y-101382327D01*
X158650918Y-101382339D01*
X133671900Y-101382339D01*
X133671900Y-101349725D01*
X133658732Y-101300582D01*
X133657694Y-101293669D01*
X133658229Y-101289769D01*
X133656319Y-101275266D01*
X133656257Y-100248573D01*
X133660479Y-100216495D01*
X133671900Y-100173875D01*
X133671900Y-100028925D01*
X133660464Y-99986245D01*
X133656239Y-99954164D01*
X133656178Y-98938539D01*
X140485118Y-98938539D01*
X140485118Y-100234274D01*
X140485119Y-100234280D01*
X140491526Y-100293887D01*
X140541820Y-100428732D01*
X140541824Y-100428739D01*
X140628070Y-100543948D01*
X140628073Y-100543951D01*
X140743282Y-100630197D01*
X140743289Y-100630201D01*
X140878135Y-100680495D01*
X140878134Y-100680495D01*
X140885062Y-100681239D01*
X140937745Y-100686904D01*
X142533490Y-100686903D01*
X142593101Y-100680495D01*
X142727949Y-100630200D01*
X142843164Y-100543950D01*
X142929414Y-100428735D01*
X142979709Y-100293887D01*
X142986118Y-100234277D01*
X142986117Y-98938532D01*
X142979709Y-98878921D01*
X142929414Y-98744073D01*
X142929413Y-98744072D01*
X142929411Y-98744068D01*
X142843165Y-98628859D01*
X142843162Y-98628856D01*
X142727953Y-98542610D01*
X142727946Y-98542606D01*
X142593100Y-98492312D01*
X142593101Y-98492312D01*
X142533501Y-98485905D01*
X142533499Y-98485904D01*
X142533491Y-98485904D01*
X142533482Y-98485904D01*
X140937747Y-98485904D01*
X140937741Y-98485905D01*
X140878134Y-98492312D01*
X140743289Y-98542606D01*
X140743282Y-98542610D01*
X140628073Y-98628856D01*
X140628070Y-98628859D01*
X140541824Y-98744068D01*
X140541820Y-98744075D01*
X140491526Y-98878921D01*
X140486243Y-98928064D01*
X140485119Y-98938527D01*
X140485118Y-98938539D01*
X133656178Y-98938539D01*
X133656177Y-98928064D01*
X133660399Y-98895993D01*
X133671900Y-98853075D01*
X133671900Y-98708125D01*
X133660382Y-98665140D01*
X133656159Y-98633068D01*
X133656159Y-98631828D01*
X133675843Y-98564795D01*
X133728647Y-98519040D01*
X133748053Y-98512063D01*
X133789976Y-98500830D01*
X133849056Y-98485004D01*
X133849058Y-98485002D01*
X133849492Y-98484886D01*
X133852440Y-98483055D01*
X133907958Y-98451002D01*
X133961545Y-98420068D01*
X133963038Y-98419238D01*
X133963178Y-98419125D01*
X133963188Y-98419120D01*
X133963195Y-98419112D01*
X133963203Y-98419105D01*
X133963214Y-98419100D01*
X133963228Y-98419085D01*
X133963550Y-98418828D01*
X133965011Y-98417302D01*
X134009784Y-98372530D01*
X134056380Y-98325940D01*
X134056383Y-98325933D01*
X134056393Y-98325924D01*
X134056397Y-98325916D01*
X134056400Y-98325914D01*
X134088269Y-98270713D01*
X134120354Y-98215150D01*
X134121878Y-98212697D01*
X134122265Y-98211840D01*
X134122280Y-98211816D01*
X134122282Y-98211802D01*
X134122287Y-98211793D01*
X134122292Y-98211786D01*
X134122294Y-98211777D01*
X134122415Y-98211511D01*
X134122944Y-98209351D01*
X134138111Y-98152744D01*
X134138114Y-98152739D01*
X134138113Y-98152739D01*
X134144211Y-98129983D01*
X134156396Y-98084524D01*
X134156396Y-98084521D01*
X134156400Y-98084507D01*
X134156400Y-98021990D01*
X134156753Y-92505846D01*
X134176442Y-92438808D01*
X134229249Y-92393056D01*
X134280753Y-92381854D01*
X166988144Y-92381854D01*
X167055183Y-92401539D01*
G37*
%TD.AperFunction*%
%TD*%
%TA.AperFunction,Conductor*%
%TO.N,AGND*%
G36*
X129669439Y-92391985D02*
G01*
X129715194Y-92444789D01*
X129726400Y-92496300D01*
X129726400Y-98084491D01*
X129760508Y-98211787D01*
X129793454Y-98268850D01*
X129826400Y-98325914D01*
X129919586Y-98419100D01*
X130033714Y-98484992D01*
X130150338Y-98516241D01*
X130209995Y-98552603D01*
X130240525Y-98615450D01*
X130238017Y-98668106D01*
X130234100Y-98682723D01*
X130234100Y-98682725D01*
X130234100Y-98827675D01*
X130267272Y-98951473D01*
X130271617Y-98967688D01*
X130344088Y-99093211D01*
X130344090Y-99093213D01*
X130344091Y-99093215D01*
X130446585Y-99195709D01*
X130446586Y-99195710D01*
X130446588Y-99195711D01*
X130572111Y-99268182D01*
X130572112Y-99268182D01*
X130572115Y-99268184D01*
X130675274Y-99295825D01*
X130734933Y-99332190D01*
X130765462Y-99395038D01*
X130757167Y-99464413D01*
X130712682Y-99518291D01*
X130675275Y-99535373D01*
X130587105Y-99558999D01*
X130572111Y-99563017D01*
X130446588Y-99635488D01*
X130446582Y-99635493D01*
X130344093Y-99737982D01*
X130344088Y-99737988D01*
X130271617Y-99863511D01*
X130271616Y-99863515D01*
X130234100Y-100003525D01*
X130234100Y-100148475D01*
X130271616Y-100288485D01*
X130271617Y-100288488D01*
X130344088Y-100414011D01*
X130344090Y-100414013D01*
X130344091Y-100414015D01*
X130446585Y-100516509D01*
X130446586Y-100516510D01*
X130446588Y-100516511D01*
X130572111Y-100588982D01*
X130572112Y-100588982D01*
X130572115Y-100588984D01*
X130675274Y-100616625D01*
X130734933Y-100652990D01*
X130765462Y-100715838D01*
X130757167Y-100785213D01*
X130712682Y-100839091D01*
X130675275Y-100856173D01*
X130587105Y-100879799D01*
X130572111Y-100883817D01*
X130446588Y-100956288D01*
X130446582Y-100956293D01*
X130344093Y-101058782D01*
X130344088Y-101058788D01*
X130271617Y-101184311D01*
X130271616Y-101184315D01*
X130234100Y-101324325D01*
X130234100Y-101324327D01*
X130234100Y-101469274D01*
X130257085Y-101555057D01*
X130255422Y-101624907D01*
X130216259Y-101682769D01*
X130167998Y-101703789D01*
X130168858Y-101706997D01*
X130161009Y-101709100D01*
X130161008Y-101709100D01*
X130112687Y-101722047D01*
X130033712Y-101743208D01*
X129919586Y-101809100D01*
X129919583Y-101809102D01*
X129826402Y-101902283D01*
X129826400Y-101902286D01*
X129760508Y-102016412D01*
X129726400Y-102143708D01*
X129726400Y-109078100D01*
X129706715Y-109145139D01*
X129653911Y-109190894D01*
X129602400Y-109202100D01*
X88011400Y-109202100D01*
X87944361Y-109182415D01*
X87898606Y-109129611D01*
X87887400Y-109078100D01*
X87887400Y-98589935D01*
X92883000Y-98589935D01*
X92883000Y-99885670D01*
X92883001Y-99885676D01*
X92889408Y-99945283D01*
X92939702Y-100080128D01*
X92939706Y-100080135D01*
X93025952Y-100195344D01*
X93025955Y-100195347D01*
X93141164Y-100281593D01*
X93141171Y-100281597D01*
X93276017Y-100331891D01*
X93276016Y-100331891D01*
X93282944Y-100332635D01*
X93335627Y-100338300D01*
X94931372Y-100338299D01*
X94990983Y-100331891D01*
X95125831Y-100281596D01*
X95241046Y-100195346D01*
X95327296Y-100080131D01*
X95377591Y-99945283D01*
X95384000Y-99885673D01*
X95383999Y-98589928D01*
X95377591Y-98530317D01*
X95373407Y-98519100D01*
X95369892Y-98509677D01*
X105017752Y-98509677D01*
X105017752Y-98654627D01*
X105048938Y-98771014D01*
X105055269Y-98794640D01*
X105127740Y-98920163D01*
X105127742Y-98920165D01*
X105127743Y-98920167D01*
X105230237Y-99022661D01*
X105344459Y-99088607D01*
X105392673Y-99139173D01*
X105406458Y-99195993D01*
X105406458Y-100901756D01*
X105386773Y-100968795D01*
X105370139Y-100989437D01*
X105341451Y-101018124D01*
X105341446Y-101018130D01*
X105268975Y-101143653D01*
X105267668Y-101148530D01*
X105231458Y-101283667D01*
X105231458Y-101428617D01*
X105251926Y-101505002D01*
X105268975Y-101568631D01*
X105268976Y-101568632D01*
X105324586Y-101664949D01*
X105341200Y-101726950D01*
X105341200Y-105596963D01*
X105324587Y-105658963D01*
X105253717Y-105781711D01*
X105253716Y-105781715D01*
X105216200Y-105921725D01*
X105216200Y-106066675D01*
X105253716Y-106206685D01*
X105253717Y-106206688D01*
X105326188Y-106332211D01*
X105326190Y-106332213D01*
X105326191Y-106332215D01*
X105428685Y-106434709D01*
X105428686Y-106434710D01*
X105428688Y-106434711D01*
X105554211Y-106507182D01*
X105554212Y-106507182D01*
X105554215Y-106507184D01*
X105694225Y-106544700D01*
X105694228Y-106544700D01*
X105839172Y-106544700D01*
X105839175Y-106544700D01*
X105979185Y-106507184D01*
X106104715Y-106434709D01*
X106207209Y-106332215D01*
X106279684Y-106206685D01*
X106317200Y-106066675D01*
X106317200Y-105921725D01*
X106279684Y-105781715D01*
X106208813Y-105658963D01*
X106192200Y-105596963D01*
X106192200Y-101775693D01*
X106211885Y-101708654D01*
X106217827Y-101700203D01*
X106222461Y-101694162D01*
X106222467Y-101694157D01*
X106294942Y-101568627D01*
X106332458Y-101428617D01*
X106332458Y-101283667D01*
X106294942Y-101143657D01*
X106245939Y-101058782D01*
X106222469Y-101018130D01*
X106222464Y-101018124D01*
X106193777Y-100989437D01*
X106160292Y-100928114D01*
X106157458Y-100901756D01*
X106157458Y-100344989D01*
X115849000Y-100344989D01*
X115849000Y-100518211D01*
X115876098Y-100689301D01*
X115927110Y-100846300D01*
X115929628Y-100854047D01*
X115988095Y-100968795D01*
X116008268Y-101008388D01*
X116110086Y-101148528D01*
X116232572Y-101271014D01*
X116372712Y-101372832D01*
X116527055Y-101451473D01*
X116691799Y-101505002D01*
X116862889Y-101532100D01*
X116862890Y-101532100D01*
X117286110Y-101532100D01*
X117286111Y-101532100D01*
X117457201Y-101505002D01*
X117621945Y-101451473D01*
X117776288Y-101372832D01*
X117916428Y-101271014D01*
X118038914Y-101148528D01*
X118140732Y-101008388D01*
X118219373Y-100854045D01*
X118272902Y-100689301D01*
X118300000Y-100518211D01*
X118300000Y-100344989D01*
X120827400Y-100344989D01*
X120827400Y-100518211D01*
X120854498Y-100689301D01*
X120905510Y-100846300D01*
X120908028Y-100854047D01*
X120966495Y-100968795D01*
X120986668Y-101008388D01*
X121088486Y-101148528D01*
X121210972Y-101271014D01*
X121351112Y-101372832D01*
X121505455Y-101451473D01*
X121670199Y-101505002D01*
X121841289Y-101532100D01*
X121841290Y-101532100D01*
X122264510Y-101532100D01*
X122264511Y-101532100D01*
X122435601Y-101505002D01*
X122600345Y-101451473D01*
X122754688Y-101372832D01*
X122894828Y-101271014D01*
X123017314Y-101148528D01*
X123119132Y-101008388D01*
X123197773Y-100854045D01*
X123251302Y-100689301D01*
X123278400Y-100518211D01*
X123278400Y-100344989D01*
X123251302Y-100173899D01*
X123197773Y-100009155D01*
X123119132Y-99854812D01*
X123017314Y-99714672D01*
X122894828Y-99592186D01*
X122754688Y-99490368D01*
X122600345Y-99411727D01*
X122435601Y-99358198D01*
X122435599Y-99358197D01*
X122435598Y-99358197D01*
X122304171Y-99337381D01*
X122264511Y-99331100D01*
X121841289Y-99331100D01*
X121801628Y-99337381D01*
X121670202Y-99358197D01*
X121505452Y-99411728D01*
X121351111Y-99490368D01*
X121312679Y-99518291D01*
X121210972Y-99592186D01*
X121210970Y-99592188D01*
X121210969Y-99592188D01*
X121088488Y-99714669D01*
X121088488Y-99714670D01*
X121088486Y-99714672D01*
X121071548Y-99737985D01*
X120986668Y-99854811D01*
X120908028Y-100009152D01*
X120854497Y-100173902D01*
X120828460Y-100338298D01*
X120827400Y-100344989D01*
X118300000Y-100344989D01*
X118272902Y-100173899D01*
X118219373Y-100009155D01*
X118140732Y-99854812D01*
X118038914Y-99714672D01*
X117916428Y-99592186D01*
X117776288Y-99490368D01*
X117621945Y-99411727D01*
X117457201Y-99358198D01*
X117457199Y-99358197D01*
X117457198Y-99358197D01*
X117325771Y-99337381D01*
X117286111Y-99331100D01*
X116862889Y-99331100D01*
X116823228Y-99337381D01*
X116691802Y-99358197D01*
X116527052Y-99411728D01*
X116372711Y-99490368D01*
X116334279Y-99518291D01*
X116232572Y-99592186D01*
X116232570Y-99592188D01*
X116232569Y-99592188D01*
X116110088Y-99714669D01*
X116110088Y-99714670D01*
X116110086Y-99714672D01*
X116093148Y-99737985D01*
X116008268Y-99854811D01*
X115929628Y-100009152D01*
X115876097Y-100173902D01*
X115850060Y-100338298D01*
X115849000Y-100344989D01*
X106157458Y-100344989D01*
X106157458Y-98746423D01*
X106152277Y-98727090D01*
X106152276Y-98727086D01*
X106131868Y-98650921D01*
X106131867Y-98650918D01*
X106127642Y-98635148D01*
X106129390Y-98634679D01*
X106118752Y-98594976D01*
X106118752Y-98509679D01*
X106118752Y-98509677D01*
X106081236Y-98369667D01*
X106055976Y-98325916D01*
X106008763Y-98244140D01*
X106008758Y-98244134D01*
X105906269Y-98141645D01*
X105906263Y-98141640D01*
X105780740Y-98069169D01*
X105780741Y-98069169D01*
X105769258Y-98066092D01*
X105640727Y-98031652D01*
X105495777Y-98031652D01*
X105367245Y-98066092D01*
X105355763Y-98069169D01*
X105230240Y-98141640D01*
X105230234Y-98141645D01*
X105127745Y-98244134D01*
X105127740Y-98244140D01*
X105055269Y-98369663D01*
X105055268Y-98369667D01*
X105017752Y-98509677D01*
X95369892Y-98509677D01*
X95327297Y-98395471D01*
X95327293Y-98395464D01*
X95241047Y-98280255D01*
X95241044Y-98280252D01*
X95125835Y-98194006D01*
X95125828Y-98194002D01*
X94990982Y-98143708D01*
X94990983Y-98143708D01*
X94931383Y-98137301D01*
X94931381Y-98137300D01*
X94931373Y-98137300D01*
X94931364Y-98137300D01*
X93335629Y-98137300D01*
X93335623Y-98137301D01*
X93276016Y-98143708D01*
X93141171Y-98194002D01*
X93141164Y-98194006D01*
X93025955Y-98280252D01*
X93025952Y-98280255D01*
X92939706Y-98395464D01*
X92939702Y-98395471D01*
X92889408Y-98530317D01*
X92883001Y-98589916D01*
X92883001Y-98589923D01*
X92883000Y-98589935D01*
X87887400Y-98589935D01*
X87887400Y-97844989D01*
X115849000Y-97844989D01*
X115849000Y-98018210D01*
X115868549Y-98141643D01*
X115876098Y-98189301D01*
X115929627Y-98354045D01*
X116008268Y-98508388D01*
X116110086Y-98648528D01*
X116232572Y-98771014D01*
X116372712Y-98872832D01*
X116527055Y-98951473D01*
X116691799Y-99005002D01*
X116862889Y-99032100D01*
X116862890Y-99032100D01*
X117286110Y-99032100D01*
X117286111Y-99032100D01*
X117457201Y-99005002D01*
X117621945Y-98951473D01*
X117776288Y-98872832D01*
X117916428Y-98771014D01*
X118038914Y-98648528D01*
X118140732Y-98508388D01*
X118219373Y-98354045D01*
X118272902Y-98189301D01*
X118300000Y-98018211D01*
X118300000Y-97844989D01*
X120827400Y-97844989D01*
X120827400Y-98018210D01*
X120846949Y-98141643D01*
X120854498Y-98189301D01*
X120908027Y-98354045D01*
X120986668Y-98508388D01*
X121088486Y-98648528D01*
X121210972Y-98771014D01*
X121351112Y-98872832D01*
X121505455Y-98951473D01*
X121670199Y-99005002D01*
X121841289Y-99032100D01*
X121841290Y-99032100D01*
X122264510Y-99032100D01*
X122264511Y-99032100D01*
X122435601Y-99005002D01*
X122600345Y-98951473D01*
X122754688Y-98872832D01*
X122894828Y-98771014D01*
X123017314Y-98648528D01*
X123119132Y-98508388D01*
X123197773Y-98354045D01*
X123251302Y-98189301D01*
X123278400Y-98018211D01*
X123278400Y-97844989D01*
X123251302Y-97673899D01*
X123197773Y-97509155D01*
X123119132Y-97354812D01*
X123017314Y-97214672D01*
X122894828Y-97092186D01*
X122754688Y-96990368D01*
X122600345Y-96911727D01*
X122435601Y-96858198D01*
X122435599Y-96858197D01*
X122435598Y-96858197D01*
X122304171Y-96837381D01*
X122264511Y-96831100D01*
X121841289Y-96831100D01*
X121801628Y-96837381D01*
X121670202Y-96858197D01*
X121505452Y-96911728D01*
X121351111Y-96990368D01*
X121271156Y-97048459D01*
X121210972Y-97092186D01*
X121210970Y-97092188D01*
X121210969Y-97092188D01*
X121088488Y-97214669D01*
X121088488Y-97214670D01*
X121088486Y-97214672D01*
X121044759Y-97274856D01*
X120986668Y-97354811D01*
X120908028Y-97509152D01*
X120854497Y-97673902D01*
X120827400Y-97844989D01*
X118300000Y-97844989D01*
X118272902Y-97673899D01*
X118219373Y-97509155D01*
X118140732Y-97354812D01*
X118038914Y-97214672D01*
X117916428Y-97092186D01*
X117776288Y-96990368D01*
X117621945Y-96911727D01*
X117457201Y-96858198D01*
X117457199Y-96858197D01*
X117457198Y-96858197D01*
X117325771Y-96837381D01*
X117286111Y-96831100D01*
X116862889Y-96831100D01*
X116823228Y-96837381D01*
X116691802Y-96858197D01*
X116527052Y-96911728D01*
X116372711Y-96990368D01*
X116292756Y-97048459D01*
X116232572Y-97092186D01*
X116232570Y-97092188D01*
X116232569Y-97092188D01*
X116110088Y-97214669D01*
X116110088Y-97214670D01*
X116110086Y-97214672D01*
X116066359Y-97274856D01*
X116008268Y-97354811D01*
X115929628Y-97509152D01*
X115876097Y-97673902D01*
X115849000Y-97844989D01*
X87887400Y-97844989D01*
X87887400Y-92496300D01*
X87907085Y-92429261D01*
X87959889Y-92383506D01*
X88011400Y-92372300D01*
X129602400Y-92372300D01*
X129669439Y-92391985D01*
G37*
%TD.AperFunction*%
%TD*%
M02*
