M48
; DRILL file {KiCad 9.0.0} date 2025-04-24T23:17:01+0300
; FORMAT={-:-/ absolute / metric / decimal}
; #@! TF.CreationDate,2025-04-24T23:17:01+03:00
; #@! TF.GenerationSoftware,Kicad,Pcbnew,9.0.0
; #@! TF.FileFunction,Plated,1,2,PTH
FMAT,2
METRIC
; #@! TA.AperFunction,Plated,PTH,ViaDrill
T1C0.300
; #@! TA.AperFunction,Plated,PTH,ComponentDrill
T2C1.000
%
G90
G05
T1
X82.362Y-97.226
X86.807Y-108.915
X86.995Y-106.624
X87.882Y-95.021
X89.154Y-104.572
X90.475Y-105.893
X92.521Y-103.327
X92.521Y-104.597
X95.682Y-108.087
X98.703Y-95.453
X99.771Y-106.092
X99.949Y-109.009
X101.829Y-100.802
X104.059Y-106.609
X104.394Y-112.497
X106.411Y-105.132
X106.997Y-98.387
X107.696Y-111.379
X108.219Y-97.561
X108.448Y-108.407
X109.195Y-101.117
X109.45Y-106.324
X111.252Y-106.402
X111.361Y-103.862
X111.361Y-108.942
X112.497Y-97.297
T2
X81.839Y-111.76
X84.379Y-111.76
X86.919Y-111.76
X89.459Y-111.76
X91.999Y-111.76
X94.539Y-111.76
X97.079Y-111.76
M30
