%TF.GenerationSoftware,KiCad,Pcbnew,9.0.0*%
%TF.CreationDate,2025-04-24T23:16:58+03:00*%
%TF.ProjectId,Modular_Filter_kicad,4d6f6475-6c61-4725-9f46-696c7465725f,rev?*%
%TF.SameCoordinates,Original*%
%TF.FileFunction,Copper,L1,Top*%
%TF.FilePolarity,Positive*%
%FSLAX46Y46*%
G04 Gerber Fmt 4.6, Leading zero omitted, Abs format (unit mm)*
G04 Created by KiCad (PCBNEW 9.0.0) date 2025-04-24 23:16:58*
%MOMM*%
%LPD*%
G01*
G04 APERTURE LIST*
G04 Aperture macros list*
%AMRoundRect*
0 Rectangle with rounded corners*
0 $1 Rounding radius*
0 $2 $3 $4 $5 $6 $7 $8 $9 X,Y pos of 4 corners*
0 Add a 4 corners polygon primitive as box body*
4,1,4,$2,$3,$4,$5,$6,$7,$8,$9,$2,$3,0*
0 Add four circle primitives for the rounded corners*
1,1,$1+$1,$2,$3*
1,1,$1+$1,$4,$5*
1,1,$1+$1,$6,$7*
1,1,$1+$1,$8,$9*
0 Add four rect primitives between the rounded corners*
20,1,$1+$1,$2,$3,$4,$5,0*
20,1,$1+$1,$4,$5,$6,$7,0*
20,1,$1+$1,$6,$7,$8,$9,0*
20,1,$1+$1,$8,$9,$2,$3,0*%
G04 Aperture macros list end*
%TA.AperFunction,SMDPad,CuDef*%
%ADD10RoundRect,0.250000X0.262500X0.450000X-0.262500X0.450000X-0.262500X-0.450000X0.262500X-0.450000X0*%
%TD*%
%TA.AperFunction,SMDPad,CuDef*%
%ADD11RoundRect,0.250000X-0.475000X0.250000X-0.475000X-0.250000X0.475000X-0.250000X0.475000X0.250000X0*%
%TD*%
%TA.AperFunction,SMDPad,CuDef*%
%ADD12RoundRect,0.250000X0.475000X-0.250000X0.475000X0.250000X-0.475000X0.250000X-0.475000X-0.250000X0*%
%TD*%
%TA.AperFunction,SMDPad,CuDef*%
%ADD13RoundRect,0.250000X-0.450000X0.262500X-0.450000X-0.262500X0.450000X-0.262500X0.450000X0.262500X0*%
%TD*%
%TA.AperFunction,SMDPad,CuDef*%
%ADD14RoundRect,0.150000X0.150000X-0.800000X0.150000X0.800000X-0.150000X0.800000X-0.150000X-0.800000X0*%
%TD*%
%TA.AperFunction,SMDPad,CuDef*%
%ADD15RoundRect,0.250000X0.450000X-0.262500X0.450000X0.262500X-0.450000X0.262500X-0.450000X-0.262500X0*%
%TD*%
%TA.AperFunction,SMDPad,CuDef*%
%ADD16RoundRect,0.250000X0.250000X0.475000X-0.250000X0.475000X-0.250000X-0.475000X0.250000X-0.475000X0*%
%TD*%
%TA.AperFunction,SMDPad,CuDef*%
%ADD17RoundRect,0.250000X-0.250000X-0.475000X0.250000X-0.475000X0.250000X0.475000X-0.250000X0.475000X0*%
%TD*%
%TA.AperFunction,SMDPad,CuDef*%
%ADD18RoundRect,0.243750X0.243750X0.456250X-0.243750X0.456250X-0.243750X-0.456250X0.243750X-0.456250X0*%
%TD*%
%TA.AperFunction,ComponentPad*%
%ADD19R,1.700000X1.700000*%
%TD*%
%TA.AperFunction,ComponentPad*%
%ADD20O,1.700000X1.700000*%
%TD*%
%TA.AperFunction,SMDPad,CuDef*%
%ADD21RoundRect,0.150000X-0.825000X-0.150000X0.825000X-0.150000X0.825000X0.150000X-0.825000X0.150000X0*%
%TD*%
%TA.AperFunction,ViaPad*%
%ADD22C,0.600000*%
%TD*%
%TA.AperFunction,Conductor*%
%ADD23C,0.250000*%
%TD*%
%TA.AperFunction,Conductor*%
%ADD24C,0.400000*%
%TD*%
G04 APERTURE END LIST*
D10*
%TO.P,R7,1*%
%TO.N,/50Hz_first_branch*%
X104009200Y-95504000D03*
%TO.P,R7,2*%
%TO.N,Net-(R6-Pad1)*%
X102184200Y-95504000D03*
%TD*%
D11*
%TO.P,C9,1*%
%TO.N,/Main_Out*%
X106346000Y-110790000D03*
%TO.P,C9,2*%
%TO.N,Net-(C10-Pad1)*%
X106346000Y-112690000D03*
%TD*%
D12*
%TO.P,C15,1*%
%TO.N,AGND*%
X95681800Y-108087200D03*
%TO.P,C15,2*%
%TO.N,AVDD*%
X95681800Y-106187200D03*
%TD*%
D13*
%TO.P,R12,1*%
%TO.N,/MA_-Terminal*%
X104089200Y-109008900D03*
%TO.P,R12,2*%
%TO.N,/Main_Out*%
X104089200Y-110833900D03*
%TD*%
%TO.P,R9,1*%
%TO.N,Net-(R8-Pad2)*%
X103835200Y-100863400D03*
%TO.P,R9,2*%
%TO.N,/50Hz_second_branch*%
X103835200Y-102688400D03*
%TD*%
D14*
%TO.P,U6,1,Rg*%
%TO.N,Net-(R1-Pad2)*%
X83185000Y-106624000D03*
%TO.P,U6,2,-*%
%TO.N,/E-*%
X84455000Y-106624000D03*
%TO.P,U6,3,+*%
%TO.N,/E+*%
X85725000Y-106624000D03*
%TO.P,U6,4,V-*%
%TO.N,AVSS*%
X86995000Y-106624000D03*
%TO.P,U6,5,Ref*%
%TO.N,/AC_COUPLER_OUT*%
X86995000Y-99624000D03*
%TO.P,U6,6*%
%TO.N,/INA_OUT*%
X85725000Y-99624000D03*
%TO.P,U6,7,V+*%
%TO.N,AVDD*%
X84455000Y-99624000D03*
%TO.P,U6,8,Rg*%
%TO.N,Net-(R1-Pad1)*%
X83185000Y-99624000D03*
%TD*%
D15*
%TO.P,R11,1*%
%TO.N,/50Hz_Filtered_Out*%
X101777800Y-106322500D03*
%TO.P,R11,2*%
%TO.N,Net-(U2B-+)*%
X101777800Y-104497500D03*
%TD*%
D13*
%TO.P,R1,1*%
%TO.N,Net-(R1-Pad1)*%
X80721200Y-102209600D03*
%TO.P,R1,2*%
%TO.N,Net-(R1-Pad2)*%
X80721200Y-104034600D03*
%TD*%
D15*
%TO.P,R3,1*%
%TO.N,Net-(U2A--)*%
X89839800Y-98778700D03*
%TO.P,R3,2*%
%TO.N,/INA_OUT*%
X89839800Y-96953700D03*
%TD*%
D10*
%TO.P,R5,1*%
%TO.N,/First T*%
X97102300Y-95504000D03*
%TO.P,R5,2*%
%TO.N,Net-(R4-Pad1)*%
X95277300Y-95504000D03*
%TD*%
%TO.P,R4,1*%
%TO.N,Net-(R4-Pad1)*%
X93622500Y-95504000D03*
%TO.P,R4,2*%
%TO.N,/INA_OUT*%
X91797500Y-95504000D03*
%TD*%
D12*
%TO.P,C10,1*%
%TO.N,Net-(C10-Pad1)*%
X109140000Y-112710000D03*
%TO.P,C10,2*%
%TO.N,Net-(U4C-+)*%
X109140000Y-110810000D03*
%TD*%
D15*
%TO.P,R15,1*%
%TO.N,Net-(C10-Pad1)*%
X111680000Y-112672500D03*
%TO.P,R15,2*%
%TO.N,/HP_Out*%
X111680000Y-110847500D03*
%TD*%
D16*
%TO.P,C12,1*%
%TO.N,/E_OUT*%
X110119200Y-97536000D03*
%TO.P,C12,2*%
%TO.N,/LP_1st_branch*%
X108219200Y-97536000D03*
%TD*%
D13*
%TO.P,R10,1*%
%TO.N,Net-(U2B-+)*%
X99771200Y-104495600D03*
%TO.P,R10,2*%
%TO.N,AGND*%
X99771200Y-106320600D03*
%TD*%
D11*
%TO.P,C1,1*%
%TO.N,/AC_COUPLER_OUT*%
X89839800Y-100863400D03*
%TO.P,C1,2*%
%TO.N,Net-(U2A--)*%
X89839800Y-102763400D03*
%TD*%
D16*
%TO.P,C3,1*%
%TO.N,/Second T*%
X93761600Y-98221800D03*
%TO.P,C3,2*%
%TO.N,/INA_OUT*%
X91861600Y-98221800D03*
%TD*%
D17*
%TO.P,C13,1*%
%TO.N,AGND*%
X82489000Y-97231200D03*
%TO.P,C13,2*%
%TO.N,AVDD*%
X84389000Y-97231200D03*
%TD*%
D11*
%TO.P,C18,1*%
%TO.N,AGND*%
X112496600Y-97297200D03*
%TO.P,C18,2*%
%TO.N,AVSS*%
X112496600Y-99197200D03*
%TD*%
D12*
%TO.P,C6,1*%
%TO.N,/50Hz_second_branch*%
X101828600Y-102702400D03*
%TO.P,C6,2*%
%TO.N,/First T*%
X101828600Y-100802400D03*
%TD*%
D18*
%TO.P,D1,1,K*%
%TO.N,AGND*%
X87881700Y-95021400D03*
%TO.P,D1,2,A*%
%TO.N,Net-(D1-A)*%
X86006700Y-95021400D03*
%TD*%
D10*
%TO.P,R18,1*%
%TO.N,Net-(D1-A)*%
X84351500Y-95021400D03*
%TO.P,R18,2*%
%TO.N,AVDD*%
X82526500Y-95021400D03*
%TD*%
D11*
%TO.P,C8,1*%
%TO.N,/MA_-Terminal*%
X102006400Y-108951400D03*
%TO.P,C8,2*%
%TO.N,/Main_Out*%
X102006400Y-110851400D03*
%TD*%
D17*
%TO.P,C4,1*%
%TO.N,/Second T*%
X102174000Y-98221800D03*
%TO.P,C4,2*%
%TO.N,/50Hz_first_branch*%
X104074000Y-98221800D03*
%TD*%
D19*
%TO.P,J1,1,Pin_1*%
%TO.N,AGND*%
X97078800Y-111760000D03*
D20*
%TO.P,J1,2,Pin_2*%
%TO.N,/E_OUT*%
X94538800Y-111760000D03*
%TO.P,J1,3,Pin_3*%
%TO.N,AVDD*%
X91998800Y-111760000D03*
%TO.P,J1,4,Pin_4*%
%TO.N,AVSS*%
X89458800Y-111760000D03*
%TO.P,J1,5,Pin_5*%
%TO.N,AGND*%
X86918800Y-111760000D03*
%TO.P,J1,6,Pin_6*%
%TO.N,/E+*%
X84378800Y-111760000D03*
%TO.P,J1,7,Pin_7*%
%TO.N,/E-*%
X81838800Y-111760000D03*
%TD*%
D21*
%TO.P,U2,1*%
%TO.N,/AC_COUPLER_OUT*%
X92521000Y-100787200D03*
%TO.P,U2,2,-*%
%TO.N,Net-(U2A--)*%
X92521000Y-102057200D03*
%TO.P,U2,3,+*%
%TO.N,AGND*%
X92521000Y-103327200D03*
%TO.P,U2,4,V-*%
%TO.N,AVSS*%
X92521000Y-104597200D03*
%TO.P,U2,5,+*%
%TO.N,Net-(U2B-+)*%
X97471000Y-104597200D03*
%TO.P,U2,6,-*%
%TO.N,/50Hz_second_branch*%
X97471000Y-103327200D03*
%TO.P,U2,7*%
X97471000Y-102057200D03*
%TO.P,U2,8,V+*%
%TO.N,AVDD*%
X97471000Y-100787200D03*
%TD*%
D15*
%TO.P,R13,1*%
%TO.N,/Main_Out*%
X99949000Y-110833900D03*
%TO.P,R13,2*%
%TO.N,AGND*%
X99949000Y-109008900D03*
%TD*%
D17*
%TO.P,C14,1*%
%TO.N,AGND*%
X86807000Y-108915200D03*
%TO.P,C14,2*%
%TO.N,AVSS*%
X88707000Y-108915200D03*
%TD*%
D10*
%TO.P,R6,1*%
%TO.N,Net-(R6-Pad1)*%
X100551000Y-95504000D03*
%TO.P,R6,2*%
%TO.N,/First T*%
X98726000Y-95504000D03*
%TD*%
%TO.P,R8,1*%
%TO.N,/Second T*%
X98905700Y-98251800D03*
%TO.P,R8,2*%
%TO.N,Net-(R8-Pad2)*%
X97080700Y-98251800D03*
%TD*%
D12*
%TO.P,C7,1*%
%TO.N,/50Hz_second_branch*%
X99771200Y-102712600D03*
%TO.P,C7,2*%
%TO.N,/First T*%
X99771200Y-100812600D03*
%TD*%
D21*
%TO.P,U4,1*%
%TO.N,/50Hz_Filtered_Out*%
X106411000Y-101321900D03*
%TO.P,U4,2,-*%
X106411000Y-102591900D03*
%TO.P,U4,3,+*%
%TO.N,/50Hz_first_branch*%
X106411000Y-103861900D03*
%TO.P,U4,4,V+*%
%TO.N,AVDD*%
X106411000Y-105131900D03*
%TO.P,U4,5,+*%
%TO.N,/50Hz_Filtered_Out*%
X106411000Y-106401900D03*
%TO.P,U4,6,-*%
%TO.N,/MA_-Terminal*%
X106411000Y-107671900D03*
%TO.P,U4,7*%
%TO.N,/Main_Out*%
X106411000Y-108941900D03*
%TO.P,U4,8*%
%TO.N,/HP_Out*%
X111361000Y-108941900D03*
%TO.P,U4,9,-*%
X111361000Y-107671900D03*
%TO.P,U4,10,+*%
%TO.N,Net-(U4C-+)*%
X111361000Y-106401900D03*
%TO.P,U4,11,V-*%
%TO.N,AVSS*%
X111361000Y-105131900D03*
%TO.P,U4,12,+*%
%TO.N,Net-(U4D-+)*%
X111361000Y-103861900D03*
%TO.P,U4,13,-*%
%TO.N,/E_OUT*%
X111361000Y-102591900D03*
%TO.P,U4,14*%
X111361000Y-101321900D03*
%TD*%
D22*
%TO.N,/First T*%
X98702500Y-95453200D03*
X101828600Y-100802400D03*
%TO.N,Net-(U4C-+)*%
X111252000Y-106401900D03*
%TO.N,Net-(U4D-+)*%
X111361000Y-103861900D03*
%TO.N,/E_OUT*%
X107696000Y-111379000D03*
X104394000Y-112496600D03*
%TO.N,AGND*%
X99949000Y-109008900D03*
X106997500Y-98386900D03*
X112496600Y-97297200D03*
X86807000Y-108915200D03*
X92521000Y-103327200D03*
X95681800Y-108087200D03*
X99771200Y-106092000D03*
X109450500Y-106324400D03*
X89154000Y-104571800D03*
X109194600Y-101117400D03*
X90474800Y-105892600D03*
X108448400Y-108407200D03*
X87881700Y-95021400D03*
X82362000Y-97226000D03*
%TO.N,AVDD*%
X106411000Y-105131900D03*
X104058800Y-106608800D03*
%TO.N,AVSS*%
X92521000Y-104597200D03*
X86995000Y-106624000D03*
%TO.N,/HP_Out*%
X111361000Y-108941900D03*
%TO.N,/LP_1st_branch*%
X108219200Y-97561400D03*
%TD*%
D23*
%TO.N,Net-(U2A--)*%
X89916000Y-102931000D02*
X90789800Y-102057200D01*
X90100900Y-99720400D02*
X89839800Y-99459300D01*
X90100900Y-99720400D02*
X93776800Y-99720400D01*
X93776800Y-102057200D02*
X92521000Y-102057200D01*
X93776800Y-99720400D02*
X94234000Y-100177600D01*
X94234000Y-101600000D02*
X93776800Y-102057200D01*
X89839800Y-99459300D02*
X89839800Y-98778700D01*
X94234000Y-100177600D02*
X94234000Y-101600000D01*
X90789800Y-102057200D02*
X92521000Y-102057200D01*
%TO.N,/AC_COUPLER_OUT*%
X92521000Y-100787200D02*
X88158200Y-100787200D01*
X88158200Y-100787200D02*
X86995000Y-99624000D01*
%TO.N,/Second T*%
X97561400Y-96901000D02*
X98905700Y-98245300D01*
X98905700Y-98245300D02*
X98905700Y-98251800D01*
X95123000Y-96901000D02*
X97561400Y-96901000D01*
X98905700Y-98251800D02*
X102144000Y-98251800D01*
X102144000Y-98251800D02*
X102174000Y-98221800D01*
X93802200Y-98221800D02*
X95123000Y-96901000D01*
X93787000Y-98221800D02*
X93802200Y-98221800D01*
%TO.N,/INA_OUT*%
X87445301Y-96953700D02*
X89839800Y-96953700D01*
X85725000Y-98674001D02*
X87445301Y-96953700D01*
X85725000Y-99624000D02*
X85725000Y-98674001D01*
X89839800Y-96953700D02*
X89841700Y-96953700D01*
X89839800Y-96953700D02*
X89863300Y-96953700D01*
X89863300Y-96953700D02*
X91313000Y-95504000D01*
X89841700Y-96953700D02*
X91109800Y-98221800D01*
X91109800Y-98221800D02*
X91861600Y-98221800D01*
X91313000Y-95504000D02*
X91797500Y-95504000D01*
%TO.N,Net-(C10-Pad1)*%
X106363500Y-112672500D02*
X106346000Y-112690000D01*
X106346000Y-112690000D02*
X108886000Y-112690000D01*
X111680000Y-112672500D02*
X106363500Y-112672500D01*
%TO.N,/First T*%
X101828600Y-100802400D02*
X99781400Y-100802400D01*
X97075000Y-95453200D02*
X98702500Y-95453200D01*
X99781400Y-100802400D02*
X99771200Y-100812600D01*
%TO.N,Net-(U4C-+)*%
X109140000Y-110810000D02*
X109626400Y-110323600D01*
X109626400Y-110323600D02*
X109626400Y-107492800D01*
X111252000Y-106401900D02*
X111361000Y-106401900D01*
X110717300Y-106401900D02*
X111252000Y-106401900D01*
X109626400Y-107492800D02*
X110717300Y-106401900D01*
%TO.N,Net-(U4D-+)*%
X111383900Y-103839000D02*
X111361000Y-103861900D01*
%TO.N,/MA_-Terminal*%
X105426200Y-107671900D02*
X106411000Y-107671900D01*
X104089200Y-109008900D02*
X105426200Y-107671900D01*
X102063900Y-109008900D02*
X102006400Y-108951400D01*
X104089200Y-109008900D02*
X102063900Y-109008900D01*
X102023900Y-109008900D02*
X102006400Y-108991400D01*
%TO.N,/E_OUT*%
X104394000Y-112496600D02*
X103403400Y-113487200D01*
X110413800Y-99644200D02*
X111379000Y-100609400D01*
X107772200Y-104495600D02*
X110413800Y-101854000D01*
X110413800Y-97830600D02*
X110413800Y-99644200D01*
X107696000Y-111582200D02*
X107696000Y-111379000D01*
X110413800Y-101854000D02*
X111361000Y-101854000D01*
X111361000Y-101854000D02*
X111361000Y-101321900D01*
X111361000Y-102591900D02*
X111361000Y-101854000D01*
X94538800Y-112014000D02*
X94538800Y-111760000D01*
X111379000Y-100609400D02*
X111379000Y-101303900D01*
X107696000Y-111379000D02*
X107772200Y-111302800D01*
X96012000Y-113487200D02*
X94538800Y-112014000D01*
X103403400Y-113487200D02*
X96012000Y-113487200D01*
X110119200Y-97536000D02*
X110413800Y-97830600D01*
X107772200Y-111302800D02*
X107772200Y-104495600D01*
X111379000Y-101303900D02*
X111361000Y-101321900D01*
%TO.N,Net-(R1-Pad1)*%
X81808200Y-99624000D02*
X83185000Y-99624000D01*
X80721200Y-100711000D02*
X81808200Y-99624000D01*
X80721200Y-102087800D02*
X80721200Y-100711000D01*
%TO.N,Net-(U2B-+)*%
X99669600Y-104597200D02*
X99771200Y-104495600D01*
X97471000Y-104597200D02*
X99669600Y-104597200D01*
X101775900Y-104495600D02*
X101777800Y-104497500D01*
X99771200Y-104495600D02*
X101775900Y-104495600D01*
D24*
%TO.N,AGND*%
X108889800Y-107980800D02*
X108889800Y-106603800D01*
X86918800Y-111760000D02*
X87010200Y-111668600D01*
X109194600Y-101117400D02*
X109143800Y-101066600D01*
X108889800Y-106603800D02*
X109169200Y-106324400D01*
X109143800Y-101066600D02*
X109143800Y-100533200D01*
X108448400Y-108407200D02*
X108463400Y-108407200D01*
X109169200Y-106324400D02*
X109450500Y-106324400D01*
X109143800Y-100533200D02*
X106997500Y-98386900D01*
X90474800Y-105892600D02*
X89154000Y-104571800D01*
X108463400Y-108407200D02*
X108889800Y-107980800D01*
D23*
%TO.N,/50Hz_first_branch*%
X106411000Y-103861900D02*
X107034300Y-103861900D01*
X105812600Y-97307400D02*
X105816400Y-97307400D01*
X107975400Y-102920800D02*
X107975400Y-100507800D01*
X105816400Y-98348800D02*
X105816400Y-97307400D01*
X105373800Y-96864800D02*
X104709600Y-96864800D01*
X103980000Y-95474800D02*
X105812600Y-97307400D01*
X103980000Y-95453200D02*
X103980000Y-95474800D01*
X107034300Y-103861900D02*
X107975400Y-102920800D01*
X107975400Y-100507800D02*
X105816400Y-98348800D01*
X104048600Y-97525800D02*
X104048600Y-98145600D01*
X104709600Y-96864800D02*
X104048600Y-97525800D01*
%TO.N,/50Hz_second_branch*%
X99903200Y-102712600D02*
X99925500Y-102690300D01*
X99925500Y-102690300D02*
X103835200Y-102690300D01*
X99115800Y-102057200D02*
X99771200Y-102712600D01*
X99771200Y-102712600D02*
X99903200Y-102712600D01*
X97471000Y-102057200D02*
X99115800Y-102057200D01*
X97471000Y-103327200D02*
X97471000Y-102057200D01*
%TO.N,AVDD*%
X82551900Y-95072200D02*
X82551900Y-95394100D01*
D24*
X103124000Y-107543600D02*
X97891600Y-107543600D01*
X104058800Y-106608800D02*
X103124000Y-107543600D01*
X91719400Y-109067600D02*
X84455000Y-101803200D01*
X97471000Y-100787200D02*
X96570800Y-100787200D01*
X84455000Y-99624000D02*
X84455000Y-97419000D01*
X97891600Y-107543600D02*
X96586000Y-106238000D01*
X91998800Y-111760000D02*
X91998800Y-109347000D01*
X95504000Y-101854000D02*
X95504000Y-106238000D01*
X84455000Y-97419000D02*
X84262000Y-97226000D01*
X84455000Y-101803200D02*
X84455000Y-99624000D01*
X96586000Y-106238000D02*
X95504000Y-106238000D01*
X92278200Y-109067600D02*
X92303600Y-109067600D01*
X96570800Y-100787200D02*
X95504000Y-101854000D01*
X92303600Y-109067600D02*
X95184000Y-106187200D01*
X91998800Y-111760000D02*
X92125800Y-111633000D01*
X91998800Y-109347000D02*
X91719400Y-109067600D01*
X91998800Y-109347000D02*
X92278200Y-109067600D01*
X95488800Y-106238000D02*
X95504000Y-106238000D01*
D23*
X82551900Y-95394100D02*
X84389000Y-97231200D01*
D24*
X92278200Y-109067600D02*
X91719400Y-109067600D01*
X95184000Y-106187200D02*
X95681800Y-106187200D01*
%TO.N,AVSS*%
X89458800Y-111760000D02*
X92405200Y-114706400D01*
X87010200Y-106639200D02*
X86995000Y-106624000D01*
X112115600Y-114706400D02*
X113309400Y-113512600D01*
X113309400Y-106045000D02*
X113284000Y-106070400D01*
X86995000Y-105989000D02*
X86995000Y-106624000D01*
X113284000Y-106070400D02*
X112345500Y-105131900D01*
X112345500Y-105131900D02*
X111361000Y-105131900D01*
X113309400Y-100060800D02*
X113309400Y-106045000D01*
X86995000Y-106700200D02*
X88671400Y-108376600D01*
X88671400Y-110972600D02*
X89458800Y-111760000D01*
X112649000Y-99400400D02*
X113309400Y-100060800D01*
X113309400Y-106095800D02*
X113284000Y-106070400D01*
X113309400Y-113512600D02*
X113309400Y-106095800D01*
X92405200Y-114706400D02*
X112115600Y-114706400D01*
X88671400Y-108376600D02*
X88671400Y-110972600D01*
D23*
%TO.N,/Main_Out*%
X104089200Y-110833900D02*
X99949000Y-110833900D01*
X106346000Y-109006900D02*
X106411000Y-108941900D01*
X106302100Y-110833900D02*
X106346000Y-110790000D01*
X106346000Y-110790000D02*
X106346000Y-109006900D01*
X104089200Y-110833900D02*
X106302100Y-110833900D01*
%TO.N,/E+*%
X84378800Y-111760000D02*
X85725000Y-110413800D01*
X85725000Y-110413800D02*
X85725000Y-106624000D01*
%TO.N,/E-*%
X84455000Y-109143800D02*
X81838800Y-111760000D01*
X84455000Y-106624000D02*
X84455000Y-109143800D01*
%TO.N,/HP_Out*%
X111361000Y-108941900D02*
X111361000Y-107671900D01*
X111680000Y-109260900D02*
X111680000Y-110847500D01*
X111361000Y-108941900D02*
X111680000Y-109260900D01*
%TO.N,Net-(R1-Pad2)*%
X80721200Y-105359200D02*
X80721200Y-104188900D01*
X81986000Y-106624000D02*
X80721200Y-105359200D01*
X83185000Y-106624000D02*
X81986000Y-106624000D01*
%TO.N,Net-(R4-Pad1)*%
X93646000Y-95453200D02*
X95250000Y-95453200D01*
%TO.N,Net-(R6-Pad1)*%
X100527500Y-95453200D02*
X102155000Y-95453200D01*
%TO.N,Net-(R8-Pad2)*%
X97080700Y-98858700D02*
X97080700Y-98251800D01*
X97790000Y-99568000D02*
X97080700Y-98858700D01*
X102873500Y-99568000D02*
X97790000Y-99568000D01*
X103860600Y-100555100D02*
X102873500Y-99568000D01*
%TO.N,/50Hz_Filtered_Out*%
X104978200Y-104394000D02*
X104775000Y-104394000D01*
X104089200Y-104394000D02*
X102160700Y-106322500D01*
X102160700Y-106322500D02*
X101777800Y-106322500D01*
X104978200Y-103049701D02*
X105436001Y-102591900D01*
X104775000Y-104394000D02*
X104089200Y-104394000D01*
X104978200Y-105944099D02*
X104978200Y-104673400D01*
X104978200Y-104597200D02*
X104775000Y-104394000D01*
X104978200Y-104673400D02*
X104978200Y-104597200D01*
X105436001Y-106401900D02*
X104978200Y-105944099D01*
X104978200Y-104394000D02*
X104978200Y-104190800D01*
X104978200Y-104190800D02*
X104978200Y-103049701D01*
X104775000Y-104394000D02*
X104978200Y-104190800D01*
X104978200Y-104673400D02*
X104978200Y-104394000D01*
X106411000Y-102591900D02*
X106411000Y-101321900D01*
X106411000Y-106401900D02*
X105436001Y-106401900D01*
%TO.N,Net-(D1-A)*%
X84351500Y-95021400D02*
X86006700Y-95021400D01*
%TD*%
M02*
