%TF.GenerationSoftware,KiCad,Pcbnew,9.0.0*%
%TF.CreationDate,2025-04-24T14:13:05+03:00*%
%TF.ProjectId,Modular_Filter_kicad,4d6f6475-6c61-4725-9f46-696c7465725f,rev?*%
%TF.SameCoordinates,Original*%
%TF.FileFunction,Paste,Top*%
%TF.FilePolarity,Positive*%
%FSLAX46Y46*%
G04 Gerber Fmt 4.6, Leading zero omitted, Abs format (unit mm)*
G04 Created by KiCad (PCBNEW 9.0.0) date 2025-04-24 14:13:05*
%MOMM*%
%LPD*%
G01*
G04 APERTURE LIST*
G04 Aperture macros list*
%AMRoundRect*
0 Rectangle with rounded corners*
0 $1 Rounding radius*
0 $2 $3 $4 $5 $6 $7 $8 $9 X,Y pos of 4 corners*
0 Add a 4 corners polygon primitive as box body*
4,1,4,$2,$3,$4,$5,$6,$7,$8,$9,$2,$3,0*
0 Add four circle primitives for the rounded corners*
1,1,$1+$1,$2,$3*
1,1,$1+$1,$4,$5*
1,1,$1+$1,$6,$7*
1,1,$1+$1,$8,$9*
0 Add four rect primitives between the rounded corners*
20,1,$1+$1,$2,$3,$4,$5,0*
20,1,$1+$1,$4,$5,$6,$7,0*
20,1,$1+$1,$6,$7,$8,$9,0*
20,1,$1+$1,$8,$9,$2,$3,0*%
G04 Aperture macros list end*
%ADD10RoundRect,0.250000X0.262500X0.450000X-0.262500X0.450000X-0.262500X-0.450000X0.262500X-0.450000X0*%
%ADD11RoundRect,0.250000X-0.475000X0.250000X-0.475000X-0.250000X0.475000X-0.250000X0.475000X0.250000X0*%
%ADD12RoundRect,0.250000X0.475000X-0.250000X0.475000X0.250000X-0.475000X0.250000X-0.475000X-0.250000X0*%
%ADD13RoundRect,0.250000X-0.450000X0.262500X-0.450000X-0.262500X0.450000X-0.262500X0.450000X0.262500X0*%
%ADD14RoundRect,0.150000X0.150000X-0.800000X0.150000X0.800000X-0.150000X0.800000X-0.150000X-0.800000X0*%
%ADD15RoundRect,0.250000X0.450000X-0.262500X0.450000X0.262500X-0.450000X0.262500X-0.450000X-0.262500X0*%
%ADD16RoundRect,0.250000X0.250000X0.475000X-0.250000X0.475000X-0.250000X-0.475000X0.250000X-0.475000X0*%
%ADD17RoundRect,0.250000X-0.250000X-0.475000X0.250000X-0.475000X0.250000X0.475000X-0.250000X0.475000X0*%
%ADD18RoundRect,0.243750X0.243750X0.456250X-0.243750X0.456250X-0.243750X-0.456250X0.243750X-0.456250X0*%
%ADD19RoundRect,0.150000X-0.825000X-0.150000X0.825000X-0.150000X0.825000X0.150000X-0.825000X0.150000X0*%
G04 APERTURE END LIST*
D10*
%TO.C,R7*%
X104009200Y-95504000D03*
X102184200Y-95504000D03*
%TD*%
D11*
%TO.C,C9*%
X106346000Y-110790000D03*
X106346000Y-112690000D03*
%TD*%
D12*
%TO.C,C15*%
X95681800Y-108087200D03*
X95681800Y-106187200D03*
%TD*%
D13*
%TO.C,R12*%
X104089200Y-109008900D03*
X104089200Y-110833900D03*
%TD*%
%TO.C,R9*%
X103835200Y-100863400D03*
X103835200Y-102688400D03*
%TD*%
D14*
%TO.C,U6*%
X83185000Y-106624000D03*
X84455000Y-106624000D03*
X85725000Y-106624000D03*
X86995000Y-106624000D03*
X86995000Y-99624000D03*
X85725000Y-99624000D03*
X84455000Y-99624000D03*
X83185000Y-99624000D03*
%TD*%
D15*
%TO.C,R11*%
X101777800Y-106322500D03*
X101777800Y-104497500D03*
%TD*%
D13*
%TO.C,R1*%
X80721200Y-102209600D03*
X80721200Y-104034600D03*
%TD*%
D15*
%TO.C,R3*%
X89839800Y-98778700D03*
X89839800Y-96953700D03*
%TD*%
D10*
%TO.C,R5*%
X97102300Y-95504000D03*
X95277300Y-95504000D03*
%TD*%
%TO.C,R4*%
X93622500Y-95504000D03*
X91797500Y-95504000D03*
%TD*%
D12*
%TO.C,C10*%
X109140000Y-112710000D03*
X109140000Y-110810000D03*
%TD*%
D15*
%TO.C,R15*%
X111680000Y-112672500D03*
X111680000Y-110847500D03*
%TD*%
D16*
%TO.C,C12*%
X110119200Y-97536000D03*
X108219200Y-97536000D03*
%TD*%
D13*
%TO.C,R10*%
X99771200Y-104495600D03*
X99771200Y-106320600D03*
%TD*%
D11*
%TO.C,C1*%
X89839800Y-100863400D03*
X89839800Y-102763400D03*
%TD*%
D16*
%TO.C,C3*%
X93761600Y-98221800D03*
X91861600Y-98221800D03*
%TD*%
D17*
%TO.C,C13*%
X82489000Y-97231200D03*
X84389000Y-97231200D03*
%TD*%
D11*
%TO.C,C18*%
X112496600Y-97297200D03*
X112496600Y-99197200D03*
%TD*%
D12*
%TO.C,C6*%
X101828600Y-102702400D03*
X101828600Y-100802400D03*
%TD*%
D18*
%TO.C,D1*%
X87881700Y-95021400D03*
X86006700Y-95021400D03*
%TD*%
D10*
%TO.C,R18*%
X84351500Y-95021400D03*
X82526500Y-95021400D03*
%TD*%
D11*
%TO.C,C8*%
X102006400Y-108951400D03*
X102006400Y-110851400D03*
%TD*%
D17*
%TO.C,C4*%
X102174000Y-98221800D03*
X104074000Y-98221800D03*
%TD*%
D19*
%TO.C,U2*%
X92521000Y-100787200D03*
X92521000Y-102057200D03*
X92521000Y-103327200D03*
X92521000Y-104597200D03*
X97471000Y-104597200D03*
X97471000Y-103327200D03*
X97471000Y-102057200D03*
X97471000Y-100787200D03*
%TD*%
D15*
%TO.C,R13*%
X99949000Y-110833900D03*
X99949000Y-109008900D03*
%TD*%
D17*
%TO.C,C14*%
X86807000Y-108915200D03*
X88707000Y-108915200D03*
%TD*%
D10*
%TO.C,R6*%
X100551000Y-95504000D03*
X98726000Y-95504000D03*
%TD*%
%TO.C,R8*%
X98905700Y-98251800D03*
X97080700Y-98251800D03*
%TD*%
D12*
%TO.C,C7*%
X99771200Y-102712600D03*
X99771200Y-100812600D03*
%TD*%
D19*
%TO.C,U4*%
X106411000Y-101321900D03*
X106411000Y-102591900D03*
X106411000Y-103861900D03*
X106411000Y-105131900D03*
X106411000Y-106401900D03*
X106411000Y-107671900D03*
X106411000Y-108941900D03*
X111361000Y-108941900D03*
X111361000Y-107671900D03*
X111361000Y-106401900D03*
X111361000Y-105131900D03*
X111361000Y-103861900D03*
X111361000Y-102591900D03*
X111361000Y-101321900D03*
%TD*%
M02*
