M48
; DRILL file {KiCad 9.0.0} date 2025-04-24T23:51:41+0300
; FORMAT={-:-/ absolute / metric / decimal}
; #@! TF.CreationDate,2025-04-24T23:51:41+03:00
; #@! TF.GenerationSoftware,Kicad,Pcbnew,9.0.0
; #@! TF.FileFunction,Plated,1,2,PTH
FMAT,2
METRIC
; #@! TA.AperFunction,Plated,PTH,ViaDrill
T1C0.300
; #@! TA.AperFunction,Plated,PTH,ComponentDrill
T2C1.000
; #@! TA.AperFunction,Plated,PTH,ComponentDrill
T3C2.200
%
G90
G05
T1
X69.388Y-94.996
X69.464Y-98.597
X69.464Y-99.842
X69.515Y-97.581
X69.542Y-101.749
X70.531Y-94.996
X70.607Y-102.331
X71.649Y-94.996
X71.801Y-102.306
X72.436Y-104.084
X72.461Y-103.042
X72.69Y-94.996
X72.69Y-95.803
X73.579Y-103.042
X73.579Y-104.033
X73.63Y-94.996
X73.63Y-95.803
X74.824Y-99.334
X74.849Y-94.996
X74.849Y-95.803
X74.849Y-103.042
X74.849Y-104.033
X74.951Y-100.985
X74.976Y-97.556
X75.967Y-94.996
X75.967Y-95.803
X75.967Y-97.556
X76.068Y-103.042
X76.068Y-104.033
X76.094Y-100.96
X77.135Y-103.042
X77.135Y-104.033
X77.16Y-100.121
X77.16Y-100.985
X77.186Y-94.996
X77.186Y-95.803
X77.186Y-101.899
X77.526Y-96.835
X77.719Y-99.461
X78.126Y-95.981
X78.126Y-100.976
X78.126Y-101.95
X78.126Y-103.059
X78.126Y-104.05
X78.798Y-95.345
X78.913Y-102.915
X79.92Y-99.131
X80.412Y-104.109
X81.834Y-104.109
X81.985Y-101.112
X83.079Y-104.363
X83.256Y-94.965
X84.501Y-104.363
X84.679Y-94.965
X85.898Y-104.363
X86.076Y-94.965
X87.244Y-104.363
X87.422Y-94.965
T2
X66.848Y-98.496
X66.848Y-100.996
X85.014Y-98.44
X85.014Y-100.94
T3
X61.489Y-93.447
X61.599Y-105.914
X89.962Y-93.421
X89.962Y-105.969
M30
