%TF.GenerationSoftware,KiCad,Pcbnew,9.0.0*%
%TF.CreationDate,2025-04-24T23:51:43+03:00*%
%TF.ProjectId,3v3,3376332e-6b69-4636-9164-5f7063625858,rev?*%
%TF.SameCoordinates,Original*%
%TF.FileFunction,Copper,L2,Bot*%
%TF.FilePolarity,Positive*%
%FSLAX46Y46*%
G04 Gerber Fmt 4.6, Leading zero omitted, Abs format (unit mm)*
G04 Created by KiCad (PCBNEW 9.0.0) date 2025-04-24 23:51:43*
%MOMM*%
%LPD*%
G01*
G04 APERTURE LIST*
G04 Aperture macros list*
%AMRoundRect*
0 Rectangle with rounded corners*
0 $1 Rounding radius*
0 $2 $3 $4 $5 $6 $7 $8 $9 X,Y pos of 4 corners*
0 Add a 4 corners polygon primitive as box body*
4,1,4,$2,$3,$4,$5,$6,$7,$8,$9,$2,$3,0*
0 Add four circle primitives for the rounded corners*
1,1,$1+$1,$2,$3*
1,1,$1+$1,$4,$5*
1,1,$1+$1,$6,$7*
1,1,$1+$1,$8,$9*
0 Add four rect primitives between the rounded corners*
20,1,$1+$1,$2,$3,$4,$5,0*
20,1,$1+$1,$4,$5,$6,$7,0*
20,1,$1+$1,$6,$7,$8,$9,0*
20,1,$1+$1,$8,$9,$2,$3,0*%
G04 Aperture macros list end*
%TA.AperFunction,ComponentPad*%
%ADD10C,2.600000*%
%TD*%
%TA.AperFunction,ConnectorPad*%
%ADD11C,3.800000*%
%TD*%
%TA.AperFunction,ComponentPad*%
%ADD12RoundRect,0.250000X-0.750000X0.600000X-0.750000X-0.600000X0.750000X-0.600000X0.750000X0.600000X0*%
%TD*%
%TA.AperFunction,ComponentPad*%
%ADD13O,2.000000X1.700000*%
%TD*%
%TA.AperFunction,ComponentPad*%
%ADD14RoundRect,0.250000X0.750000X-0.600000X0.750000X0.600000X-0.750000X0.600000X-0.750000X-0.600000X0*%
%TD*%
%TA.AperFunction,ViaPad*%
%ADD15C,0.600000*%
%TD*%
G04 APERTURE END LIST*
D10*
%TO.P,H5,1,1*%
%TO.N,DGND*%
X89962000Y-105968754D03*
D11*
X89962000Y-105968754D03*
%TD*%
D12*
%TO.P,J4,1,Pin_1*%
%TO.N,/RAWD_Unprotected*%
X66848000Y-98495800D03*
D13*
%TO.P,J4,2,Pin_2*%
%TO.N,DGND*%
X66848000Y-100995800D03*
%TD*%
D10*
%TO.P,H8,1,1*%
%TO.N,DGND*%
X61599050Y-105913700D03*
D11*
X61599050Y-105913700D03*
%TD*%
D10*
%TO.P,H7,1,1*%
%TO.N,DGND*%
X61488600Y-93446554D03*
D11*
X61488600Y-93446554D03*
%TD*%
D14*
%TO.P,J5,1,Pin_1*%
%TO.N,/3.3V*%
X85013800Y-100939600D03*
D13*
%TO.P,J5,2,Pin_2*%
%TO.N,DGND*%
X85013800Y-98439600D03*
%TD*%
D10*
%TO.P,H6,1,1*%
%TO.N,DGND*%
X89962000Y-93421154D03*
D11*
X89962000Y-93421154D03*
%TD*%
D15*
%TO.N,DGND*%
X75966600Y-94995954D03*
X69464200Y-99842000D03*
X85898000Y-104363200D03*
X74823600Y-99334000D03*
X81985300Y-101112000D03*
X75966600Y-97556000D03*
X73629800Y-95803400D03*
X73579000Y-103042400D03*
X84678800Y-94965200D03*
X83078600Y-104363200D03*
X77135000Y-104033000D03*
X71801000Y-102305800D03*
X78125600Y-101950200D03*
X86075800Y-94965200D03*
X74950600Y-100985000D03*
X69388000Y-94995954D03*
X77185800Y-94995954D03*
X76093600Y-100959600D03*
X78125600Y-104049596D03*
X69542481Y-101749300D03*
X79920000Y-99130800D03*
X69515000Y-97581400D03*
X72436000Y-104083800D03*
X84501000Y-104363200D03*
X70607200Y-102331200D03*
X74849000Y-103042400D03*
X78913000Y-102915400D03*
X87244200Y-104363200D03*
X75966600Y-95803400D03*
X73579000Y-104033000D03*
X80411600Y-104109200D03*
X83256400Y-94965200D03*
X70531000Y-94995954D03*
X74849000Y-95803400D03*
X77185800Y-101899400D03*
X72461400Y-103042400D03*
X74849000Y-104033000D03*
X74849000Y-94995954D03*
X78125600Y-103058996D03*
X78797842Y-95344796D03*
X71648600Y-94995954D03*
X87422000Y-94965200D03*
X76068200Y-103042400D03*
X78125600Y-95981200D03*
X77185800Y-95803400D03*
X77160400Y-100985000D03*
X72690000Y-95803400D03*
X73629800Y-94995954D03*
X77135000Y-103042400D03*
X74976000Y-97556000D03*
X77719200Y-99461000D03*
X72690000Y-94995954D03*
X81834000Y-104109200D03*
X69464200Y-98597400D03*
X78125600Y-100976196D03*
X76068200Y-104033000D03*
X77525631Y-96835169D03*
X77160400Y-100121400D03*
%TD*%
%TA.AperFunction,Conductor*%
%TO.N,DGND*%
G36*
X92167565Y-91310935D02*
G01*
X92213320Y-91363739D01*
X92224526Y-91415250D01*
X92224526Y-108053558D01*
X92204841Y-108120597D01*
X92152037Y-108166352D01*
X92100526Y-108177558D01*
X59393143Y-108177558D01*
X59326104Y-108157873D01*
X59280349Y-108105069D01*
X59269143Y-108053564D01*
X59268782Y-101110903D01*
X59268782Y-100291735D01*
X83763300Y-100291735D01*
X83763300Y-101587470D01*
X83763301Y-101587476D01*
X83769708Y-101647083D01*
X83820002Y-101781928D01*
X83820006Y-101781935D01*
X83906252Y-101897144D01*
X83906255Y-101897147D01*
X84021464Y-101983393D01*
X84021471Y-101983397D01*
X84156317Y-102033691D01*
X84156316Y-102033691D01*
X84163244Y-102034435D01*
X84215927Y-102040100D01*
X85811672Y-102040099D01*
X85871283Y-102033691D01*
X86006131Y-101983396D01*
X86121346Y-101897146D01*
X86207596Y-101781931D01*
X86257891Y-101647083D01*
X86264300Y-101587473D01*
X86264299Y-100291728D01*
X86257891Y-100232117D01*
X86207596Y-100097269D01*
X86207595Y-100097268D01*
X86207593Y-100097264D01*
X86121347Y-99982055D01*
X86121344Y-99982052D01*
X86006135Y-99895806D01*
X86006128Y-99895802D01*
X85871282Y-99845508D01*
X85871283Y-99845508D01*
X85811683Y-99839101D01*
X85811681Y-99839100D01*
X85811673Y-99839100D01*
X85811664Y-99839100D01*
X84215929Y-99839100D01*
X84215923Y-99839101D01*
X84156316Y-99845508D01*
X84021471Y-99895802D01*
X84021464Y-99895806D01*
X83906255Y-99982052D01*
X83906252Y-99982055D01*
X83820006Y-100097264D01*
X83820002Y-100097271D01*
X83769708Y-100232117D01*
X83763301Y-100291716D01*
X83763301Y-100291723D01*
X83763300Y-100291735D01*
X59268782Y-100291735D01*
X59268782Y-97847935D01*
X65597500Y-97847935D01*
X65597500Y-99143670D01*
X65597501Y-99143676D01*
X65603908Y-99203283D01*
X65654202Y-99338128D01*
X65654206Y-99338135D01*
X65740452Y-99453344D01*
X65740455Y-99453347D01*
X65855664Y-99539593D01*
X65855671Y-99539597D01*
X65990517Y-99589891D01*
X65990516Y-99589891D01*
X65997444Y-99590635D01*
X66050127Y-99596300D01*
X67645872Y-99596299D01*
X67705483Y-99589891D01*
X67840331Y-99539596D01*
X67955546Y-99453346D01*
X68041796Y-99338131D01*
X68092091Y-99203283D01*
X68098500Y-99143673D01*
X68098499Y-97847928D01*
X68092091Y-97788317D01*
X68041796Y-97653469D01*
X68041795Y-97653468D01*
X68041793Y-97653464D01*
X67955547Y-97538255D01*
X67955544Y-97538252D01*
X67840335Y-97452006D01*
X67840328Y-97452002D01*
X67705482Y-97401708D01*
X67705483Y-97401708D01*
X67645883Y-97395301D01*
X67645881Y-97395300D01*
X67645873Y-97395300D01*
X67645864Y-97395300D01*
X66050129Y-97395300D01*
X66050123Y-97395301D01*
X65990516Y-97401708D01*
X65855671Y-97452002D01*
X65855664Y-97452006D01*
X65740455Y-97538252D01*
X65740452Y-97538255D01*
X65654206Y-97653464D01*
X65654202Y-97653471D01*
X65603908Y-97788317D01*
X65597501Y-97847916D01*
X65597501Y-97847923D01*
X65597500Y-97847935D01*
X59268782Y-97847935D01*
X59268782Y-96931386D01*
X59269135Y-91415242D01*
X59288824Y-91348204D01*
X59341631Y-91302452D01*
X59393135Y-91291250D01*
X92100526Y-91291250D01*
X92167565Y-91310935D01*
G37*
%TD.AperFunction*%
%TD*%
M02*
